STARTFONT 2.1
FONT -BaDingShiWeiTi 16-Regular-R-Regular--16-16-75-75-c-80-iso10646-1
SIZE 16 75 75
FONTBOUNDINGBOX 16 17 0 -3
STARTPROPERTIES 10
FAMILY_NAME "BaDingShiWeiTi 16"
WEIGHT_NAME "Regular"
FONT_VERSION "Version 1.0"
COPYRIGHT "Copyright (c) yzdnn 2025, Copyright (c) Keitarou Hiraki, Font Silo. 1990-2015"
FOUNDRY "Made with Bits'n'Picas by Kreative Software"
FONT_ASCENT 14
FONT_DESCENT 2
POINT_SIZE 16
X_HEIGHT 9
CAP_HEIGHT 13
ENDPROPERTIES
CHARS 13002
STARTCHAR U+0000
ENCODING 0
SWIDTH 1000 0
DWIDTH 16 0
BBX 0 0 0 0
BITMAP
ENDCHAR
STARTCHAR U+0020
ENCODING 32
SWIDTH 500 0
DWIDTH 8 0
BBX 0 0 0 0
BITMAP
ENDCHAR
STARTCHAR U+0021
ENCODING 33
SWIDTH 500 0
DWIDTH 8 0
BBX 3 13 2 0
BITMAP
40
40
C0
40
40
40
40
40
00
00
40
E0
40
ENDCHAR
STARTCHAR U+0022
ENCODING 34
SWIDTH 500 0
DWIDTH 8 0
BBX 5 5 1 8
BITMAP
D8
D8
48
48
90
ENDCHAR
STARTCHAR U+0023
ENCODING 35
SWIDTH 500 0
DWIDTH 8 0
BBX 7 11 0 1
BITMAP
44
CC
44
FE
44
44
44
FE
44
CC
44
ENDCHAR
STARTCHAR U+0024
ENCODING 36
SWIDTH 500 0
DWIDTH 8 0
BBX 7 16 0 -2
BITMAP
10
3A
56
92
92
90
50
38
14
12
92
92
D4
B8
10
30
ENDCHAR
STARTCHAR U+0025
ENCODING 37
SWIDTH 500 0
DWIDTH 8 0
BBX 7 12 0 1
BITMAP
60
92
92
94
68
10
10
2C
52
92
D2
0C
ENDCHAR
STARTCHAR U+0026
ENCODING 38
SWIDTH 500 0
DWIDTH 8 0
BBX 7 13 0 0
BITMAP
70
88
88
90
90
60
46
64
94
88
88
8E
72
ENDCHAR
STARTCHAR U+0027
ENCODING 39
SWIDTH 500 0
DWIDTH 8 0
BBX 2 5 2 8
BITMAP
C0
C0
40
40
80
ENDCHAR
STARTCHAR U+0028
ENCODING 40
SWIDTH 500 0
DWIDTH 8 0
BBX 4 15 3 -1
BITMAP
10
20
40
40
80
80
80
80
80
80
80
40
40
20
30
ENDCHAR
STARTCHAR U+0029
ENCODING 41
SWIDTH 500 0
DWIDTH 8 0
BBX 4 15 1 -1
BITMAP
80
40
20
20
10
10
10
10
10
10
10
20
20
40
C0
ENDCHAR
STARTCHAR U+002A
ENCODING 42
SWIDTH 500 0
DWIDTH 8 0
BBX 7 8 0 2
BITMAP
30
92
54
38
38
54
92
30
ENDCHAR
STARTCHAR U+002B
ENCODING 43
SWIDTH 500 0
DWIDTH 8 0
BBX 7 9 0 2
BITMAP
10
10
10
50
FE
10
10
30
10
ENDCHAR
STARTCHAR U+002C
ENCODING 44
SWIDTH 500 0
DWIDTH 8 0
BBX 2 5 3 -2
BITMAP
C0
C0
40
40
80
ENDCHAR
STARTCHAR U+002D
ENCODING 45
SWIDTH 500 0
DWIDTH 8 0
BBX 7 2 0 6
BITMAP
40
FE
ENDCHAR
STARTCHAR U+002E
ENCODING 46
SWIDTH 500 0
DWIDTH 8 0
BBX 2 2 3 1
BITMAP
C0
C0
ENDCHAR
STARTCHAR U+002F
ENCODING 47
SWIDTH 500 0
DWIDTH 8 0
BBX 7 16 0 -2
BITMAP
02
02
04
04
08
08
08
10
10
20
20
20
40
40
80
C0
ENDCHAR
STARTCHAR U+0030
ENCODING 48
SWIDTH 500 0
DWIDTH 8 0
BBX 6 13 1 0
BITMAP
30
48
84
84
84
84
84
84
84
84
84
48
30
ENDCHAR
STARTCHAR U+0031
ENCODING 49
SWIDTH 500 0
DWIDTH 8 0
BBX 5 13 1 0
BITMAP
10
30
D0
10
10
10
10
10
10
10
10
10
38
ENDCHAR
STARTCHAR U+0032
ENCODING 50
SWIDTH 500 0
DWIDTH 8 0
BBX 6 13 1 0
BITMAP
30
C8
84
04
04
08
10
10
20
40
44
84
FC
ENDCHAR
STARTCHAR U+0033
ENCODING 51
SWIDTH 500 0
DWIDTH 8 0
BBX 6 13 1 0
BITMAP
30
C8
84
04
04
48
70
08
04
04
84
C8
30
ENDCHAR
STARTCHAR U+0034
ENCODING 52
SWIDTH 500 0
DWIDTH 8 0
BBX 6 13 1 0
BITMAP
08
08
18
28
28
48
48
88
88
FC
08
08
18
ENDCHAR
STARTCHAR U+0035
ENCODING 53
SWIDTH 500 0
DWIDTH 8 0
BBX 6 13 1 0
BITMAP
F8
88
80
80
B0
C8
84
04
04
04
84
C8
30
ENDCHAR
STARTCHAR U+0036
ENCODING 54
SWIDTH 500 0
DWIDTH 8 0
BBX 6 13 1 0
BITMAP
30
4C
84
80
B0
C8
84
84
84
84
84
48
30
ENDCHAR
STARTCHAR U+0037
ENCODING 55
SWIDTH 500 0
DWIDTH 8 0
BBX 6 13 1 0
BITMAP
FC
84
04
08
08
10
10
10
20
20
20
20
60
ENDCHAR
STARTCHAR U+0038
ENCODING 56
SWIDTH 500 0
DWIDTH 8 0
BBX 6 13 1 0
BITMAP
30
48
84
84
84
48
30
48
84
84
84
48
30
ENDCHAR
STARTCHAR U+0039
ENCODING 57
SWIDTH 500 0
DWIDTH 8 0
BBX 6 13 1 0
BITMAP
30
48
84
84
84
84
84
4C
34
04
84
C8
30
ENDCHAR
STARTCHAR U+003A
ENCODING 58
SWIDTH 500 0
DWIDTH 8 0
BBX 2 8 3 1
BITMAP
C0
C0
00
00
00
00
C0
C0
ENDCHAR
STARTCHAR U+003B
ENCODING 59
SWIDTH 500 0
DWIDTH 8 0
BBX 2 11 3 -2
BITMAP
C0
C0
00
00
00
00
C0
C0
40
40
80
ENDCHAR
STARTCHAR U+003C
ENCODING 60
SWIDTH 500 0
DWIDTH 8 0
BBX 7 13 0 0
BITMAP
02
04
08
10
20
40
80
40
20
10
08
04
06
ENDCHAR
STARTCHAR U+003D
ENCODING 61
SWIDTH 500 0
DWIDTH 8 0
BBX 7 5 0 4
BITMAP
40
FE
00
40
FE
ENDCHAR
STARTCHAR U+003E
ENCODING 62
SWIDTH 500 0
DWIDTH 8 0
BBX 7 13 0 0
BITMAP
80
40
20
10
08
04
02
04
08
10
20
40
C0
ENDCHAR
STARTCHAR U+003F
ENCODING 63
SWIDTH 500 0
DWIDTH 8 0
BBX 7 13 0 0
BITMAP
38
C4
82
02
02
04
08
10
10
00
10
38
10
ENDCHAR
STARTCHAR U+0040
ENCODING 64
SWIDTH 500 0
DWIDTH 8 0
BBX 7 13 0 0
BITMAP
38
44
44
92
AA
AA
AA
AA
AA
9C
40
42
3E
ENDCHAR
STARTCHAR U+0041
ENCODING 65
SWIDTH 500 0
DWIDTH 8 0
BBX 7 13 0 0
BITMAP
30
10
10
28
28
28
44
44
7C
82
82
82
C6
ENDCHAR
STARTCHAR U+0042
ENCODING 66
SWIDTH 500 0
DWIDTH 8 0
BBX 7 13 0 0
BITMAP
70
48
44
44
44
48
78
44
42
42
42
44
F8
ENDCHAR
STARTCHAR U+0043
ENCODING 67
SWIDTH 500 0
DWIDTH 8 0
BBX 7 13 0 0
BITMAP
3A
46
42
80
80
80
80
80
82
82
42
44
38
ENDCHAR
STARTCHAR U+0044
ENCODING 68
SWIDTH 500 0
DWIDTH 8 0
BBX 7 13 0 0
BITMAP
70
48
44
44
42
42
42
42
42
44
44
48
F0
ENDCHAR
STARTCHAR U+0045
ENCODING 69
SWIDTH 500 0
DWIDTH 8 0
BBX 7 13 0 0
BITMAP
7E
42
40
40
44
7C
44
40
40
40
42
42
FE
ENDCHAR
STARTCHAR U+0046
ENCODING 70
SWIDTH 500 0
DWIDTH 8 0
BBX 7 13 0 0
BITMAP
7E
42
40
40
44
7C
44
40
40
40
40
40
F0
ENDCHAR
STARTCHAR U+0047
ENCODING 71
SWIDTH 500 0
DWIDTH 8 0
BBX 7 13 0 0
BITMAP
3A
46
42
80
80
80
82
9E
82
82
42
46
3A
ENDCHAR
STARTCHAR U+0048
ENCODING 72
SWIDTH 500 0
DWIDTH 8 0
BBX 7 13 0 0
BITMAP
C6
42
42
42
42
7E
42
42
42
42
42
42
C6
ENDCHAR
STARTCHAR U+0049
ENCODING 73
SWIDTH 500 0
DWIDTH 8 0
BBX 2 13 2 0
BITMAP
C0
40
40
40
40
40
40
40
40
40
40
40
C0
ENDCHAR
STARTCHAR U+004A
ENCODING 74
SWIDTH 500 0
DWIDTH 8 0
BBX 6 13 0 0
BITMAP
0C
04
04
04
04
04
04
04
04
04
C4
88
70
ENDCHAR
STARTCHAR U+004B
ENCODING 75
SWIDTH 500 0
DWIDTH 8 0
BBX 7 13 0 0
BITMAP
C6
44
44
48
50
50
60
50
50
48
44
44
C6
ENDCHAR
STARTCHAR U+004C
ENCODING 76
SWIDTH 500 0
DWIDTH 8 0
BBX 7 13 0 0
BITMAP
60
40
40
40
40
40
40
40
40
40
42
42
FE
ENDCHAR
STARTCHAR U+004D
ENCODING 77
SWIDTH 500 0
DWIDTH 8 0
BBX 7 13 0 0
BITMAP
C6
42
66
66
5A
5A
42
42
42
42
42
42
E6
ENDCHAR
STARTCHAR U+004E
ENCODING 78
SWIDTH 500 0
DWIDTH 8 0
BBX 7 13 0 0
BITMAP
C6
42
62
62
52
52
4A
4A
46
46
42
42
E6
ENDCHAR
STARTCHAR U+004F
ENCODING 79
SWIDTH 500 0
DWIDTH 8 0
BBX 7 13 0 0
BITMAP
38
44
44
82
82
82
82
82
82
82
44
44
38
ENDCHAR
STARTCHAR U+0050
ENCODING 80
SWIDTH 500 0
DWIDTH 8 0
BBX 7 13 0 0
BITMAP
78
44
42
42
42
42
44
78
40
40
40
40
F0
ENDCHAR
STARTCHAR U+0051
ENCODING 81
SWIDTH 500 0
DWIDTH 8 0
BBX 7 14 0 -1
BITMAP
38
44
44
82
82
82
82
B2
92
8A
44
44
3C
06
ENDCHAR
STARTCHAR U+0052
ENCODING 82
SWIDTH 500 0
DWIDTH 8 0
BBX 7 13 0 0
BITMAP
78
44
42
42
42
44
78
44
44
42
42
42
E6
ENDCHAR
STARTCHAR U+0053
ENCODING 83
SWIDTH 500 0
DWIDTH 8 0
BBX 7 13 0 0
BITMAP
3A
46
82
80
80
60
18
04
02
82
82
C4
B8
ENDCHAR
STARTCHAR U+0054
ENCODING 84
SWIDTH 500 0
DWIDTH 8 0
BBX 7 13 0 0
BITMAP
FE
92
92
10
10
10
10
10
10
10
10
10
30
ENDCHAR
STARTCHAR U+0055
ENCODING 85
SWIDTH 500 0
DWIDTH 8 0
BBX 7 13 0 0
BITMAP
C6
42
42
42
42
42
42
42
42
42
42
42
3C
ENDCHAR
STARTCHAR U+0056
ENCODING 86
SWIDTH 500 0
DWIDTH 8 0
BBX 7 13 0 0
BITMAP
C6
44
44
44
44
44
28
28
28
28
10
10
30
ENDCHAR
STARTCHAR U+0057
ENCODING 87
SWIDTH 500 0
DWIDTH 8 0
BBX 7 13 0 0
BITMAP
E6
42
42
42
42
42
5A
5A
5A
24
24
24
6C
ENDCHAR
STARTCHAR U+0058
ENCODING 88
SWIDTH 500 0
DWIDTH 8 0
BBX 7 13 0 0
BITMAP
C6
44
44
44
28
28
10
28
28
44
44
44
C6
ENDCHAR
STARTCHAR U+0059
ENCODING 89
SWIDTH 500 0
DWIDTH 8 0
BBX 7 13 0 0
BITMAP
C6
44
44
44
28
28
28
10
10
10
10
10
30
ENDCHAR
STARTCHAR U+005A
ENCODING 90
SWIDTH 500 0
DWIDTH 8 0
BBX 7 13 0 0
BITMAP
FE
82
04
04
08
08
10
20
20
40
42
82
FE
ENDCHAR
STARTCHAR U+005B
ENCODING 91
SWIDTH 500 0
DWIDTH 8 0
BBX 5 14 2 0
BITMAP
F8
80
80
80
80
80
80
80
80
80
80
80
88
F8
ENDCHAR
STARTCHAR U+005C
ENCODING 92
SWIDTH 500 0
DWIDTH 8 0
BBX 7 16 0 -2
BITMAP
80
80
40
40
20
20
20
10
10
08
08
08
04
04
02
06
ENDCHAR
STARTCHAR U+005D
ENCODING 93
SWIDTH 500 0
DWIDTH 8 0
BBX 5 14 1 0
BITMAP
F8
08
08
08
08
08
08
08
08
08
08
08
88
F8
ENDCHAR
STARTCHAR U+005E
ENCODING 94
SWIDTH 500 0
DWIDTH 8 0
BBX 7 4 0 9
BITMAP
38
28
44
C6
ENDCHAR
STARTCHAR U+005F
ENCODING 95
SWIDTH 500 0
DWIDTH 8 0
BBX 7 2 0 0
BITMAP
40
FE
ENDCHAR
STARTCHAR U+0060
ENCODING 96
SWIDTH 500 0
DWIDTH 8 0
BBX 2 5 3 8
BITMAP
40
80
80
C0
C0
ENDCHAR
STARTCHAR U+0061
ENCODING 97
SWIDTH 500 0
DWIDTH 8 0
BBX 7 9 0 0
BITMAP
78
44
04
04
7C
84
84
8C
76
ENDCHAR
STARTCHAR U+0062
ENCODING 98
SWIDTH 500 0
DWIDTH 8 0
BBX 7 14 0 0
BITMAP
40
40
C0
40
40
58
64
42
42
42
42
42
64
D8
ENDCHAR
STARTCHAR U+0063
ENCODING 99
SWIDTH 500 0
DWIDTH 8 0
BBX 7 9 0 0
BITMAP
3A
46
82
80
80
82
82
44
38
ENDCHAR
STARTCHAR U+0064
ENCODING 100
SWIDTH 500 0
DWIDTH 8 0
BBX 7 14 0 0
BITMAP
04
04
0C
04
04
34
4C
84
84
84
84
84
4C
36
ENDCHAR
STARTCHAR U+0065
ENCODING 101
SWIDTH 500 0
DWIDTH 8 0
BBX 7 9 0 0
BITMAP
38
44
84
82
FE
80
80
44
3C
ENDCHAR
STARTCHAR U+0066
ENCODING 102
SWIDTH 500 0
DWIDTH 8 0
BBX 7 14 0 0
BITMAP
0E
10
10
10
92
FE
10
10
10
10
10
10
10
30
ENDCHAR
STARTCHAR U+0067
ENCODING 103
SWIDTH 500 0
DWIDTH 8 0
BBX 7 11 0 -2
BITMAP
36
4C
84
84
84
84
84
4C
34
44
78
ENDCHAR
STARTCHAR U+0068
ENCODING 104
SWIDTH 500 0
DWIDTH 8 0
BBX 7 14 0 0
BITMAP
40
40
C0
40
40
5C
62
42
42
42
42
42
42
C6
ENDCHAR
STARTCHAR U+0069
ENCODING 105
SWIDTH 500 0
DWIDTH 8 0
BBX 3 14 2 0
BITMAP
40
E0
40
00
00
40
40
C0
40
40
40
40
40
C0
ENDCHAR
STARTCHAR U+006A
ENCODING 106
SWIDTH 500 0
DWIDTH 8 0
BBX 7 16 0 -2
BITMAP
04
0E
04
00
00
04
04
0C
04
04
04
04
04
C4
88
70
ENDCHAR
STARTCHAR U+006B
ENCODING 107
SWIDTH 500 0
DWIDTH 8 0
BBX 7 14 0 0
BITMAP
40
40
C0
40
40
46
44
48
50
60
50
48
44
C6
ENDCHAR
STARTCHAR U+006C
ENCODING 108
SWIDTH 500 0
DWIDTH 8 0
BBX 2 14 2 0
BITMAP
40
40
C0
40
40
40
40
40
40
40
40
40
40
C0
ENDCHAR
STARTCHAR U+006D
ENCODING 109
SWIDTH 500 0
DWIDTH 8 0
BBX 7 9 0 0
BITMAP
EC
92
92
92
92
92
92
92
DA
ENDCHAR
STARTCHAR U+006E
ENCODING 110
SWIDTH 500 0
DWIDTH 8 0
BBX 7 9 0 0
BITMAP
5C
62
C2
42
42
42
42
42
C6
ENDCHAR
STARTCHAR U+006F
ENCODING 111
SWIDTH 500 0
DWIDTH 8 0
BBX 7 9 0 0
BITMAP
38
44
82
82
82
82
82
44
38
ENDCHAR
STARTCHAR U+0070
ENCODING 112
SWIDTH 500 0
DWIDTH 8 0
BBX 7 11 0 -2
BITMAP
58
64
C2
42
42
42
42
64
58
40
C0
ENDCHAR
STARTCHAR U+0071
ENCODING 113
SWIDTH 500 0
DWIDTH 8 0
BBX 7 11 0 -2
BITMAP
36
4C
84
84
84
84
84
4C
34
04
0C
ENDCHAR
STARTCHAR U+0072
ENCODING 114
SWIDTH 500 0
DWIDTH 8 0
BBX 7 9 0 0
BITMAP
5E
62
C0
40
40
40
40
40
C0
ENDCHAR
STARTCHAR U+0073
ENCODING 115
SWIDTH 500 0
DWIDTH 8 0
BBX 7 9 0 0
BITMAP
7A
86
80
40
38
04
82
C2
BC
ENDCHAR
STARTCHAR U+0074
ENCODING 116
SWIDTH 500 0
DWIDTH 8 0
BBX 6 12 1 0
BITMAP
20
60
A4
FC
20
20
20
20
20
20
24
1C
ENDCHAR
STARTCHAR U+0075
ENCODING 117
SWIDTH 500 0
DWIDTH 8 0
BBX 7 9 0 0
BITMAP
C6
42
42
42
42
42
42
46
3A
ENDCHAR
STARTCHAR U+0076
ENCODING 118
SWIDTH 500 0
DWIDTH 8 0
BBX 7 9 0 0
BITMAP
C6
44
44
44
28
28
28
10
30
ENDCHAR
STARTCHAR U+0077
ENCODING 119
SWIDTH 500 0
DWIDTH 8 0
BBX 7 9 0 0
BITMAP
C6
42
42
42
5A
5A
24
24
6C
ENDCHAR
STARTCHAR U+0078
ENCODING 120
SWIDTH 500 0
DWIDTH 8 0
BBX 7 9 0 0
BITMAP
C6
44
28
28
10
28
28
44
C6
ENDCHAR
STARTCHAR U+0079
ENCODING 121
SWIDTH 500 0
DWIDTH 8 0
BBX 7 11 0 -2
BITMAP
C6
44
44
44
28
28
10
10
10
A0
C0
ENDCHAR
STARTCHAR U+007A
ENCODING 122
SWIDTH 500 0
DWIDTH 8 0
BBX 7 9 0 0
BITMAP
FE
82
04
08
10
20
42
82
FE
ENDCHAR
STARTCHAR U+007B
ENCODING 123
SWIDTH 500 0
DWIDTH 8 0
BBX 6 15 1 -1
BITMAP
04
08
10
20
20
20
20
C0
20
20
20
20
10
0C
04
ENDCHAR
STARTCHAR U+007C
ENCODING 124
SWIDTH 500 0
DWIDTH 8 0
BBX 3 16 2 -2
BITMAP
40
40
40
40
40
40
40
40
40
40
40
40
40
E0
40
40
ENDCHAR
STARTCHAR U+007D
ENCODING 125
SWIDTH 500 0
DWIDTH 8 0
BBX 6 15 1 -1
BITMAP
80
40
20
10
10
10
10
0C
10
10
10
10
20
C0
80
ENDCHAR
STARTCHAR U+007E
ENCODING 126
SWIDTH 500 0
DWIDTH 8 0
BBX 7 2 0 11
BITMAP
72
8C
ENDCHAR
STARTCHAR U+00A0
ENCODING 160
SWIDTH 500 0
DWIDTH 8 0
BBX 0 0 0 0
BITMAP
ENDCHAR
STARTCHAR U+00A1
ENCODING 161
SWIDTH 500 0
DWIDTH 8 0
BBX 3 13 2 -2
BITMAP
40
E0
40
00
00
40
40
40
40
40
C0
40
40
ENDCHAR
STARTCHAR U+00A2
ENCODING 162
SWIDTH 1000 0
DWIDTH 16 0
BBX 7 14 4 -2
BITMAP
06
04
04
3C
4E
88
88
88
90
90
56
3C
20
60
ENDCHAR
STARTCHAR U+00A3
ENCODING 163
SWIDTH 1000 0
DWIDTH 16 0
BBX 11 14 2 -1
BITMAP
0E00
1100
2180
2100
1000
9080
FF80
9000
0800
0860
6820
9820
9640
6180
ENDCHAR
STARTCHAR U+00A4
ENCODING 164
SWIDTH 1000 0
DWIDTH 16 0
BBX 10 10 3 1
BITMAP
8040
4C80
3300
2100
4080
4080
2100
3300
4C80
8040
ENDCHAR
STARTCHAR U+00A5
ENCODING 165
SWIDTH 500 0
DWIDTH 8 0
BBX 7 13 0 0
BITMAP
C6
44
44
44
44
28
FE
10
FE
10
10
10
30
ENDCHAR
STARTCHAR U+00A6
ENCODING 166
SWIDTH 500 0
DWIDTH 8 0
BBX 1 16 3 -2
BITMAP
80
80
80
80
80
80
80
00
00
80
80
80
80
80
80
80
ENDCHAR
STARTCHAR U+00A7
ENCODING 167
SWIDTH 1000 0
DWIDTH 16 0
BBX 7 15 4 -1
BITMAP
38
44
86
84
40
30
4C
82
64
18
04
42
C2
44
38
ENDCHAR
STARTCHAR U+00A8
ENCODING 168
SWIDTH 1000 0
DWIDTH 16 0
BBX 6 2 4 12
BITMAP
CC
CC
ENDCHAR
STARTCHAR U+00A9
ENCODING 169
SWIDTH 1000 0
DWIDTH 16 0
BBX 14 14 1 -1
BITMAP
0780
1860
2010
4348
44C8
8844
8804
8844
8844
4488
4308
2010
1860
0780
ENDCHAR
STARTCHAR U+00AA
ENCODING 170
SWIDTH 500 0
DWIDTH 8 0
BBX 5 7 1 7
BITMAP
E0
90
70
B0
D8
00
F8
ENDCHAR
STARTCHAR U+00AB
ENCODING 171
SWIDTH 500 0
DWIDTH 8 0
BBX 7 13 0 0
BITMAP
12
12
24
24
48
48
90
48
48
48
24
24
36
ENDCHAR
STARTCHAR U+00AC
ENCODING 172
SWIDTH 1000 0
DWIDTH 16 0
BBX 11 5 2 3
BITMAP
FFE0
0020
0020
0020
0020
ENDCHAR
STARTCHAR U+00AD
ENCODING 173
SWIDTH 500 0
DWIDTH 8 0
BBX 6 2 1 6
BITMAP
40
FC
ENDCHAR
STARTCHAR U+00AE
ENCODING 174
SWIDTH 1000 0
DWIDTH 16 0
BBX 14 14 1 -1
BITMAP
0780
1860
2010
4F08
4488
8444
8484
8704
8484
4448
4EC8
2010
1860
0780
ENDCHAR
STARTCHAR U+00AF
ENCODING 175
SWIDTH 500 0
DWIDTH 8 0
BBX 7 2 0 12
BITMAP
40
FE
ENDCHAR
STARTCHAR U+00B0
ENCODING 176
SWIDTH 1000 0
DWIDTH 16 0
BBX 5 5 0 9
BITMAP
70
88
88
88
70
ENDCHAR
STARTCHAR U+00B1
ENCODING 177
SWIDTH 1000 0
DWIDTH 16 0
BBX 11 12 2 1
BITMAP
0400
0400
0400
0400
FFE0
0400
0400
0400
0400
0000
0000
FFE0
ENDCHAR
STARTCHAR U+00B2
ENCODING 178
SWIDTH 500 0
DWIDTH 8 0
BBX 5 5 1 9
BITMAP
60
90
20
48
F8
ENDCHAR
STARTCHAR U+00B3
ENCODING 179
SWIDTH 500 0
DWIDTH 8 0
BBX 5 5 1 9
BITMAP
70
88
30
88
70
ENDCHAR
STARTCHAR U+00B4
ENCODING 180
SWIDTH 1000 0
DWIDTH 16 0
BBX 3 3 6 11
BITMAP
20
40
80
ENDCHAR
STARTCHAR U+00B5
ENCODING 181
SWIDTH 500 0
DWIDTH 8 0
BBX 7 11 0 -2
BITMAP
C6
42
42
42
42
42
42
66
5A
40
C0
ENDCHAR
STARTCHAR U+00B6
ENCODING 182
SWIDTH 1000 0
DWIDTH 16 0
BBX 10 14 2 -1
BITMAP
3FC0
7880
F880
F880
7880
3880
0880
0880
0880
0880
0880
0880
0880
0880
ENDCHAR
STARTCHAR U+00B7
ENCODING 183
SWIDTH 500 0
DWIDTH 8 0
BBX 2 2 3 5
BITMAP
C0
C0
ENDCHAR
STARTCHAR U+00B8
ENCODING 184
SWIDTH 500 0
DWIDTH 8 0
BBX 3 2 2 -2
BITMAP
20
C0
ENDCHAR
STARTCHAR U+00B9
ENCODING 185
SWIDTH 500 0
DWIDTH 8 0
BBX 4 5 1 9
BITMAP
20
E0
20
20
70
ENDCHAR
STARTCHAR U+00BA
ENCODING 186
SWIDTH 500 0
DWIDTH 8 0
BBX 5 7 1 7
BITMAP
70
88
88
88
70
00
F8
ENDCHAR
STARTCHAR U+00BB
ENCODING 187
SWIDTH 500 0
DWIDTH 8 0
BBX 7 13 0 0
BITMAP
90
90
48
48
24
24
12
24
24
24
48
48
D8
ENDCHAR
STARTCHAR U+00BC
ENCODING 188
SWIDTH 500 0
DWIDTH 8 0
BBX 7 16 0 -2
BITMAP
02
02
44
C4
48
48
E8
10
10
22
26
2A
4E
42
80
C0
ENDCHAR
STARTCHAR U+00BD
ENCODING 189
SWIDTH 500 0
DWIDTH 8 0
BBX 7 16 0 -2
BITMAP
02
02
44
C4
48
48
E8
10
10
2C
22
24
48
4E
80
C0
ENDCHAR
STARTCHAR U+00BE
ENCODING 190
SWIDTH 500 0
DWIDTH 8 0
BBX 7 16 0 -2
BITMAP
02
02
C4
24
48
28
C8
10
10
22
26
2A
4E
42
80
C0
ENDCHAR
STARTCHAR U+00BF
ENCODING 191
SWIDTH 500 0
DWIDTH 8 0
BBX 7 13 0 -2
BITMAP
10
38
10
00
10
10
20
40
80
80
82
46
38
ENDCHAR
STARTCHAR U+00C0
ENCODING 192
SWIDTH 500 0
DWIDTH 8 0
BBX 7 14 0 0
BITMAP
30
0C
10
10
28
28
28
44
44
7C
82
82
82
C6
ENDCHAR
STARTCHAR U+00C1
ENCODING 193
SWIDTH 500 0
DWIDTH 8 0
BBX 7 14 0 0
BITMAP
0C
30
10
10
28
28
28
44
44
7C
82
82
82
C6
ENDCHAR
STARTCHAR U+00C2
ENCODING 194
SWIDTH 500 0
DWIDTH 8 0
BBX 7 14 0 0
BITMAP
38
6C
10
10
28
28
28
44
44
7C
82
82
82
C6
ENDCHAR
STARTCHAR U+00C3
ENCODING 195
SWIDTH 500 0
DWIDTH 8 0
BBX 7 14 0 0
BITMAP
34
58
10
10
28
28
28
44
44
7C
82
82
82
C6
ENDCHAR
STARTCHAR U+00C4
ENCODING 196
SWIDTH 500 0
DWIDTH 8 0
BBX 7 14 0 0
BITMAP
6C
00
10
10
28
28
28
44
44
7C
82
82
82
C6
ENDCHAR
STARTCHAR U+00C5
ENCODING 197
SWIDTH 500 0
DWIDTH 8 0
BBX 7 14 0 0
BITMAP
38
44
38
10
28
28
28
44
44
7C
82
82
82
C6
ENDCHAR
STARTCHAR U+00C6
ENCODING 198
SWIDTH 500 0
DWIDTH 8 0
BBX 7 13 0 0
BITMAP
3E
32
30
50
50
52
7E
52
90
90
92
92
DE
ENDCHAR
STARTCHAR U+00C7
ENCODING 199
SWIDTH 500 0
DWIDTH 8 0
BBX 7 15 0 -2
BITMAP
3A
46
42
80
80
80
80
80
82
82
42
44
38
10
60
ENDCHAR
STARTCHAR U+00C8
ENCODING 200
SWIDTH 500 0
DWIDTH 8 0
BBX 7 14 0 0
BITMAP
30
08
7E
42
40
44
7C
44
40
40
40
42
42
FE
ENDCHAR
STARTCHAR U+00C9
ENCODING 201
SWIDTH 500 0
DWIDTH 8 0
BBX 7 14 0 0
BITMAP
0C
10
7E
42
40
44
7C
44
40
40
40
42
42
FE
ENDCHAR
STARTCHAR U+00CA
ENCODING 202
SWIDTH 500 0
DWIDTH 8 0
BBX 7 14 0 0
BITMAP
38
6C
00
7E
42
40
44
7C
44
40
40
42
42
FE
ENDCHAR
STARTCHAR U+00CB
ENCODING 203
SWIDTH 500 0
DWIDTH 8 0
BBX 7 14 0 0
BITMAP
66
00
7E
42
40
44
7C
44
40
40
40
42
42
FE
ENDCHAR
STARTCHAR U+00CC
ENCODING 204
SWIDTH 500 0
DWIDTH 8 0
BBX 4 14 2 0
BITMAP
C0
30
40
40
40
40
40
40
40
40
40
40
40
C0
ENDCHAR
STARTCHAR U+00CD
ENCODING 205
SWIDTH 500 0
DWIDTH 8 0
BBX 4 14 1 0
BITMAP
30
C0
20
20
20
20
20
20
20
20
20
20
20
60
ENDCHAR
STARTCHAR U+00CE
ENCODING 206
SWIDTH 500 0
DWIDTH 8 0
BBX 5 14 1 0
BITMAP
70
D8
20
20
20
20
20
20
20
20
20
20
20
60
ENDCHAR
STARTCHAR U+00CF
ENCODING 207
SWIDTH 500 0
DWIDTH 8 0
BBX 5 14 1 0
BITMAP
D8
00
20
20
20
20
20
20
20
20
20
20
20
60
ENDCHAR
STARTCHAR U+00D0
ENCODING 208
SWIDTH 500 0
DWIDTH 8 0
BBX 7 13 0 0
BITMAP
70
48
44
44
42
F2
42
42
42
44
44
48
F0
ENDCHAR
STARTCHAR U+00D1
ENCODING 209
SWIDTH 500 0
DWIDTH 8 0
BBX 7 14 0 0
BITMAP
34
48
C6
62
62
52
52
4A
4A
46
46
42
42
E6
ENDCHAR
STARTCHAR U+00D2
ENCODING 210
SWIDTH 500 0
DWIDTH 8 0
BBX 7 14 0 0
BITMAP
30
0C
38
44
44
82
82
82
82
82
82
44
44
38
ENDCHAR
STARTCHAR U+00D3
ENCODING 211
SWIDTH 500 0
DWIDTH 8 0
BBX 7 14 0 0
BITMAP
18
60
38
44
44
82
82
82
82
82
82
44
44
38
ENDCHAR
STARTCHAR U+00D4
ENCODING 212
SWIDTH 500 0
DWIDTH 8 0
BBX 7 14 0 0
BITMAP
38
6C
00
38
44
44
82
82
82
82
82
44
44
38
ENDCHAR
STARTCHAR U+00D5
ENCODING 213
SWIDTH 500 0
DWIDTH 8 0
BBX 7 14 0 0
BITMAP
34
48
38
44
44
82
82
82
82
82
82
44
44
38
ENDCHAR
STARTCHAR U+00D6
ENCODING 214
SWIDTH 500 0
DWIDTH 8 0
BBX 7 14 0 0
BITMAP
6C
00
38
44
44
82
82
82
82
82
82
44
44
38
ENDCHAR
STARTCHAR U+00D7
ENCODING 215
SWIDTH 1000 0
DWIDTH 16 0
BBX 9 10 3 1
BITMAP
8080
4100
2200
1400
0800
0800
1400
2200
4100
8080
ENDCHAR
STARTCHAR U+00D8
ENCODING 216
SWIDTH 500 0
DWIDTH 8 0
BBX 7 13 0 0
BITMAP
3A
44
44
8A
8A
92
92
92
A2
A2
44
44
B8
ENDCHAR
STARTCHAR U+00D9
ENCODING 217
SWIDTH 500 0
DWIDTH 8 0
BBX 7 14 0 0
BITMAP
30
08
C2
42
42
42
42
42
42
42
42
42
42
3C
ENDCHAR
STARTCHAR U+00DA
ENCODING 218
SWIDTH 500 0
DWIDTH 8 0
BBX 7 14 0 0
BITMAP
04
DA
42
42
42
42
42
42
42
42
42
42
42
3C
ENDCHAR
STARTCHAR U+00DB
ENCODING 219
SWIDTH 500 0
DWIDTH 8 0
BBX 7 14 0 0
BITMAP
38
6C
00
C6
42
42
42
42
42
42
42
42
42
3C
ENDCHAR
STARTCHAR U+00DC
ENCODING 220
SWIDTH 500 0
DWIDTH 8 0
BBX 7 14 0 0
BITMAP
6C
00
C6
42
42
42
42
42
42
42
42
42
42
3C
ENDCHAR
STARTCHAR U+00DD
ENCODING 221
SWIDTH 500 0
DWIDTH 8 0
BBX 7 14 0 0
BITMAP
08
30
C6
44
44
28
28
28
10
10
10
10
10
30
ENDCHAR
STARTCHAR U+00DE
ENCODING 222
SWIDTH 500 0
DWIDTH 8 0
BBX 7 14 0 0
BITMAP
40
40
C0
58
64
42
42
42
42
42
64
58
40
C0
ENDCHAR
STARTCHAR U+00DF
ENCODING 223
SWIDTH 500 0
DWIDTH 8 0
BBX 7 13 0 0
BITMAP
30
48
44
44
44
48
58
44
42
42
42
54
C8
ENDCHAR
STARTCHAR U+00E0
ENCODING 224
SWIDTH 500 0
DWIDTH 8 0
BBX 7 13 0 0
BITMAP
70
0C
00
00
78
44
04
04
7C
84
84
8C
76
ENDCHAR
STARTCHAR U+00E1
ENCODING 225
SWIDTH 500 0
DWIDTH 8 0
BBX 7 13 0 0
BITMAP
0C
70
00
00
78
44
04
04
7C
84
84
8C
76
ENDCHAR
STARTCHAR U+00E2
ENCODING 226
SWIDTH 500 0
DWIDTH 8 0
BBX 7 13 0 0
BITMAP
38
6C
00
00
78
44
04
04
7C
84
84
8C
76
ENDCHAR
STARTCHAR U+00E3
ENCODING 227
SWIDTH 500 0
DWIDTH 8 0
BBX 7 13 0 0
BITMAP
32
4C
00
00
78
44
04
04
7C
84
84
8C
76
ENDCHAR
STARTCHAR U+00E4
ENCODING 228
SWIDTH 500 0
DWIDTH 8 0
BBX 7 12 0 0
BITMAP
66
00
00
78
44
04
04
7C
84
84
8C
76
ENDCHAR
STARTCHAR U+00E5
ENCODING 229
SWIDTH 500 0
DWIDTH 8 0
BBX 7 14 0 0
BITMAP
38
44
38
00
00
78
44
04
04
7C
84
84
8C
76
ENDCHAR
STARTCHAR U+00E6
ENCODING 230
SWIDTH 500 0
DWIDTH 8 0
BBX 7 9 0 0
BITMAP
64
5A
12
12
7E
90
90
AA
46
ENDCHAR
STARTCHAR U+00E7
ENCODING 231
SWIDTH 500 0
DWIDTH 8 0
BBX 7 11 0 -2
BITMAP
3A
46
82
80
80
82
82
44
38
10
60
ENDCHAR
STARTCHAR U+00E8
ENCODING 232
SWIDTH 500 0
DWIDTH 8 0
BBX 7 13 0 0
BITMAP
70
0C
00
00
38
44
84
82
FE
80
80
44
3C
ENDCHAR
STARTCHAR U+00E9
ENCODING 233
SWIDTH 500 0
DWIDTH 8 0
BBX 7 13 0 0
BITMAP
0C
70
00
00
38
44
84
82
FE
80
80
44
3C
ENDCHAR
STARTCHAR U+00EA
ENCODING 234
SWIDTH 500 0
DWIDTH 8 0
BBX 7 13 0 0
BITMAP
38
6C
00
00
38
44
84
82
FE
80
80
44
3C
ENDCHAR
STARTCHAR U+00EB
ENCODING 235
SWIDTH 500 0
DWIDTH 8 0
BBX 7 12 0 0
BITMAP
66
00
00
38
44
84
82
FE
80
80
44
3C
ENDCHAR
STARTCHAR U+00EC
ENCODING 236
SWIDTH 500 0
DWIDTH 8 0
BBX 5 13 1 0
BITMAP
E0
18
00
00
20
20
60
20
20
20
20
20
60
ENDCHAR
STARTCHAR U+00ED
ENCODING 237
SWIDTH 500 0
DWIDTH 8 0
BBX 5 13 1 0
BITMAP
18
E0
00
00
20
20
60
20
20
20
20
20
60
ENDCHAR
STARTCHAR U+00EE
ENCODING 238
SWIDTH 500 0
DWIDTH 8 0
BBX 5 13 1 0
BITMAP
70
D8
00
00
20
20
60
20
20
20
20
20
60
ENDCHAR
STARTCHAR U+00EF
ENCODING 239
SWIDTH 500 0
DWIDTH 8 0
BBX 6 12 1 0
BITMAP
CC
00
00
20
20
60
20
20
20
20
20
60
ENDCHAR
STARTCHAR U+00F0
ENCODING 240
SWIDTH 500 0
DWIDTH 8 0
BBX 6 14 1 0
BITMAP
E4
98
30
C8
84
34
4C
84
84
84
84
84
48
30
ENDCHAR
STARTCHAR U+00F1
ENCODING 241
SWIDTH 500 0
DWIDTH 8 0
BBX 7 13 0 0
BITMAP
32
4C
00
00
5C
62
C2
42
42
42
42
42
C6
ENDCHAR
STARTCHAR U+00F2
ENCODING 242
SWIDTH 500 0
DWIDTH 8 0
BBX 7 13 0 0
BITMAP
70
0C
00
00
38
44
82
82
82
82
82
44
38
ENDCHAR
STARTCHAR U+00F3
ENCODING 243
SWIDTH 500 0
DWIDTH 8 0
BBX 7 13 0 0
BITMAP
0C
70
00
00
38
44
82
82
82
82
82
44
38
ENDCHAR
STARTCHAR U+00F4
ENCODING 244
SWIDTH 500 0
DWIDTH 8 0
BBX 7 13 0 0
BITMAP
38
6C
00
00
38
44
82
82
82
82
82
44
38
ENDCHAR
STARTCHAR U+00F5
ENCODING 245
SWIDTH 500 0
DWIDTH 8 0
BBX 7 13 0 0
BITMAP
32
4C
00
00
38
44
82
82
82
82
82
44
38
ENDCHAR
STARTCHAR U+00F6
ENCODING 246
SWIDTH 500 0
DWIDTH 8 0
BBX 7 12 0 0
BITMAP
66
00
00
38
44
82
82
82
82
82
44
38
ENDCHAR
STARTCHAR U+00F7
ENCODING 247
SWIDTH 1000 0
DWIDTH 16 0
BBX 11 11 2 1
BITMAP
0400
0E00
0400
0000
0000
FFE0
0000
0000
0400
0E00
0400
ENDCHAR
STARTCHAR U+00F8
ENCODING 248
SWIDTH 500 0
DWIDTH 8 0
BBX 7 9 0 0
BITMAP
3A
44
8A
8A
92
A2
A2
44
B8
ENDCHAR
STARTCHAR U+00F9
ENCODING 249
SWIDTH 500 0
DWIDTH 8 0
BBX 7 13 0 0
BITMAP
70
0C
00
00
C6
42
42
42
42
42
42
46
3A
ENDCHAR
STARTCHAR U+00FA
ENCODING 250
SWIDTH 500 0
DWIDTH 8 0
BBX 7 13 0 0
BITMAP
0C
70
00
00
C6
42
42
42
42
42
42
46
3A
ENDCHAR
STARTCHAR U+00FB
ENCODING 251
SWIDTH 500 0
DWIDTH 8 0
BBX 7 13 0 0
BITMAP
38
6C
00
00
C6
42
42
42
42
42
42
46
3A
ENDCHAR
STARTCHAR U+00FC
ENCODING 252
SWIDTH 500 0
DWIDTH 8 0
BBX 7 12 0 0
BITMAP
66
00
00
C6
42
42
42
42
42
42
46
3A
ENDCHAR
STARTCHAR U+00FD
ENCODING 253
SWIDTH 500 0
DWIDTH 8 0
BBX 7 15 0 -2
BITMAP
0C
70
00
00
C6
44
44
44
28
28
10
10
10
A0
C0
ENDCHAR
STARTCHAR U+00FE
ENCODING 254
SWIDTH 500 0
DWIDTH 8 0
BBX 7 16 0 -2
BITMAP
40
40
C0
40
40
58
64
42
42
42
42
42
64
58
40
C0
ENDCHAR
STARTCHAR U+00FF
ENCODING 255
SWIDTH 500 0
DWIDTH 8 0
BBX 7 14 0 -2
BITMAP
66
00
00
C6
44
44
44
28
28
10
10
10
A0
C0
ENDCHAR
STARTCHAR U+0101
ENCODING 257
SWIDTH 500 0
DWIDTH 8 0
BBX 7 12 0 0
BITMAP
7C
00
00
78
44
04
04
7C
84
84
8C
76
ENDCHAR
STARTCHAR U+0113
ENCODING 275
SWIDTH 500 0
DWIDTH 8 0
BBX 7 12 0 0
BITMAP
7C
00
00
38
44
84
82
FE
80
80
44
3C
ENDCHAR
STARTCHAR U+011B
ENCODING 283
SWIDTH 500 0
DWIDTH 8 0
BBX 7 13 0 0
BITMAP
6C
38
00
00
38
44
84
82
FE
80
80
44
3C
ENDCHAR
STARTCHAR U+012B
ENCODING 299
SWIDTH 500 0
DWIDTH 8 0
BBX 5 12 1 0
BITMAP
F8
00
00
20
20
60
20
20
20
20
20
60
ENDCHAR
STARTCHAR U+014B
ENCODING 331
SWIDTH 500 0
DWIDTH 8 0
BBX 7 11 0 -2
BITMAP
5C
62
C2
42
42
42
42
42
C2
14
18
ENDCHAR
STARTCHAR U+014D
ENCODING 333
SWIDTH 500 0
DWIDTH 8 0
BBX 7 12 0 0
BITMAP
7C
00
00
38
44
82
82
82
82
82
44
38
ENDCHAR
STARTCHAR U+016B
ENCODING 363
SWIDTH 500 0
DWIDTH 8 0
BBX 7 12 0 0
BITMAP
7C
00
00
C6
42
42
42
42
42
42
46
3A
ENDCHAR
STARTCHAR U+01C0
ENCODING 448
SWIDTH 500 0
DWIDTH 8 0
BBX 2 13 2 0
BITMAP
40
40
40
40
40
40
40
40
40
40
40
40
C0
ENDCHAR
STARTCHAR U+01CE
ENCODING 462
SWIDTH 500 0
DWIDTH 8 0
BBX 7 13 0 0
BITMAP
6C
38
00
00
78
44
04
04
7C
84
84
8C
76
ENDCHAR
STARTCHAR U+01D0
ENCODING 464
SWIDTH 500 0
DWIDTH 8 0
BBX 5 13 1 0
BITMAP
D8
70
00
00
20
20
60
20
20
20
20
20
60
ENDCHAR
STARTCHAR U+01D2
ENCODING 466
SWIDTH 500 0
DWIDTH 8 0
BBX 7 13 0 0
BITMAP
6C
38
00
00
38
44
82
82
82
82
82
44
38
ENDCHAR
STARTCHAR U+01D4
ENCODING 468
SWIDTH 500 0
DWIDTH 8 0
BBX 7 13 0 0
BITMAP
6C
38
00
00
C6
42
42
42
42
42
42
46
3A
ENDCHAR
STARTCHAR U+01D6
ENCODING 470
SWIDTH 500 0
DWIDTH 8 0
BBX 7 13 0 0
BITMAP
7C
00
66
00
C6
42
42
42
42
42
42
46
3A
ENDCHAR
STARTCHAR U+01D8
ENCODING 472
SWIDTH 500 0
DWIDTH 8 0
BBX 7 14 0 0
BITMAP
0C
70
00
66
00
C6
42
42
42
42
42
42
46
3A
ENDCHAR
STARTCHAR U+01DA
ENCODING 474
SWIDTH 500 0
DWIDTH 8 0
BBX 7 14 0 0
BITMAP
6C
38
00
66
00
C6
42
42
42
42
42
42
46
3A
ENDCHAR
STARTCHAR U+01DC
ENCODING 476
SWIDTH 500 0
DWIDTH 8 0
BBX 7 14 0 0
BITMAP
70
0C
00
66
00
C6
42
42
42
42
42
42
46
3A
ENDCHAR
STARTCHAR U+0251
ENCODING 593
SWIDTH 500 0
DWIDTH 8 0
BBX 7 9 0 0
BITMAP
36
4C
84
84
84
84
84
8C
76
ENDCHAR
STARTCHAR U+0252
ENCODING 594
SWIDTH 500 0
DWIDTH 8 0
BBX 7 9 0 0
BITMAP
DC
62
42
42
42
42
42
64
D8
ENDCHAR
STARTCHAR U+0254
ENCODING 596
SWIDTH 500 0
DWIDTH 8 0
BBX 7 9 0 0
BITMAP
38
44
82
82
02
02
82
C4
B8
ENDCHAR
STARTCHAR U+0259
ENCODING 601
SWIDTH 500 0
DWIDTH 8 0
BBX 7 9 0 0
BITMAP
78
44
02
02
FE
82
42
44
38
ENDCHAR
STARTCHAR U+025C
ENCODING 604
SWIDTH 500 0
DWIDTH 8 0
BBX 7 9 0 0
BITMAP
38
C4
82
22
3C
02
82
C4
38
ENDCHAR
STARTCHAR U+026A
ENCODING 618
SWIDTH 500 0
DWIDTH 8 0
BBX 2 9 2 0
BITMAP
C0
40
40
40
40
40
40
40
C0
ENDCHAR
STARTCHAR U+0283
ENCODING 643
SWIDTH 500 0
DWIDTH 8 0
BBX 6 15 1 -2
BITMAP
08
14
1C
10
10
10
10
10
10
10
10
10
D0
A0
40
ENDCHAR
STARTCHAR U+028A
ENCODING 650
SWIDTH 500 0
DWIDTH 8 0
BBX 7 9 0 0
BITMAP
C6
44
82
82
82
82
82
44
38
ENDCHAR
STARTCHAR U+028C
ENCODING 652
SWIDTH 500 0
DWIDTH 8 0
BBX 7 9 0 0
BITMAP
18
10
28
28
28
44
44
44
C6
ENDCHAR
STARTCHAR U+0292
ENCODING 658
SWIDTH 500 0
DWIDTH 8 0
BBX 6 11 1 -2
BITMAP
FC
88
10
20
70
48
04
04
04
88
F0
ENDCHAR
STARTCHAR U+02C7
ENCODING 711
SWIDTH 1000 0
DWIDTH 16 0
BBX 4 2 6 11
BITMAP
90
60
ENDCHAR
STARTCHAR U+02C9
ENCODING 713
SWIDTH 1000 0
DWIDTH 16 0
BBX 4 1 6 12
BITMAP
F0
ENDCHAR
STARTCHAR U+02CA
ENCODING 714
SWIDTH 1000 0
DWIDTH 16 0
BBX 4 2 6 11
BITMAP
30
C0
ENDCHAR
STARTCHAR U+02CB
ENCODING 715
SWIDTH 1000 0
DWIDTH 16 0
BBX 4 2 6 11
BITMAP
C0
30
ENDCHAR
STARTCHAR U+0391
ENCODING 913
SWIDTH 1000 0
DWIDTH 16 0
BBX 13 13 1 0
BITMAP
0F80
0200
0500
0500
0880
0880
0880
1040
1FC0
1040
2020
2020
F8F8
ENDCHAR
STARTCHAR U+0392
ENCODING 914
SWIDTH 1000 0
DWIDTH 16 0
BBX 10 13 2 0
BITMAP
FE00
2100
2080
2080
2080
3F00
2080
2040
2040
2040
2040
2080
FF00
ENDCHAR
STARTCHAR U+0393
ENCODING 915
SWIDTH 1000 0
DWIDTH 16 0
BBX 10 13 2 0
BITMAP
FFC0
2040
2040
2040
2000
2000
2000
2000
2000
2000
2000
2000
FE00
ENDCHAR
STARTCHAR U+0394
ENCODING 916
SWIDTH 1000 0
DWIDTH 16 0
BBX 13 13 1 0
BITMAP
0F80
0200
0500
0500
0880
0880
1040
1040
2020
2020
4010
4010
FFF8
ENDCHAR
STARTCHAR U+0395
ENCODING 917
SWIDTH 1000 0
DWIDTH 16 0
BBX 11 13 2 0
BITMAP
FFE0
2020
2020
2020
2100
3F00
2100
2100
2000
2020
2020
2020
FFE0
ENDCHAR
STARTCHAR U+0396
ENCODING 918
SWIDTH 1000 0
DWIDTH 16 0
BBX 10 13 3 0
BITMAP
FFC0
8080
8100
8200
0200
0400
0800
0800
1040
2040
2040
4040
FFC0
ENDCHAR
STARTCHAR U+0397
ENCODING 919
SWIDTH 1000 0
DWIDTH 16 0
BBX 13 13 1 0
BITMAP
FDF8
2020
2020
2020
2020
3FE0
2020
2020
2020
2020
2020
2020
FDF8
ENDCHAR
STARTCHAR U+0398
ENCODING 920
SWIDTH 1000 0
DWIDTH 16 0
BBX 11 13 2 0
BITMAP
1F00
2080
4040
4040
9120
9F20
9120
9120
8020
4040
4040
2080
1F00
ENDCHAR
STARTCHAR U+0399
ENCODING 921
SWIDTH 1000 0
DWIDTH 16 0
BBX 7 13 4 0
BITMAP
FE
10
10
10
10
10
10
10
10
10
10
10
FE
ENDCHAR
STARTCHAR U+039A
ENCODING 922
SWIDTH 1000 0
DWIDTH 16 0
BBX 12 13 1 0
BITMAP
FDF0
2040
2080
2100
2200
3C00
2400
2200
2100
2080
2080
2040
FDF0
ENDCHAR
STARTCHAR U+039B
ENCODING 923
SWIDTH 1000 0
DWIDTH 16 0
BBX 13 13 1 0
BITMAP
0F80
0200
0500
0500
0880
0880
0880
1040
1040
1040
2020
2020
FDF8
ENDCHAR
STARTCHAR U+039C
ENCODING 924
SWIDTH 1000 0
DWIDTH 16 0
BBX 15 13 0 0
BITMAP
F83E
3018
2828
2828
2828
2448
2448
2288
2288
2288
2108
2108
F7DE
ENDCHAR
STARTCHAR U+039D
ENCODING 925
SWIDTH 1000 0
DWIDTH 16 0
BBX 13 13 1 0
BITMAP
F9F8
2020
3020
2820
2420
2420
2220
2120
2120
20A0
2060
2020
FCF8
ENDCHAR
STARTCHAR U+039E
ENCODING 926
SWIDTH 1000 0
DWIDTH 16 0
BBX 11 13 2 0
BITMAP
FFE0
8020
0000
0000
0000
4040
7FC0
4040
0000
0000
0000
8020
FFE0
ENDCHAR
STARTCHAR U+039F
ENCODING 927
SWIDTH 1000 0
DWIDTH 16 0
BBX 11 13 2 0
BITMAP
1F00
3080
4040
4040
8020
8020
8020
8020
8020
4040
4040
2080
1F00
ENDCHAR
STARTCHAR U+03A0
ENCODING 928
SWIDTH 1000 0
DWIDTH 16 0
BBX 11 13 2 0
BITMAP
FFE0
2080
2080
2080
2080
2080
2080
2080
2080
2080
2080
2080
FBE0
ENDCHAR
STARTCHAR U+03A1
ENCODING 929
SWIDTH 1000 0
DWIDTH 16 0
BBX 11 13 2 0
BITMAP
FF80
2040
2020
2020
2020
2040
3F80
2000
2000
2000
2000
2000
FE00
ENDCHAR
STARTCHAR U+03A3
ENCODING 931
SWIDTH 1000 0
DWIDTH 16 0
BBX 11 13 2 0
BITMAP
FFE0
4020
2020
1020
0800
0400
0200
0400
0800
1020
2020
4020
FFE0
ENDCHAR
STARTCHAR U+03A4
ENCODING 932
SWIDTH 1000 0
DWIDTH 16 0
BBX 11 13 2 0
BITMAP
FFE0
8420
8420
8420
8420
0400
0400
0400
0400
0400
0400
0400
3F80
ENDCHAR
STARTCHAR U+03A5
ENCODING 933
SWIDTH 1000 0
DWIDTH 16 0
BBX 11 13 2 0
BITMAP
71C0
8A20
8420
C460
0400
0400
0400
0400
0400
0400
0400
0400
3F80
ENDCHAR
STARTCHAR U+03A6
ENCODING 934
SWIDTH 1000 0
DWIDTH 16 0
BBX 11 13 2 0
BITMAP
3F80
0400
1F00
64C0
8420
8420
8420
8420
8420
64C0
1F00
0400
3F80
ENDCHAR
STARTCHAR U+03A7
ENCODING 935
SWIDTH 1000 0
DWIDTH 16 0
BBX 13 13 1 0
BITMAP
FDF8
2020
1040
0880
0500
0200
0200
0500
0880
0880
1040
2020
FDF8
ENDCHAR
STARTCHAR U+03A8
ENCODING 936
SWIDTH 1000 0
DWIDTH 16 0
BBX 13 13 1 0
BITMAP
1FC0
0200
C218
A228
2220
2220
2220
1240
0F80
0200
0200
0200
1FC0
ENDCHAR
STARTCHAR U+03A9
ENCODING 937
SWIDTH 1000 0
DWIDTH 16 0
BBX 11 13 2 0
BITMAP
1F00
2080
4040
4040
8020
8020
8020
4040
4040
2080
9120
9120
FBE0
ENDCHAR
STARTCHAR U+03B1
ENCODING 945
SWIDTH 1000 0
DWIDTH 16 0
BBX 11 9 2 0
BITMAP
0E60
1120
2140
4180
4100
8100
8300
8D40
70C0
ENDCHAR
STARTCHAR U+03B2
ENCODING 946
SWIDTH 1000 0
DWIDTH 16 0
BBX 10 15 2 -2
BITMAP
0780
0840
0840
1040
1080
1F00
3100
2080
2080
2080
5100
4E00
4000
4000
E000
ENDCHAR
STARTCHAR U+03B3
ENCODING 947
SWIDTH 1000 0
DWIDTH 16 0
BBX 10 11 3 -2
BITMAP
61C0
D240
1400
0800
0800
1000
1000
1000
2000
2000
3000
ENDCHAR
STARTCHAR U+03B4
ENCODING 948
SWIDTH 1000 0
DWIDTH 16 0
BBX 9 13 4 0
BITMAP
1E00
2100
3080
0980
1800
2400
4200
4200
8200
8200
8400
8800
7000
ENDCHAR
STARTCHAR U+03B5
ENCODING 949
SWIDTH 1000 0
DWIDTH 16 0
BBX 8 9 4 0
BITMAP
3E
43
40
24
3C
40
80
86
7C
ENDCHAR
STARTCHAR U+03B6
ENCODING 950
SWIDTH 1000 0
DWIDTH 16 0
BBX 9 15 3 -2
BITMAP
1800
3000
2380
1E80
0800
1000
2000
4000
4000
8000
8000
7800
0400
1200
1C00
ENDCHAR
STARTCHAR U+03B7
ENCODING 951
SWIDTH 1000 0
DWIDTH 16 0
BBX 9 11 3 -2
BITMAP
C700
A880
1080
1100
2100
2200
4200
6200
0400
0400
0E00
ENDCHAR
STARTCHAR U+03B8
ENCODING 952
SWIDTH 1000 0
DWIDTH 16 0
BBX 8 13 3 0
BITMAP
0E
11
21
21
41
7F
42
82
82
84
84
88
70
ENDCHAR
STARTCHAR U+03B9
ENCODING 953
SWIDTH 1000 0
DWIDTH 16 0
BBX 5 9 5 0
BITMAP
38
20
20
40
40
80
80
98
70
ENDCHAR
STARTCHAR U+03BA
ENCODING 954
SWIDTH 1000 0
DWIDTH 16 0
BBX 10 9 2 0
BITMAP
39C0
1240
1400
1800
2400
2400
2400
4580
E300
ENDCHAR
STARTCHAR U+03BB
ENCODING 955
SWIDTH 1000 0
DWIDTH 16 0
BBX 9 13 3 0
BITMAP
1800
1400
0200
0200
0200
0600
0600
0A00
0A00
1200
2200
C280
8180
ENDCHAR
STARTCHAR U+03BC
ENCODING 956
SWIDTH 1000 0
DWIDTH 16 0
BBX 11 11 1 -2
BITMAP
0CE0
0840
0840
1080
1080
1080
11A0
2E60
2000
4000
E000
ENDCHAR
STARTCHAR U+03BD
ENCODING 957
SWIDTH 1000 0
DWIDTH 16 0
BBX 8 9 4 0
BITMAP
C3
61
42
42
44
48
90
E0
C0
ENDCHAR
STARTCHAR U+03BE
ENCODING 958
SWIDTH 1000 0
DWIDTH 16 0
BBX 9 15 3 -2
BITMAP
0E00
1200
0F80
1100
2000
2000
1000
3F00
4200
8000
8000
7800
0400
1200
1C00
ENDCHAR
STARTCHAR U+03BF
ENCODING 959
SWIDTH 1000 0
DWIDTH 16 0
BBX 7 9 4 0
BITMAP
1C
32
42
42
82
84
84
88
70
ENDCHAR
STARTCHAR U+03C0
ENCODING 960
SWIDTH 1000 0
DWIDTH 16 0
BBX 11 10 2 0
BITMAP
0060
3FC0
6900
0900
1200
1200
2200
2400
4580
E300
ENDCHAR
STARTCHAR U+03C1
ENCODING 961
SWIDTH 1000 0
DWIDTH 16 0
BBX 9 11 2 -2
BITMAP
0700
0880
1080
1080
2080
2080
3100
4E00
4000
4000
E000
ENDCHAR
STARTCHAR U+03C2
ENCODING 962
SWIDTH 1000 0
DWIDTH 16 0
BBX 9 11 3 -2
BITMAP
0700
1880
2000
4000
4000
8000
8000
7800
0400
1200
1C00
ENDCHAR
STARTCHAR U+03C3
ENCODING 963
SWIDTH 1000 0
DWIDTH 16 0
BBX 10 10 3 0
BITMAP
00C0
1F80
2400
4200
4200
8200
8400
8400
8800
7000
ENDCHAR
STARTCHAR U+03C4
ENCODING 964
SWIDTH 1000 0
DWIDTH 16 0
BBX 10 10 2 0
BITMAP
00C0
7F80
C200
0400
0800
0800
1000
1000
1300
0E00
ENDCHAR
STARTCHAR U+03C5
ENCODING 965
SWIDTH 1000 0
DWIDTH 16 0
BBX 8 9 3 0
BITMAP
62
43
41
41
41
82
82
84
78
ENDCHAR
STARTCHAR U+03C6
ENCODING 966
SWIDTH 1000 0
DWIDTH 16 0
BBX 9 15 3 -2
BITMAP
0700
0200
0400
0400
3E00
4500
8880
8880
8880
9080
5100
3E00
1000
2000
7000
ENDCHAR
STARTCHAR U+03C7
ENCODING 967
SWIDTH 1000 0
DWIDTH 16 0
BBX 9 11 3 -2
BITMAP
6180
D100
0900
0A00
0C00
0800
1800
2800
4400
4580
C300
ENDCHAR
STARTCHAR U+03C8
ENCODING 968
SWIDTH 1000 0
DWIDTH 16 0
BBX 9 15 3 -2
BITMAP
0700
0200
0400
0400
8500
C980
4880
4880
8880
9100
5200
3C00
1000
2000
7000
ENDCHAR
STARTCHAR U+03C9
ENCODING 969
SWIDTH 1000 0
DWIDTH 16 0
BBX 11 9 2 0
BITMAP
1080
30C0
4020
4020
8420
8C20
8840
9880
6700
ENDCHAR
STARTCHAR U+0401
ENCODING 1025
SWIDTH 1000 0
DWIDTH 16 0
BBX 10 14 2 0
BITMAP
3300
0000
FFC0
2040
2040
2140
2100
3F00
2100
2100
2040
2040
2040
FFC0
ENDCHAR
STARTCHAR U+0410
ENCODING 1040
SWIDTH 1000 0
DWIDTH 16 0
BBX 13 13 1 0
BITMAP
0F80
0200
0500
0500
0880
0880
0880
1040
1FC0
1040
2020
2020
F8F8
ENDCHAR
STARTCHAR U+0411
ENCODING 1041
SWIDTH 1000 0
DWIDTH 16 0
BBX 9 13 3 0
BITMAP
FF80
2080
2080
2080
2000
3E00
2100
2080
2080
2080
2080
2100
FE00
ENDCHAR
STARTCHAR U+0412
ENCODING 1042
SWIDTH 1000 0
DWIDTH 16 0
BBX 9 13 3 0
BITMAP
FC00
2200
2100
2100
2100
3E00
2100
2080
2080
2080
2080
2100
FE00
ENDCHAR
STARTCHAR U+0413
ENCODING 1043
SWIDTH 1000 0
DWIDTH 16 0
BBX 9 13 3 0
BITMAP
FF80
2080
2080
2080
2000
2000
2000
2000
2000
2000
2000
2000
FE00
ENDCHAR
STARTCHAR U+0414
ENCODING 1044
SWIDTH 1000 0
DWIDTH 16 0
BBX 11 15 2 -2
BITMAP
7FE0
1080
1080
1080
1080
1080
1080
1080
1080
1080
2080
2080
FFE0
8020
8020
ENDCHAR
STARTCHAR U+0415
ENCODING 1045
SWIDTH 1000 0
DWIDTH 16 0
BBX 10 13 2 0
BITMAP
FFC0
2040
2040
2140
2100
3F00
2100
2100
2100
2040
2040
2040
FFC0
ENDCHAR
STARTCHAR U+0416
ENCODING 1046
SWIDTH 1000 0
DWIDTH 16 0
BBX 13 13 1 0
BITMAP
CF98
A228
2220
2220
2220
1240
0F80
1240
1240
2220
4210
4210
F778
ENDCHAR
STARTCHAR U+0417
ENCODING 1047
SWIDTH 1000 0
DWIDTH 16 0
BBX 9 13 3 0
BITMAP
3E00
4100
8080
C080
0080
1100
1E00
1100
0080
C080
8080
4100
3E00
ENDCHAR
STARTCHAR U+0418
ENCODING 1048
SWIDTH 1000 0
DWIDTH 16 0
BBX 13 13 1 0
BITMAP
F8F8
2020
2060
20A0
2120
2120
2220
2420
2420
2820
3020
2020
F0F8
ENDCHAR
STARTCHAR U+0419
ENCODING 1049
SWIDTH 1000 0
DWIDTH 16 0
BBX 13 14 1 0
BITMAP
0D80
0700
F8F8
2020
2060
20A0
2120
2220
2220
2420
2820
3020
2020
F8F8
ENDCHAR
STARTCHAR U+041A
ENCODING 1050
SWIDTH 1000 0
DWIDTH 16 0
BBX 12 13 1 0
BITMAP
F860
20B0
2080
2100
2200
3C00
2200
2100
2080
2080
2040
2020
F9F0
ENDCHAR
STARTCHAR U+041B
ENCODING 1051
SWIDTH 1000 0
DWIDTH 16 0
BBX 12 13 1 0
BITMAP
1FF0
0440
0440
0440
0440
0440
0440
0440
0440
0840
C840
9040
61F0
ENDCHAR
STARTCHAR U+041C
ENCODING 1052
SWIDTH 1000 0
DWIDTH 16 0
BBX 15 13 0 0
BITMAP
7C7C
1450
1450
1450
1290
1290
1290
2108
2108
2108
2108
2108
F7DE
ENDCHAR
STARTCHAR U+041D
ENCODING 1053
SWIDTH 1000 0
DWIDTH 16 0
BBX 13 13 1 0
BITMAP
F8F8
2020
2020
2020
2020
3FE0
2020
2020
2020
2020
2020
2020
F8F8
ENDCHAR
STARTCHAR U+041E
ENCODING 1054
SWIDTH 1000 0
DWIDTH 16 0
BBX 11 13 2 0
BITMAP
1F00
3080
4040
4040
8020
8020
8020
8020
8020
4040
4040
2080
1F00
ENDCHAR
STARTCHAR U+041F
ENCODING 1055
SWIDTH 1000 0
DWIDTH 16 0
BBX 11 13 2 0
BITMAP
FFE0
2080
2080
2080
2080
2080
2080
2080
2080
2080
2080
2080
FBE0
ENDCHAR
STARTCHAR U+0420
ENCODING 1056
SWIDTH 1000 0
DWIDTH 16 0
BBX 9 13 3 0
BITMAP
FE00
2100
2080
2080
2080
2080
2100
3E00
2000
2000
2000
2000
FE00
ENDCHAR
STARTCHAR U+0421
ENCODING 1057
SWIDTH 1000 0
DWIDTH 16 0
BBX 10 13 2 0
BITMAP
1E40
2140
40C0
4040
8040
8000
8000
8000
8040
4040
40C0
2140
1E40
ENDCHAR
STARTCHAR U+0422
ENCODING 1058
SWIDTH 1000 0
DWIDTH 16 0
BBX 11 13 2 0
BITMAP
FFE0
8420
8420
8420
8420
0400
0400
0400
0400
0400
0400
0400
3F80
ENDCHAR
STARTCHAR U+0423
ENCODING 1059
SWIDTH 1000 0
DWIDTH 16 0
BBX 13 13 1 0
BITMAP
F8F8
2020
2020
1040
1040
0880
0880
0500
0500
0200
3200
2400
1800
ENDCHAR
STARTCHAR U+0424
ENCODING 1060
SWIDTH 1000 0
DWIDTH 16 0
BBX 11 13 2 0
BITMAP
1F00
0400
1F00
64C0
8420
8420
8420
8420
8420
64C0
1F00
0400
1F00
ENDCHAR
STARTCHAR U+0425
ENCODING 1061
SWIDTH 1000 0
DWIDTH 16 0
BBX 11 13 2 0
BITMAP
FBE0
2080
2080
1100
0A00
0400
0400
0A00
1100
1100
2080
2080
FBE0
ENDCHAR
STARTCHAR U+0426
ENCODING 1062
SWIDTH 1000 0
DWIDTH 16 0
BBX 12 15 2 -2
BITMAP
FBE0
2080
2080
2080
2080
2080
2080
2080
2080
2080
2080
2080
FFF0
0010
0010
ENDCHAR
STARTCHAR U+0427
ENCODING 1063
SWIDTH 1000 0
DWIDTH 16 0
BBX 12 13 1 0
BITMAP
F9F0
2040
2040
2040
2040
2040
2040
10C0
0F40
0040
0040
0040
03F0
ENDCHAR
STARTCHAR U+0428
ENCODING 1064
SWIDTH 1000 0
DWIDTH 16 0
BBX 15 13 0 0
BITMAP
FBDE
2108
2108
2108
2108
2108
2108
2108
2108
2108
2108
2108
FFFE
ENDCHAR
STARTCHAR U+0429
ENCODING 1065
SWIDTH 1000 0
DWIDTH 16 0
BBX 15 15 0 -2
BITMAP
FBDE
2108
2108
2108
2108
2108
2108
2108
2108
2108
2108
2108
FFFE
0002
0002
ENDCHAR
STARTCHAR U+042A
ENCODING 1066
SWIDTH 1000 0
DWIDTH 16 0
BBX 11 13 2 0
BITMAP
F800
8800
8800
8800
0F80
0840
0820
0820
0820
0820
0820
0840
3F80
ENDCHAR
STARTCHAR U+042B
ENCODING 1067
SWIDTH 1000 0
DWIDTH 16 0
BBX 13 13 1 0
BITMAP
FCF8
2020
2020
2020
3C20
2220
2120
2120
2120
2120
2120
2220
FCF8
ENDCHAR
STARTCHAR U+042C
ENCODING 1068
SWIDTH 1000 0
DWIDTH 16 0
BBX 9 13 3 0
BITMAP
FC00
2000
2000
2000
3E00
2100
2080
2080
2080
2080
2080
2100
FE00
ENDCHAR
STARTCHAR U+042D
ENCODING 1069
SWIDTH 1000 0
DWIDTH 16 0
BBX 10 13 3 0
BITMAP
9E00
A100
C080
8080
0040
30C0
6940
0640
8040
8080
C080
A100
9E00
ENDCHAR
STARTCHAR U+042E
ENCODING 1070
SWIDTH 1000 0
DWIDTH 16 0
BBX 13 13 1 0
BITMAP
F9E0
2310
2408
2408
2408
3C08
2408
2408
2408
2408
2408
2210
F9E0
ENDCHAR
STARTCHAR U+042F
ENCODING 1071
SWIDTH 1000 0
DWIDTH 16 0
BBX 11 13 2 0
BITMAP
1FE0
2080
4080
4080
4080
2080
1F80
0880
1080
1080
2080
A080
C3E0
ENDCHAR
STARTCHAR U+0430
ENCODING 1072
SWIDTH 1000 0
DWIDTH 16 0
BBX 8 9 3 0
BITMAP
3C
62
02
1E
62
82
82
87
79
ENDCHAR
STARTCHAR U+0431
ENCODING 1073
SWIDTH 1000 0
DWIDTH 16 0
BBX 8 13 3 0
BITMAP
02
3E
40
80
BC
C2
81
81
81
81
81
42
3C
ENDCHAR
STARTCHAR U+0432
ENCODING 1074
SWIDTH 1000 0
DWIDTH 16 0
BBX 8 9 3 0
BITMAP
FC
22
22
22
3E
21
21
21
FE
ENDCHAR
STARTCHAR U+0433
ENCODING 1075
SWIDTH 1000 0
DWIDTH 16 0
BBX 8 9 3 0
BITMAP
FF
21
21
21
20
20
20
20
FC
ENDCHAR
STARTCHAR U+0434
ENCODING 1076
SWIDTH 1000 0
DWIDTH 16 0
BBX 10 11 3 -2
BITMAP
7FC0
1100
1100
1100
1100
1100
2100
2100
FFC0
8040
8040
ENDCHAR
STARTCHAR U+0435
ENCODING 1077
SWIDTH 1000 0
DWIDTH 16 0
BBX 8 9 3 0
BITMAP
3C
42
81
81
FF
80
80
43
3E
ENDCHAR
STARTCHAR U+0436
ENCODING 1078
SWIDTH 1000 0
DWIDTH 16 0
BBX 11 9 2 0
BITMAP
DF60
A4A0
2480
2480
1F00
2480
2480
4440
FFE0
ENDCHAR
STARTCHAR U+0437
ENCODING 1079
SWIDTH 1000 0
DWIDTH 16 0
BBX 8 9 3 0
BITMAP
3C
42
C1
12
1C
12
C1
41
3E
ENDCHAR
STARTCHAR U+0438
ENCODING 1080
SWIDTH 1000 0
DWIDTH 16 0
BBX 11 9 2 0
BITMAP
FBE0
2080
2180
2280
2480
2880
3080
2080
FBE0
ENDCHAR
STARTCHAR U+0439
ENCODING 1081
SWIDTH 1000 0
DWIDTH 16 0
BBX 11 12 2 0
BITMAP
1B00
0E00
0000
FBE0
2080
2180
2280
2480
2880
3080
2080
FBE0
ENDCHAR
STARTCHAR U+043A
ENCODING 1082
SWIDTH 1000 0
DWIDTH 16 0
BBX 10 9 2 0
BITMAP
F880
21C0
2200
2400
3C00
2200
2100
2080
FBC0
ENDCHAR
STARTCHAR U+043B
ENCODING 1083
SWIDTH 1000 0
DWIDTH 16 0
BBX 11 9 2 0
BITMAP
3FE0
0880
0880
0880
0880
0880
C880
9080
63E0
ENDCHAR
STARTCHAR U+043C
ENCODING 1084
SWIDTH 1000 0
DWIDTH 16 0
BBX 13 9 1 0
BITMAP
F8F8
3060
28A0
28A0
28A0
2520
2520
2220
F778
ENDCHAR
STARTCHAR U+043D
ENCODING 1085
SWIDTH 1000 0
DWIDTH 16 0
BBX 11 9 2 0
BITMAP
FBE0
2080
2080
3F80
2080
2080
2080
2080
FBE0
ENDCHAR
STARTCHAR U+043E
ENCODING 1086
SWIDTH 1000 0
DWIDTH 16 0
BBX 8 9 3 0
BITMAP
3C
62
81
81
81
81
81
42
3C
ENDCHAR
STARTCHAR U+043F
ENCODING 1087
SWIDTH 1000 0
DWIDTH 16 0
BBX 11 9 2 0
BITMAP
FFE0
2080
2080
2080
2080
2080
2080
2080
FBE0
ENDCHAR
STARTCHAR U+0440
ENCODING 1088
SWIDTH 1000 0
DWIDTH 16 0
BBX 9 11 3 -2
BITMAP
EE00
3100
2080
2080
2080
2080
3100
2E00
2000
2000
FC00
ENDCHAR
STARTCHAR U+0441
ENCODING 1089
SWIDTH 1000 0
DWIDTH 16 0
BBX 8 9 3 0
BITMAP
3D
43
81
80
80
80
81
43
3D
ENDCHAR
STARTCHAR U+0442
ENCODING 1090
SWIDTH 1000 0
DWIDTH 16 0
BBX 9 9 3 0
BITMAP
FF80
8880
8880
8880
0800
0800
0800
0800
3E00
ENDCHAR
STARTCHAR U+0443
ENCODING 1091
SWIDTH 1000 0
DWIDTH 16 0
BBX 9 11 3 -2
BITMAP
F780
4100
4100
2200
2200
1400
1400
0800
C800
9000
6000
ENDCHAR
STARTCHAR U+0444
ENCODING 1092
SWIDTH 1000 0
DWIDTH 16 0
BBX 11 15 2 -2
BITMAP
0400
1C00
0400
0400
3580
4E40
8420
8420
8420
8420
4E40
3580
0400
0400
1F00
ENDCHAR
STARTCHAR U+0445
ENCODING 1093
SWIDTH 1000 0
DWIDTH 16 0
BBX 9 9 3 0
BITMAP
F780
4100
2200
1400
0800
1400
2200
4100
F780
ENDCHAR
STARTCHAR U+0446
ENCODING 1094
SWIDTH 1000 0
DWIDTH 16 0
BBX 11 11 2 -2
BITMAP
FBE0
2080
2080
2080
2080
2080
2080
2080
FFE0
0020
0020
ENDCHAR
STARTCHAR U+0447
ENCODING 1095
SWIDTH 1000 0
DWIDTH 16 0
BBX 11 9 2 0
BITMAP
FBE0
2080
2080
2080
2180
1E80
0080
0080
07E0
ENDCHAR
STARTCHAR U+0448
ENCODING 1096
SWIDTH 1000 0
DWIDTH 16 0
BBX 13 9 1 0
BITMAP
F778
2220
2220
2220
2220
2220
2220
2220
FFF8
ENDCHAR
STARTCHAR U+0449
ENCODING 1097
SWIDTH 1000 0
DWIDTH 16 0
BBX 13 11 1 -2
BITMAP
F778
2220
2220
2220
2220
2220
2220
2220
FFF8
0008
0008
ENDCHAR
STARTCHAR U+044A
ENCODING 1098
SWIDTH 1000 0
DWIDTH 16 0
BBX 10 9 2 0
BITMAP
F800
8800
8800
8F80
0840
0840
0840
0840
3F80
ENDCHAR
STARTCHAR U+044B
ENCODING 1099
SWIDTH 1000 0
DWIDTH 16 0
BBX 12 9 2 0
BITMAP
F9F0
2040
2040
3C40
2240
2240
2240
2240
FDF0
ENDCHAR
STARTCHAR U+044C
ENCODING 1100
SWIDTH 1000 0
DWIDTH 16 0
BBX 9 9 3 0
BITMAP
FC00
2000
2000
3E00
2100
2080
2080
2100
FE00
ENDCHAR
STARTCHAR U+044D
ENCODING 1101
SWIDTH 1000 0
DWIDTH 16 0
BBX 8 9 3 0
BITMAP
7C
C2
01
33
6D
01
01
C2
7C
ENDCHAR
STARTCHAR U+044E
ENCODING 1102
SWIDTH 1000 0
DWIDTH 16 0
BBX 11 9 2 0
BITMAP
FBC0
2420
2420
3C20
2420
2420
2420
2420
FBC0
ENDCHAR
STARTCHAR U+044F
ENCODING 1103
SWIDTH 1000 0
DWIDTH 16 0
BBX 10 9 3 0
BITMAP
3FC0
4100
4100
4100
3F00
1100
1100
A100
C7C0
ENDCHAR
STARTCHAR U+0451
ENCODING 1105
SWIDTH 1000 0
DWIDTH 16 0
BBX 8 11 3 0
BITMAP
66
00
3C
42
81
81
FF
80
80
43
3E
ENDCHAR
STARTCHAR U+2000
ENCODING 8192
SWIDTH 1000 0
DWIDTH 16 0
BBX 0 0 0 0
BITMAP
ENDCHAR
STARTCHAR U+2001
ENCODING 8193
SWIDTH 1000 0
DWIDTH 16 0
BBX 0 0 0 0
BITMAP
ENDCHAR
STARTCHAR U+2002
ENCODING 8194
SWIDTH 1000 0
DWIDTH 16 0
BBX 0 0 0 0
BITMAP
ENDCHAR
STARTCHAR U+2003
ENCODING 8195
SWIDTH 1000 0
DWIDTH 16 0
BBX 0 0 0 0
BITMAP
ENDCHAR
STARTCHAR U+2004
ENCODING 8196
SWIDTH 1000 0
DWIDTH 16 0
BBX 0 0 0 0
BITMAP
ENDCHAR
STARTCHAR U+2005
ENCODING 8197
SWIDTH 1000 0
DWIDTH 16 0
BBX 0 0 0 0
BITMAP
ENDCHAR
STARTCHAR U+2006
ENCODING 8198
SWIDTH 1000 0
DWIDTH 16 0
BBX 0 0 0 0
BITMAP
ENDCHAR
STARTCHAR U+2007
ENCODING 8199
SWIDTH 1000 0
DWIDTH 16 0
BBX 0 0 0 0
BITMAP
ENDCHAR
STARTCHAR U+2008
ENCODING 8200
SWIDTH 1000 0
DWIDTH 16 0
BBX 0 0 0 0
BITMAP
ENDCHAR
STARTCHAR U+2009
ENCODING 8201
SWIDTH 1000 0
DWIDTH 16 0
BBX 0 0 0 0
BITMAP
ENDCHAR
STARTCHAR U+200A
ENCODING 8202
SWIDTH 1000 0
DWIDTH 16 0
BBX 0 0 0 0
BITMAP
ENDCHAR
STARTCHAR U+200B
ENCODING 8203
SWIDTH 500 0
DWIDTH 8 0
BBX 0 0 0 0
BITMAP
ENDCHAR
STARTCHAR U+200C
ENCODING 8204
SWIDTH 500 0
DWIDTH 8 0
BBX 0 0 0 0
BITMAP
ENDCHAR
STARTCHAR U+200D
ENCODING 8205
SWIDTH 500 0
DWIDTH 8 0
BBX 0 0 0 0
BITMAP
ENDCHAR
STARTCHAR U+200E
ENCODING 8206
SWIDTH 500 0
DWIDTH 8 0
BBX 0 0 0 0
BITMAP
ENDCHAR
STARTCHAR U+200F
ENCODING 8207
SWIDTH 500 0
DWIDTH 8 0
BBX 0 0 0 0
BITMAP
ENDCHAR
STARTCHAR U+2010
ENCODING 8208
SWIDTH 1000 0
DWIDTH 16 0
BBX 5 1 5 6
BITMAP
F8
ENDCHAR
STARTCHAR U+2013
ENCODING 8211
SWIDTH 500 0
DWIDTH 8 0
BBX 7 1 0 6
BITMAP
FE
ENDCHAR
STARTCHAR U+2014
ENCODING 8212
SWIDTH 1000 0
DWIDTH 16 0
BBX 15 1 0 6
BITMAP
FFFE
ENDCHAR
STARTCHAR U+2015
ENCODING 8213
SWIDTH 1000 0
DWIDTH 16 0
BBX 15 1 0 6
BITMAP
FFFE
ENDCHAR
STARTCHAR U+2016
ENCODING 8214
SWIDTH 1000 0
DWIDTH 16 0
BBX 5 16 5 -2
BITMAP
88
88
88
88
88
88
88
88
88
88
88
88
88
88
88
88
ENDCHAR
STARTCHAR U+2018
ENCODING 8216
SWIDTH 1000 0
DWIDTH 16 0
BBX 2 4 12 10
BITMAP
40
80
C0
C0
ENDCHAR
STARTCHAR U+2019
ENCODING 8217
SWIDTH 1000 0
DWIDTH 16 0
BBX 2 4 1 10
BITMAP
C0
C0
40
80
ENDCHAR
STARTCHAR U+201C
ENCODING 8220
SWIDTH 1000 0
DWIDTH 16 0
BBX 5 4 9 10
BITMAP
48
90
90
D8
ENDCHAR
STARTCHAR U+201D
ENCODING 8221
SWIDTH 1000 0
DWIDTH 16 0
BBX 5 4 1 10
BITMAP
D8
48
48
90
ENDCHAR
STARTCHAR U+2020
ENCODING 8224
SWIDTH 1000 0
DWIDTH 16 0
BBX 9 16 3 -2
BITMAP
0800
1C00
1C00
0800
4900
FF80
4900
0800
1C00
3E00
1C00
0800
0800
0800
0800
0800
ENDCHAR
STARTCHAR U+2021
ENCODING 8225
SWIDTH 1000 0
DWIDTH 16 0
BBX 9 16 3 -2
BITMAP
1C00
0800
4900
FF80
4900
0800
1C00
0800
0800
1C00
0800
4900
FF80
4900
0800
1C00
ENDCHAR
STARTCHAR U+2022
ENCODING 8226
SWIDTH 1000 0
DWIDTH 16 0
BBX 4 4 6 4
BITMAP
60
F0
F0
60
ENDCHAR
STARTCHAR U+2023
ENCODING 8227
SWIDTH 1000 0
DWIDTH 16 0
BBX 5 6 6 3
BITMAP
80
E0
F8
F8
E0
80
ENDCHAR
STARTCHAR U+2024
ENCODING 8228
SWIDTH 1000 0
DWIDTH 16 0
BBX 3 3 6 5
BITMAP
40
E0
40
ENDCHAR
STARTCHAR U+2025
ENCODING 8229
SWIDTH 1000 0
DWIDTH 16 0
BBX 13 3 1 5
BITMAP
4010
E038
4010
ENDCHAR
STARTCHAR U+2026
ENCODING 8230
SWIDTH 1000 0
DWIDTH 16 0
BBX 15 3 0 5
BITMAP
4104
E38E
4104
ENDCHAR
STARTCHAR U+2030
ENCODING 8240
SWIDTH 1000 0
DWIDTH 16 0
BBX 15 15 0 -1
BITMAP
6010
9020
9040
9080
9100
9200
6400
0800
130C
2492
4492
C492
0492
0492
030C
ENDCHAR
STARTCHAR U+2031
ENCODING 8241
SWIDTH 1000 0
DWIDTH 16 0
BBX 15 15 0 -1
BITMAP
6010
9020
9040
9080
9100
9200
6400
0800
1444
2AAA
4AAA
CAAA
0AAA
0AAA
0444
ENDCHAR
STARTCHAR U+2032
ENCODING 8242
SWIDTH 1000 0
DWIDTH 16 0
BBX 3 5 0 9
BITMAP
20
60
40
40
80
ENDCHAR
STARTCHAR U+2033
ENCODING 8243
SWIDTH 1000 0
DWIDTH 16 0
BBX 6 5 0 9
BITMAP
24
6C
48
48
90
ENDCHAR
STARTCHAR U+203B
ENCODING 8251
SWIDTH 1000 0
DWIDTH 16 0
BBX 13 13 1 0
BITMAP
8708
4710
2720
1040
0880
E538
E238
E538
0880
1040
2720
4710
C708
ENDCHAR
STARTCHAR U+203C
ENCODING 8252
SWIDTH 1000 0
DWIDTH 16 0
BBX 8 16 4 -2
BITMAP
42
E7
E7
42
42
42
42
42
42
42
00
00
00
42
E7
42
ENDCHAR
STARTCHAR U+203D
ENCODING 8253
SWIDTH 1000 0
DWIDTH 16 0
BBX 9 16 3 -2
BITMAP
1C00
3E00
5D00
8880
8880
C880
4900
0A00
0C00
0800
0800
0000
0000
0800
1C00
0800
ENDCHAR
STARTCHAR U+203E
ENCODING 8254
SWIDTH 500 0
DWIDTH 8 0
BBX 7 2 0 12
BITMAP
40
FE
ENDCHAR
STARTCHAR U+2047
ENCODING 8263
SWIDTH 1000 0
DWIDTH 16 0
BBX 15 16 0 -2
BITMAP
3838
4444
8282
8282
8282
C2C2
4444
0808
1010
1010
1010
0000
0000
1010
3838
1010
ENDCHAR
STARTCHAR U+2048
ENCODING 8264
SWIDTH 1000 0
DWIDTH 16 0
BBX 13 16 1 -2
BITMAP
1C10
2238
4138
8090
8090
C090
4110
0210
0410
0810
0800
0000
0000
0810
1C38
0810
ENDCHAR
STARTCHAR U+2049
ENCODING 8265
SWIDTH 1000 0
DWIDTH 16 0
BBX 13 16 1 -2
BITMAP
41C0
E220
E410
4808
4808
4C08
4410
4020
4040
4080
0080
0000
0000
4080
E1C0
4080
ENDCHAR
STARTCHAR U+2103
ENCODING 8451
SWIDTH 1000 0
DWIDTH 16 0
BBX 12 13 1 0
BITMAP
6010
93D0
9430
6810
0810
1000
1000
1000
1010
0810
0810
0430
03D0
ENDCHAR
STARTCHAR U+2116
ENCODING 8470
SWIDTH 1000 0
DWIDTH 16 0
BBX 15 13 0 -1
BITMAP
C700
4200
6200
5200
5238
5244
4A44
4A44
4A44
4644
4244
E33A
0002
ENDCHAR
STARTCHAR U+2121
ENCODING 8481
SWIDTH 1000 0
DWIDTH 16 0
BBX 15 12 0 0
BITMAP
FE00
9200
9200
1000
1000
13D8
1250
1290
1390
1290
1252
3BDE
ENDCHAR
STARTCHAR U+2122
ENCODING 8482
SWIDTH 1000 0
DWIDTH 16 0
BBX 11 5 0 9
BITMAP
FA20
AB60
22A0
2220
7360
ENDCHAR
STARTCHAR U+212B
ENCODING 8491
SWIDTH 1000 0
DWIDTH 16 0
BBX 13 14 1 0
BITMAP
0700
0880
0880
0700
0500
0500
0880
0880
1040
1FC0
1040
2020
2020
FDF8
ENDCHAR
STARTCHAR U+2160
ENCODING 8544
SWIDTH 1000 0
DWIDTH 16 0
BBX 7 13 4 0
BITMAP
FE
10
10
10
10
10
10
10
10
10
10
10
FE
ENDCHAR
STARTCHAR U+2161
ENCODING 8545
SWIDTH 1000 0
DWIDTH 16 0
BBX 10 13 3 0
BITMAP
FFC0
2100
2100
2100
2100
2100
2100
2100
2100
2100
2100
2100
FFC0
ENDCHAR
STARTCHAR U+2162
ENCODING 8546
SWIDTH 1000 0
DWIDTH 16 0
BBX 13 13 1 0
BITMAP
FFF8
2220
2220
2220
2220
2220
2220
2220
2220
2220
2220
2220
FFF8
ENDCHAR
STARTCHAR U+2163
ENCODING 8547
SWIDTH 1000 0
DWIDTH 16 0
BBX 14 13 1 0
BITMAP
FF3C
2208
2208
2208
2110
2110
2110
20A0
20A0
20A0
2040
2040
F840
ENDCHAR
STARTCHAR U+2164
ENCODING 8548
SWIDTH 1000 0
DWIDTH 16 0
BBX 11 13 2 0
BITMAP
FBE0
2080
2080
2080
1100
1100
1100
0A00
0A00
0A00
0400
0400
0400
ENDCHAR
STARTCHAR U+2165
ENCODING 8549
SWIDTH 1000 0
DWIDTH 16 0
BBX 14 13 1 0
BITMAP
FBFC
2090
2090
2090
1110
1110
1110
0A10
0A10
0A10
0410
0410
04FC
ENDCHAR
STARTCHAR U+2166
ENCODING 8550
SWIDTH 1000 0
DWIDTH 16 0
BBX 15 13 0 0
BITMAP
F7FE
2248
2248
2248
1448
1448
1448
1448
1448
0848
0848
0848
09FE
ENDCHAR
STARTCHAR U+2167
ENCODING 8551
SWIDTH 1000 0
DWIDTH 16 0
BBX 15 13 0 0
BITMAP
EFFE
4524
4524
4524
2924
2924
2924
2924
2924
1124
1124
1124
13FE
ENDCHAR
STARTCHAR U+2168
ENCODING 8552
SWIDTH 1000 0
DWIDTH 16 0
BBX 14 13 1 0
BITMAP
FF3C
2208
2110
2110
20A0
20A0
2040
20A0
20A0
2110
2110
2208
FFBC
ENDCHAR
STARTCHAR U+2169
ENCODING 8553
SWIDTH 1000 0
DWIDTH 16 0
BBX 11 13 2 0
BITMAP
FBE0
2080
1100
1100
0A00
0A00
0400
0A00
0A00
1100
1100
2080
FBE0
ENDCHAR
STARTCHAR U+216A
ENCODING 8554
SWIDTH 1000 0
DWIDTH 16 0
BBX 14 13 1 0
BITMAP
F3FC
2090
1110
1110
0A10
0A10
0410
0A10
0A10
1110
1110
2090
F3FC
ENDCHAR
STARTCHAR U+216B
ENCODING 8555
SWIDTH 1000 0
DWIDTH 16 0
BBX 15 13 0 0
BITMAP
F7FE
2248
2248
1448
1448
0848
0848
0848
1448
1448
2248
2248
F7FE
ENDCHAR
STARTCHAR U+216C
ENCODING 8556
SWIDTH 1000 0
DWIDTH 16 0
BBX 10 13 2 0
BITMAP
FE00
2000
2000
2000
2000
2000
2000
2000
2000
2040
2040
2040
FFC0
ENDCHAR
STARTCHAR U+216D
ENCODING 8557
SWIDTH 1000 0
DWIDTH 16 0
BBX 9 13 3 0
BITMAP
1E80
2180
4080
4080
8080
8000
8000
8000
8080
4080
4080
2180
1E80
ENDCHAR
STARTCHAR U+216E
ENCODING 8558
SWIDTH 1000 0
DWIDTH 16 0
BBX 11 13 2 0
BITMAP
FF00
2080
2040
2040
2020
2020
2020
2020
2020
2020
2040
2080
FF00
ENDCHAR
STARTCHAR U+216F
ENCODING 8559
SWIDTH 1000 0
DWIDTH 16 0
BBX 15 13 0 0
BITMAP
F83E
3018
2828
2828
2448
2448
2448
2288
2288
2288
2108
2108
FBBE
ENDCHAR
STARTCHAR U+2170
ENCODING 8560
SWIDTH 1000 0
DWIDTH 16 0
BBX 5 13 5 0
BITMAP
20
70
20
00
00
20
E0
20
20
20
20
20
F8
ENDCHAR
STARTCHAR U+2171
ENCODING 8561
SWIDTH 1000 0
DWIDTH 16 0
BBX 11 13 2 0
BITMAP
2080
71C0
2080
0000
0000
2080
E380
2080
2080
2080
2080
2080
FBE0
ENDCHAR
STARTCHAR U+2172
ENCODING 8562
SWIDTH 1000 0
DWIDTH 16 0
BBX 15 13 0 0
BITMAP
2108
739C
2108
0000
0000
2108
E738
2108
2108
2108
2108
2108
F7BE
ENDCHAR
STARTCHAR U+2173
ENCODING 8563
SWIDTH 1000 0
DWIDTH 16 0
BBX 13 13 1 0
BITMAP
2000
7000
2000
0000
0000
2F78
E410
2220
2220
2140
2140
2080
FBE0
ENDCHAR
STARTCHAR U+2174
ENCODING 8564
SWIDTH 1000 0
DWIDTH 16 0
BBX 9 8 3 0
BITMAP
F780
4100
2200
2200
1400
1400
0800
3E00
ENDCHAR
STARTCHAR U+2175
ENCODING 8565
SWIDTH 1000 0
DWIDTH 16 0
BBX 14 13 1 0
BITMAP
0010
0038
0010
0000
0000
F790
4170
2210
2210
1410
1410
0810
3E7C
ENDCHAR
STARTCHAR U+2176
ENCODING 8566
SWIDTH 1000 0
DWIDTH 16 0
BBX 14 13 0 0
BITMAP
0088
01DC
0088
0000
0000
EE88
4598
4488
2888
2888
2888
1088
39DC
ENDCHAR
STARTCHAR U+2177
ENCODING 8567
SWIDTH 1000 0
DWIDTH 16 0
BBX 15 13 0 0
BITMAP
0124
03B6
0124
0000
0000
ED24
476C
4524
2924
2924
2924
1124
3BFE
ENDCHAR
STARTCHAR U+2178
ENCODING 8568
SWIDTH 1000 0
DWIDTH 16 0
BBX 14 13 1 0
BITMAP
2000
7000
2000
0000
0000
27BC
E110
20A0
2040
20A0
2110
2208
F7BC
ENDCHAR
STARTCHAR U+2179
ENCODING 8569
SWIDTH 1000 0
DWIDTH 16 0
BBX 9 8 3 0
BITMAP
F780
2200
1400
0800
1400
2200
4100
F780
ENDCHAR
STARTCHAR U+217A
ENCODING 8570
SWIDTH 1000 0
DWIDTH 16 0
BBX 15 13 0 0
BITMAP
0008
001C
0008
0000
0000
F788
2238
1408
0808
1408
2208
4108
F7BE
ENDCHAR
STARTCHAR U+217B
ENCODING 8571
SWIDTH 1000 0
DWIDTH 16 0
BBX 15 13 0 0
BITMAP
0044
00EE
0044
0000
0000
EE44
44CC
2844
1044
2844
4444
8244
EEEE
ENDCHAR
STARTCHAR U+217C
ENCODING 8572
SWIDTH 1000 0
DWIDTH 16 0
BBX 5 13 5 0
BITMAP
20
20
E0
20
20
20
20
20
20
20
20
20
F8
ENDCHAR
STARTCHAR U+217D
ENCODING 8573
SWIDTH 1000 0
DWIDTH 16 0
BBX 7 8 4 0
BITMAP
3A
46
82
80
80
82
46
3A
ENDCHAR
STARTCHAR U+217E
ENCODING 8574
SWIDTH 1000 0
DWIDTH 16 0
BBX 8 13 3 0
BITMAP
02
02
0E
02
02
3A
46
82
82
82
82
46
3B
ENDCHAR
STARTCHAR U+217F
ENCODING 8575
SWIDTH 1000 0
DWIDTH 16 0
BBX 13 8 1 0
BITMAP
5CE0
E310
4210
4210
4210
4210
4210
F7B8
ENDCHAR
STARTCHAR U+2190
ENCODING 8592
SWIDTH 1000 0
DWIDTH 16 0
BBX 15 7 0 3
BITMAP
1000
2000
4000
FFFE
4000
2000
1000
ENDCHAR
STARTCHAR U+2191
ENCODING 8593
SWIDTH 1000 0
DWIDTH 16 0
BBX 7 16 4 -2
BITMAP
10
38
54
92
10
10
10
10
10
10
10
10
10
10
10
10
ENDCHAR
STARTCHAR U+2192
ENCODING 8594
SWIDTH 1000 0
DWIDTH 16 0
BBX 15 7 0 3
BITMAP
0010
0008
0004
FFFE
0004
0008
0010
ENDCHAR
STARTCHAR U+2193
ENCODING 8595
SWIDTH 1000 0
DWIDTH 16 0
BBX 7 16 4 -2
BITMAP
10
10
10
10
10
10
10
10
10
10
10
10
92
54
38
10
ENDCHAR
STARTCHAR U+21D2
ENCODING 8658
SWIDTH 1000 0
DWIDTH 16 0
BBX 13 9 1 2
BITMAP
0080
0040
FFE0
0010
0008
0010
FFE0
0040
0080
ENDCHAR
STARTCHAR U+21D4
ENCODING 8660
SWIDTH 1000 0
DWIDTH 16 0
BBX 14 9 0 2
BITMAP
0840
1020
3FF0
4008
8004
4008
3FF0
1020
0840
ENDCHAR
STARTCHAR U+2200
ENCODING 8704
SWIDTH 1000 0
DWIDTH 16 0
BBX 11 14 2 -1
BITMAP
8020
8020
4040
4040
7FC0
2080
2080
1100
1100
1100
0A00
0A00
0400
0400
ENDCHAR
STARTCHAR U+2202
ENCODING 8706
SWIDTH 1000 0
DWIDTH 16 0
BBX 9 14 2 -1
BITMAP
0E00
1900
0080
0080
0080
0080
1C80
2280
4100
4100
8200
8200
4400
3800
ENDCHAR
STARTCHAR U+2203
ENCODING 8707
SWIDTH 1000 0
DWIDTH 16 0
BBX 11 11 2 1
BITMAP
FFE0
0020
0020
0020
0020
FFE0
0020
0020
0020
0020
FFE0
ENDCHAR
STARTCHAR U+2207
ENCODING 8711
SWIDTH 1000 0
DWIDTH 16 0
BBX 11 10 2 1
BITMAP
FFE0
7FC0
6040
2080
3080
1100
1900
0A00
0E00
0400
ENDCHAR
STARTCHAR U+2208
ENCODING 8712
SWIDTH 1000 0
DWIDTH 16 0
BBX 11 9 2 2
BITMAP
3FE0
4000
8000
8000
FFE0
8000
8000
4000
3FE0
ENDCHAR
STARTCHAR U+220B
ENCODING 8715
SWIDTH 1000 0
DWIDTH 16 0
BBX 11 9 2 2
BITMAP
FF80
0040
0020
0020
FFE0
0020
0020
0040
FF80
ENDCHAR
STARTCHAR U+220F
ENCODING 8719
SWIDTH 1000 0
DWIDTH 16 0
BBX 10 12 3 0
BITMAP
FFC0
4080
4080
4080
4080
4080
4080
4080
4080
4080
4080
F3C0
ENDCHAR
STARTCHAR U+2211
ENCODING 8721
SWIDTH 1000 0
DWIDTH 16 0
BBX 11 12 2 0
BITMAP
FFC0
6040
3020
1800
0C00
0600
0C00
1800
3000
6020
C040
FFC0
ENDCHAR
STARTCHAR U+2212
ENCODING 8722
SWIDTH 1000 0
DWIDTH 16 0
BBX 11 1 2 6
BITMAP
FFE0
ENDCHAR
STARTCHAR U+221A
ENCODING 8730
SWIDTH 1000 0
DWIDTH 16 0
BBX 13 15 0 -1
BITMAP
00F8
0080
0080
0100
0100
0100
0100
4200
4200
6200
A400
1400
1400
0800
0800
ENDCHAR
STARTCHAR U+221D
ENCODING 8733
SWIDTH 1000 0
DWIDTH 16 0
BBX 12 7 1 3
BITMAP
3060
4890
8500
8200
8500
48B0
3060
ENDCHAR
STARTCHAR U+221E
ENCODING 8734
SWIDTH 1000 0
DWIDTH 16 0
BBX 13 7 1 3
BITMAP
3060
4890
8508
8208
8508
4890
3060
ENDCHAR
STARTCHAR U+221F
ENCODING 8735
SWIDTH 1000 0
DWIDTH 16 0
BBX 12 12 2 1
BITMAP
8000
8000
8000
8000
8000
8000
8000
8000
8000
8000
8000
FFF0
ENDCHAR
STARTCHAR U+2220
ENCODING 8736
SWIDTH 1000 0
DWIDTH 16 0
BBX 12 11 2 1
BITMAP
0020
0040
0080
0100
0200
0400
0800
1000
2000
4000
FFF0
ENDCHAR
STARTCHAR U+2225
ENCODING 8741
SWIDTH 1000 0
DWIDTH 16 0
BBX 4 12 6 1
BITMAP
90
90
90
90
90
90
90
90
90
90
90
90
ENDCHAR
STARTCHAR U+2227
ENCODING 8743
SWIDTH 1000 0
DWIDTH 16 0
BBX 13 14 1 -2
BITMAP
0200
0200
0500
0500
0880
0880
1040
1040
2020
2020
4010
4010
8008
8008
ENDCHAR
STARTCHAR U+2228
ENCODING 8744
SWIDTH 1000 0
DWIDTH 16 0
BBX 13 14 1 0
BITMAP
8008
8008
4010
4010
2020
2020
1040
1040
0880
0880
0500
0500
0200
0200
ENDCHAR
STARTCHAR U+2229
ENCODING 8745
SWIDTH 1000 0
DWIDTH 16 0
BBX 9 14 3 -1
BITMAP
1C00
2200
4100
8080
8080
8080
8080
8080
8080
8080
8080
8080
8080
8080
ENDCHAR
STARTCHAR U+222A
ENCODING 8746
SWIDTH 1000 0
DWIDTH 16 0
BBX 9 14 3 -1
BITMAP
8080
8080
8080
8080
8080
8080
8080
8080
8080
8080
8080
4100
2200
1C00
ENDCHAR
STARTCHAR U+222B
ENCODING 8747
SWIDTH 1000 0
DWIDTH 16 0
BBX 4 16 6 -2
BITMAP
60
90
B0
80
80
40
40
40
20
20
20
10
10
D0
90
60
ENDCHAR
STARTCHAR U+222C
ENCODING 8748
SWIDTH 1000 0
DWIDTH 16 0
BBX 9 16 3 -2
BITMAP
6300
9480
8400
8400
8400
4200
4200
4200
2100
2100
2100
1080
1080
1080
D680
6300
ENDCHAR
STARTCHAR U+222E
ENCODING 8750
SWIDTH 1000 0
DWIDTH 16 0
BBX 6 16 5 -2
BITMAP
30
48
58
40
40
78
A4
A4
94
78
10
08
08
68
48
30
ENDCHAR
STARTCHAR U+2234
ENCODING 8756
SWIDTH 1000 0
DWIDTH 16 0
BBX 11 10 2 1
BITMAP
0400
0E00
0400
0000
0000
0000
0000
4040
E0E0
4040
ENDCHAR
STARTCHAR U+2235
ENCODING 8757
SWIDTH 1000 0
DWIDTH 16 0
BBX 11 10 2 1
BITMAP
4040
E0E0
4040
0000
0000
0000
0000
0400
0E00
0400
ENDCHAR
STARTCHAR U+2236
ENCODING 8758
SWIDTH 1000 0
DWIDTH 16 0
BBX 3 11 6 1
BITMAP
40
E0
40
00
00
00
00
00
40
E0
40
ENDCHAR
STARTCHAR U+2237
ENCODING 8759
SWIDTH 1000 0
DWIDTH 16 0
BBX 10 10 3 1
BITMAP
4080
E1C0
4080
0000
0000
0000
0000
4080
E1C0
4080
ENDCHAR
STARTCHAR U+223D
ENCODING 8765
SWIDTH 1000 0
DWIDTH 16 0
BBX 13 7 1 3
BITMAP
3060
5890
8108
8208
8408
4890
3060
ENDCHAR
STARTCHAR U+2248
ENCODING 8776
SWIDTH 1000 0
DWIDTH 16 0
BBX 11 8 2 3
BITMAP
3820
4440
8380
0000
0000
3820
4440
8380
ENDCHAR
STARTCHAR U+224C
ENCODING 8780
SWIDTH 1000 0
DWIDTH 16 0
BBX 11 8 2 3
BITMAP
8380
4440
3820
0000
FFE0
0000
0000
FFE0
ENDCHAR
STARTCHAR U+2252
ENCODING 8786
SWIDTH 1000 0
DWIDTH 16 0
BBX 11 14 2 -1
BITMAP
2000
7000
2000
0000
0000
FFE0
0000
0000
FFE0
0000
0000
0080
01C0
0080
ENDCHAR
STARTCHAR U+2260
ENCODING 8800
SWIDTH 1000 0
DWIDTH 16 0
BBX 11 12 2 0
BITMAP
0080
0100
0100
0200
FFE0
0400
0400
FFE0
0800
1000
1000
2000
ENDCHAR
STARTCHAR U+2261
ENCODING 8801
SWIDTH 1000 0
DWIDTH 16 0
BBX 11 7 2 3
BITMAP
FFE0
0000
0000
FFE0
0000
0000
FFE0
ENDCHAR
STARTCHAR U+2264
ENCODING 8804
SWIDTH 1000 0
DWIDTH 16 0
BBX 12 13 1 0
BITMAP
0030
00C0
0300
0C00
3000
C000
3000
0C00
0300
00C0
0030
0000
FFF0
ENDCHAR
STARTCHAR U+2265
ENCODING 8805
SWIDTH 1000 0
DWIDTH 16 0
BBX 12 13 2 0
BITMAP
C000
3000
0C00
0300
00C0
0030
00C0
0300
0C00
3000
C000
0000
FFF0
ENDCHAR
STARTCHAR U+2266
ENCODING 8806
SWIDTH 1000 0
DWIDTH 16 0
BBX 11 13 2 0
BITMAP
0060
0380
0C00
3000
C000
3000
0C00
0380
0060
0000
FFE0
0000
FFE0
ENDCHAR
STARTCHAR U+2267
ENCODING 8807
SWIDTH 1000 0
DWIDTH 16 0
BBX 11 13 2 0
BITMAP
C000
3800
0600
0180
0060
0180
0600
3800
C000
0000
FFE0
0000
FFE0
ENDCHAR
STARTCHAR U+226A
ENCODING 8810
SWIDTH 1000 0
DWIDTH 16 0
BBX 12 13 2 0
BITMAP
00C0
0100
0630
0840
3180
4200
8400
4200
3180
0840
0630
0100
00C0
ENDCHAR
STARTCHAR U+226B
ENCODING 8811
SWIDTH 1000 0
DWIDTH 16 0
BBX 12 13 1 0
BITMAP
3000
0800
C600
2100
18C0
0420
0210
0420
18C0
2100
C600
0800
3000
ENDCHAR
STARTCHAR U+226E
ENCODING 8814
SWIDTH 1000 0
DWIDTH 16 0
BBX 12 13 1 0
BITMAP
0040
00B0
00C0
0300
0D00
3200
C200
3400
0C00
0B00
10C0
1030
2000
ENDCHAR
STARTCHAR U+226F
ENCODING 8815
SWIDTH 1000 0
DWIDTH 16 0
BBX 12 13 2 0
BITMAP
2000
D000
3000
0C00
0B00
04C0
0430
02C0
0300
0D00
3080
C080
0040
ENDCHAR
STARTCHAR U+2282
ENCODING 8834
SWIDTH 1000 0
DWIDTH 16 0
BBX 11 9 2 2
BITMAP
3FE0
4000
8000
8000
8000
8000
8000
4000
3FE0
ENDCHAR
STARTCHAR U+2283
ENCODING 8835
SWIDTH 1000 0
DWIDTH 16 0
BBX 11 9 2 2
BITMAP
FF80
0040
0020
0020
0020
0020
0020
0040
FF80
ENDCHAR
STARTCHAR U+2286
ENCODING 8838
SWIDTH 1000 0
DWIDTH 16 0
BBX 11 11 2 1
BITMAP
3FE0
4000
8000
8000
8000
8000
4000
3FE0
0000
0000
FFE0
ENDCHAR
STARTCHAR U+2287
ENCODING 8839
SWIDTH 1000 0
DWIDTH 16 0
BBX 11 11 2 1
BITMAP
FF80
0040
0020
0020
0020
0020
0040
FF80
0000
0000
FFE0
ENDCHAR
STARTCHAR U+2299
ENCODING 8857
SWIDTH 1000 0
DWIDTH 16 0
BBX 8 8 4 2
BITMAP
18
66
42
99
99
42
66
18
ENDCHAR
STARTCHAR U+22A5
ENCODING 8869
SWIDTH 1000 0
DWIDTH 16 0
BBX 13 12 1 1
BITMAP
0200
0200
0200
0200
0200
0200
0200
0200
0200
0200
0200
FFF8
ENDCHAR
STARTCHAR U+22BF
ENCODING 8895
SWIDTH 1000 0
DWIDTH 16 0
BBX 11 11 2 1
BITMAP
0020
0060
00A0
0120
0220
0420
0820
1020
2020
4020
FFE0
ENDCHAR
STARTCHAR U+2312
ENCODING 8978
SWIDTH 1000 0
DWIDTH 16 0
BBX 13 4 1 8
BITMAP
0F80
3060
4010
8008
ENDCHAR
STARTCHAR U+2460
ENCODING 9312
SWIDTH 1000 0
DWIDTH 16 0
BBX 15 16 0 -2
BITMAP
07C0
1830
2108
4104
4704
8102
8102
8102
8102
8102
8102
4104
47C4
2008
1830
07C0
ENDCHAR
STARTCHAR U+2461
ENCODING 9313
SWIDTH 1000 0
DWIDTH 16 0
BBX 15 16 0 -2
BITMAP
07C0
1830
2008
4784
4844
8842
8042
8082
8102
8202
8442
4844
4FC4
2008
1830
07C0
ENDCHAR
STARTCHAR U+2462
ENCODING 9314
SWIDTH 1000 0
DWIDTH 16 0
BBX 15 16 0 -2
BITMAP
07C0
1830
2008
4784
4844
8842
8042
8382
8042
8042
8842
4844
4784
2008
1830
07C0
ENDCHAR
STARTCHAR U+2463
ENCODING 9315
SWIDTH 1000 0
DWIDTH 16 0
BBX 15 16 0 -2
BITMAP
07C0
1830
2008
4084
4184
8282
8282
8482
8882
9FE2
8082
4084
43C4
2008
1830
07C0
ENDCHAR
STARTCHAR U+2464
ENCODING 9316
SWIDTH 1000 0
DWIDTH 16 0
BBX 15 16 0 -2
BITMAP
07C0
1830
2008
4FC4
4804
8802
8802
8F82
8842
8042
8842
4844
4784
2008
1830
07C0
ENDCHAR
STARTCHAR U+2465
ENCODING 9317
SWIDTH 1000 0
DWIDTH 16 0
BBX 15 16 0 -2
BITMAP
07C0
1830
2008
4784
4844
8842
8802
8F82
8842
8842
8842
4844
4784
2008
1830
07C0
ENDCHAR
STARTCHAR U+2466
ENCODING 9318
SWIDTH 1000 0
DWIDTH 16 0
BBX 15 16 0 -2
BITMAP
07C0
1830
2008
4FC4
4844
8842
8082
8082
8102
8102
8202
4204
4204
2008
1830
07C0
ENDCHAR
STARTCHAR U+2467
ENCODING 9319
SWIDTH 1000 0
DWIDTH 16 0
BBX 15 16 0 -2
BITMAP
07C0
1830
2008
4784
4844
8842
8842
8782
8842
8842
8842
4844
4784
2008
1830
07C0
ENDCHAR
STARTCHAR U+2468
ENCODING 9320
SWIDTH 1000 0
DWIDTH 16 0
BBX 15 16 0 -2
BITMAP
07C0
1830
2008
4784
4844
8842
8842
8842
87C2
8042
8842
4844
4784
2008
1830
07C0
ENDCHAR
STARTCHAR U+2469
ENCODING 9321
SWIDTH 1000 0
DWIDTH 16 0
BBX 15 16 0 -2
BITMAP
07C0
1830
2008
48E4
5914
8912
8912
8912
8912
8912
8912
4914
5CE4
2008
1830
07C0
ENDCHAR
STARTCHAR U+246A
ENCODING 9322
SWIDTH 1000 0
DWIDTH 16 0
BBX 15 16 0 -2
BITMAP
07C0
1830
2008
4444
4CC4
8442
8442
8442
8442
8442
8442
4444
4EE4
2008
1830
07C0
ENDCHAR
STARTCHAR U+246B
ENCODING 9323
SWIDTH 1000 0
DWIDTH 16 0
BBX 15 16 0 -2
BITMAP
07C0
1830
2008
48E4
5914
8912
8812
8822
8842
8882
8902
4914
5DF4
2008
1830
07C0
ENDCHAR
STARTCHAR U+246C
ENCODING 9324
SWIDTH 1000 0
DWIDTH 16 0
BBX 15 16 0 -2
BITMAP
07C0
1830
2008
48E4
5914
8912
8812
8862
8812
8812
8912
4914
5CE4
2008
1830
07C0
ENDCHAR
STARTCHAR U+246D
ENCODING 9325
SWIDTH 1000 0
DWIDTH 16 0
BBX 15 16 0 -2
BITMAP
07C0
1830
2008
4824
5864
88A2
88A2
8922
8A22
8BF2
8822
4824
5CF4
2008
1830
07C0
ENDCHAR
STARTCHAR U+246E
ENCODING 9326
SWIDTH 1000 0
DWIDTH 16 0
BBX 15 16 0 -2
BITMAP
07C0
1830
2008
49E4
5904
8902
8902
89E2
8912
8812
8912
4914
5CE4
2008
1830
07C0
ENDCHAR
STARTCHAR U+246F
ENCODING 9327
SWIDTH 1000 0
DWIDTH 16 0
BBX 15 16 0 -2
BITMAP
07C0
1830
2008
48E4
5914
8912
8902
89E2
8912
8912
8912
4914
5CE4
2008
1830
07C0
ENDCHAR
STARTCHAR U+2470
ENCODING 9328
SWIDTH 1000 0
DWIDTH 16 0
BBX 15 16 0 -2
BITMAP
07C0
1830
2008
49F4
5914
8912
8822
8822
8842
8842
8882
4884
5C84
2008
1830
07C0
ENDCHAR
STARTCHAR U+2471
ENCODING 9329
SWIDTH 1000 0
DWIDTH 16 0
BBX 15 16 0 -2
BITMAP
07C0
1830
2008
48E4
5914
8912
8912
88E2
8912
8912
8912
4914
5CE4
2008
1830
07C0
ENDCHAR
STARTCHAR U+2472
ENCODING 9330
SWIDTH 1000 0
DWIDTH 16 0
BBX 15 16 0 -2
BITMAP
07C0
1830
2008
48E4
5914
8912
8912
8912
88F2
8812
8912
4914
5CE4
2008
1830
07C0
ENDCHAR
STARTCHAR U+2473
ENCODING 9331
SWIDTH 1000 0
DWIDTH 16 0
BBX 15 16 0 -2
BITMAP
07C0
1830
2008
4C64
5294
9292
8292
8292
8492
8892
9092
5294
5E64
2008
1830
07C0
ENDCHAR
STARTCHAR U+2474
ENCODING 9332
SWIDTH 1000 0
DWIDTH 16 0
BBX 15 15 0 -1
BITMAP
1010
2108
4304
4D04
8102
8102
8102
8102
8102
8102
8102
4104
4104
2388
3018
ENDCHAR
STARTCHAR U+2475
ENCODING 9333
SWIDTH 1000 0
DWIDTH 16 0
BBX 15 15 0 -1
BITMAP
1010
2388
4C44
4824
8022
8022
8042
8082
8102
8202
8402
4424
4824
2FE8
3018
ENDCHAR
STARTCHAR U+2476
ENCODING 9334
SWIDTH 1000 0
DWIDTH 16 0
BBX 15 15 0 -1
BITMAP
1010
2388
4C44
4824
8022
8022
8442
8782
8042
8022
8022
4824
4C44
2388
3018
ENDCHAR
STARTCHAR U+2477
ENCODING 9335
SWIDTH 1000 0
DWIDTH 16 0
BBX 15 15 0 -1
BITMAP
1010
2088
4084
4184
8282
8282
8482
8482
8882
88A2
8FE2
4084
4084
2188
3018
ENDCHAR
STARTCHAR U+2478
ENCODING 9336
SWIDTH 1000 0
DWIDTH 16 0
BBX 15 15 0 -1
BITMAP
1010
2FC8
4844
4804
8802
8B82
8C42
8822
8022
8022
8022
4824
4C44
2388
3018
ENDCHAR
STARTCHAR U+2479
ENCODING 9337
SWIDTH 1000 0
DWIDTH 16 0
BBX 15 15 0 -1
BITMAP
1010
2388
4464
4824
8802
8B82
8C42
8822
8822
8822
8822
4824
4444
2388
3018
ENDCHAR
STARTCHAR U+247A
ENCODING 9338
SWIDTH 1000 0
DWIDTH 16 0
BBX 15 15 0 -1
BITMAP
1010
2FE8
4824
4024
8042
8042
8082
8082
8082
8102
8102
4104
4104
2308
3018
ENDCHAR
STARTCHAR U+247B
ENCODING 9339
SWIDTH 1000 0
DWIDTH 16 0
BBX 15 15 0 -1
BITMAP
1010
2388
4444
4824
8822
8822
8442
8382
8442
8822
8822
4824
4444
2388
3018
ENDCHAR
STARTCHAR U+247C
ENCODING 9340
SWIDTH 1000 0
DWIDTH 16 0
BBX 15 15 0 -1
BITMAP
1010
2388
4444
4824
8822
8822
8822
8822
8462
83A2
8022
4824
4C44
2388
3018
ENDCHAR
STARTCHAR U+247D
ENCODING 9341
SWIDTH 1000 0
DWIDTH 16 0
BBX 15 15 0 -1
BITMAP
1010
2008
4464
4CA4
9492
8492
8492
8492
8492
8492
8492
4454
4E64
2008
3018
ENDCHAR
STARTCHAR U+247E
ENCODING 9342
SWIDTH 1000 0
DWIDTH 16 0
BBX 15 15 0 -1
BITMAP
1010
2008
4444
4CC4
9542
8442
8442
8442
8442
8442
8442
4444
4EE4
2008
3018
ENDCHAR
STARTCHAR U+247F
ENCODING 9343
SWIDTH 1000 0
DWIDTH 16 0
BBX 15 15 0 -1
BITMAP
1010
2008
4464
4C94
9492
8412
8412
8422
8442
8442
8482
4494
4EF4
2008
3018
ENDCHAR
STARTCHAR U+2480
ENCODING 9344
SWIDTH 1000 0
DWIDTH 16 0
BBX 15 15 0 -1
BITMAP
1010
2008
4464
4C94
9492
8412
8412
8462
8412
8412
8492
4494
4E64
2008
3018
ENDCHAR
STARTCHAR U+2481
ENCODING 9345
SWIDTH 1000 0
DWIDTH 16 0
BBX 15 15 0 -1
BITMAP
1010
2008
4424
4C24
9462
8462
84A2
84A2
84A2
84F2
8422
4424
4E64
2008
3018
ENDCHAR
STARTCHAR U+2482
ENCODING 9346
SWIDTH 1000 0
DWIDTH 16 0
BBX 15 15 0 -1
BITMAP
1010
2008
44F4
4C94
9482
8482
84E2
8492
8412
8412
8492
4494
4E64
2008
3018
ENDCHAR
STARTCHAR U+2483
ENCODING 9347
SWIDTH 1000 0
DWIDTH 16 0
BBX 15 15 0 -1
BITMAP
1010
2008
4464
4C94
9492
8482
84E2
8492
8492
8492
8492
4494
4E64
2008
3018
ENDCHAR
STARTCHAR U+2484
ENCODING 9348
SWIDTH 1000 0
DWIDTH 16 0
BBX 15 15 0 -1
BITMAP
1010
2008
44F4
4C94
9412
8412
8422
8422
8422
8442
8442
4444
4EC4
2008
3018
ENDCHAR
STARTCHAR U+2485
ENCODING 9349
SWIDTH 1000 0
DWIDTH 16 0
BBX 15 15 0 -1
BITMAP
1010
2008
4464
4C94
9492
8492
8452
8462
84A2
8492
8492
4494
4E64
2008
3018
ENDCHAR
STARTCHAR U+2486
ENCODING 9350
SWIDTH 1000 0
DWIDTH 16 0
BBX 15 15 0 -1
BITMAP
1010
2008
4464
4C94
9492
8492
8492
8472
8412
8412
8492
4494
4E64
2008
3018
ENDCHAR
STARTCHAR U+2487
ENCODING 9351
SWIDTH 1000 0
DWIDTH 16 0
BBX 15 15 0 -1
BITMAP
1010
2008
4C64
52A4
9292
8292
8292
8492
8892
8892
9092
5254
5E64
2008
3018
ENDCHAR
STARTCHAR U+2488
ENCODING 9352
SWIDTH 1000 0
DWIDTH 16 0
BBX 8 13 4 0
BITMAP
10
30
D0
10
10
10
10
10
10
10
10
10
39
ENDCHAR
STARTCHAR U+2489
ENCODING 9353
SWIDTH 1000 0
DWIDTH 16 0
BBX 8 13 4 0
BITMAP
30
C8
84
04
04
08
10
10
20
40
44
84
FD
ENDCHAR
STARTCHAR U+248A
ENCODING 9354
SWIDTH 1000 0
DWIDTH 16 0
BBX 8 13 4 0
BITMAP
30
C8
84
04
04
48
70
08
04
04
84
C8
31
ENDCHAR
STARTCHAR U+248B
ENCODING 9355
SWIDTH 1000 0
DWIDTH 16 0
BBX 8 13 4 0
BITMAP
08
08
18
28
28
48
48
88
88
FC
08
08
19
ENDCHAR
STARTCHAR U+248C
ENCODING 9356
SWIDTH 1000 0
DWIDTH 16 0
BBX 8 13 4 0
BITMAP
F8
88
80
80
B0
C8
84
04
04
04
84
C8
31
ENDCHAR
STARTCHAR U+248D
ENCODING 9357
SWIDTH 1000 0
DWIDTH 16 0
BBX 8 13 4 0
BITMAP
30
4C
84
80
B0
C8
84
84
84
84
84
48
31
ENDCHAR
STARTCHAR U+248E
ENCODING 9358
SWIDTH 1000 0
DWIDTH 16 0
BBX 8 13 4 0
BITMAP
FC
84
04
08
08
10
10
10
20
20
20
20
61
ENDCHAR
STARTCHAR U+248F
ENCODING 9359
SWIDTH 1000 0
DWIDTH 16 0
BBX 8 13 4 0
BITMAP
30
48
84
84
84
48
30
48
84
84
84
48
31
ENDCHAR
STARTCHAR U+2490
ENCODING 9360
SWIDTH 1000 0
DWIDTH 16 0
BBX 8 13 4 0
BITMAP
30
48
84
84
84
84
84
4C
34
04
84
C8
31
ENDCHAR
STARTCHAR U+2491
ENCODING 9361
SWIDTH 1000 0
DWIDTH 16 0
BBX 14 13 1 0
BITMAP
10C0
3120
D210
1210
1210
1210
1210
1210
1210
1210
1210
1120
38C4
ENDCHAR
STARTCHAR U+2492
ENCODING 9362
SWIDTH 1000 0
DWIDTH 16 0
BBX 14 13 1 0
BITMAP
1040
30C0
D340
1040
1040
1040
1040
1040
1040
1040
1040
1040
38E4
ENDCHAR
STARTCHAR U+2493
ENCODING 9363
SWIDTH 1000 0
DWIDTH 16 0
BBX 14 13 1 0
BITMAP
10C0
3320
D210
1010
1010
1020
1040
1040
1080
1100
1110
1210
3BF4
ENDCHAR
STARTCHAR U+2494
ENCODING 9364
SWIDTH 1000 0
DWIDTH 16 0
BBX 14 13 1 0
BITMAP
10C0
3320
D210
1010
1010
1120
11C0
1020
1010
1010
1210
1320
38C4
ENDCHAR
STARTCHAR U+2495
ENCODING 9365
SWIDTH 1000 0
DWIDTH 16 0
BBX 14 13 1 0
BITMAP
1020
3020
D060
10A0
10A0
1120
1120
1220
1220
13F0
1020
1020
3864
ENDCHAR
STARTCHAR U+2496
ENCODING 9366
SWIDTH 1000 0
DWIDTH 16 0
BBX 14 13 1 0
BITMAP
13E0
3220
D200
1200
12C0
1320
1210
1010
1010
1010
1210
1320
38C4
ENDCHAR
STARTCHAR U+2497
ENCODING 9367
SWIDTH 1000 0
DWIDTH 16 0
BBX 14 13 1 0
BITMAP
10C0
3130
D210
1200
12C0
1320
1210
1210
1210
1210
1210
1120
38C4
ENDCHAR
STARTCHAR U+2498
ENCODING 9368
SWIDTH 1000 0
DWIDTH 16 0
BBX 14 13 1 0
BITMAP
13F0
3210
D010
1020
1020
1040
1040
1040
1080
1080
1080
1080
3984
ENDCHAR
STARTCHAR U+2499
ENCODING 9369
SWIDTH 1000 0
DWIDTH 16 0
BBX 14 13 1 0
BITMAP
10C0
3120
D210
1210
1210
1120
10C0
1120
1210
1210
1210
1120
38C4
ENDCHAR
STARTCHAR U+249A
ENCODING 9370
SWIDTH 1000 0
DWIDTH 16 0
BBX 14 13 1 0
BITMAP
10C0
3120
D210
1210
1210
1210
1210
1130
10D0
1010
1210
1320
38C4
ENDCHAR
STARTCHAR U+249B
ENCODING 9371
SWIDTH 1000 0
DWIDTH 16 0
BBX 14 13 1 0
BITMAP
3060
C890
8508
0508
0508
0908
1108
1108
2108
4108
4508
8490
FC64
ENDCHAR
STARTCHAR U+2500
ENCODING 9472
SWIDTH 1000 0
DWIDTH 16 0
BBX 16 1 0 6
BITMAP
FFFF
ENDCHAR
STARTCHAR U+2501
ENCODING 9473
SWIDTH 1000 0
DWIDTH 16 0
BBX 16 2 0 5
BITMAP
FFFF
FFFF
ENDCHAR
STARTCHAR U+2502
ENCODING 9474
SWIDTH 1000 0
DWIDTH 16 0
BBX 1 16 7 -2
BITMAP
80
80
80
80
80
80
80
80
80
80
80
80
80
80
80
80
ENDCHAR
STARTCHAR U+2503
ENCODING 9475
SWIDTH 1000 0
DWIDTH 16 0
BBX 2 16 7 -2
BITMAP
C0
C0
C0
C0
C0
C0
C0
C0
C0
C0
C0
C0
C0
C0
C0
C0
ENDCHAR
STARTCHAR U+2504
ENCODING 9476
SWIDTH 1000 0
DWIDTH 16 0
BBX 13 1 1 6
BITMAP
E738
ENDCHAR
STARTCHAR U+2505
ENCODING 9477
SWIDTH 1000 0
DWIDTH 16 0
BBX 13 2 1 5
BITMAP
E738
E738
ENDCHAR
STARTCHAR U+2506
ENCODING 9478
SWIDTH 1000 0
DWIDTH 16 0
BBX 1 13 7 0
BITMAP
80
80
80
00
00
80
80
80
00
00
80
80
80
ENDCHAR
STARTCHAR U+2507
ENCODING 9479
SWIDTH 1000 0
DWIDTH 16 0
BBX 2 13 7 0
BITMAP
C0
C0
C0
00
00
C0
C0
C0
00
00
C0
C0
C0
ENDCHAR
STARTCHAR U+2508
ENCODING 9480
SWIDTH 1000 0
DWIDTH 16 0
BBX 15 1 0 6
BITMAP
EEEE
ENDCHAR
STARTCHAR U+2509
ENCODING 9481
SWIDTH 1000 0
DWIDTH 16 0
BBX 15 2 0 5
BITMAP
EEEE
EEEE
ENDCHAR
STARTCHAR U+250A
ENCODING 9482
SWIDTH 1000 0
DWIDTH 16 0
BBX 1 15 7 -1
BITMAP
80
80
80
00
80
80
80
00
80
80
80
00
80
80
80
ENDCHAR
STARTCHAR U+250B
ENCODING 9483
SWIDTH 1000 0
DWIDTH 16 0
BBX 2 15 7 -1
BITMAP
C0
C0
C0
00
C0
C0
C0
00
C0
C0
C0
00
C0
C0
C0
ENDCHAR
STARTCHAR U+250C
ENCODING 9484
SWIDTH 1000 0
DWIDTH 16 0
BBX 9 9 7 -2
BITMAP
FF80
8000
8000
8000
8000
8000
8000
8000
8000
ENDCHAR
STARTCHAR U+250D
ENCODING 9485
SWIDTH 1000 0
DWIDTH 16 0
BBX 9 9 7 -2
BITMAP
FF80
FF80
8000
8000
8000
8000
8000
8000
8000
ENDCHAR
STARTCHAR U+250E
ENCODING 9486
SWIDTH 1000 0
DWIDTH 16 0
BBX 9 9 7 -2
BITMAP
FF80
C000
C000
C000
C000
C000
C000
C000
C000
ENDCHAR
STARTCHAR U+250F
ENCODING 9487
SWIDTH 1000 0
DWIDTH 16 0
BBX 9 9 7 -2
BITMAP
FF80
FF80
C000
C000
C000
C000
C000
C000
C000
ENDCHAR
STARTCHAR U+2510
ENCODING 9488
SWIDTH 1000 0
DWIDTH 16 0
BBX 8 9 0 -2
BITMAP
FF
01
01
01
01
01
01
01
01
ENDCHAR
STARTCHAR U+2511
ENCODING 9489
SWIDTH 1000 0
DWIDTH 16 0
BBX 8 9 0 -2
BITMAP
FF
FF
01
01
01
01
01
01
01
ENDCHAR
STARTCHAR U+2512
ENCODING 9490
SWIDTH 1000 0
DWIDTH 16 0
BBX 9 9 0 -2
BITMAP
FF80
0180
0180
0180
0180
0180
0180
0180
0180
ENDCHAR
STARTCHAR U+2513
ENCODING 9491
SWIDTH 1000 0
DWIDTH 16 0
BBX 9 9 0 -2
BITMAP
FF80
FF80
0180
0180
0180
0180
0180
0180
0180
ENDCHAR
STARTCHAR U+2514
ENCODING 9492
SWIDTH 1000 0
DWIDTH 16 0
BBX 9 8 7 6
BITMAP
8000
8000
8000
8000
8000
8000
8000
FF80
ENDCHAR
STARTCHAR U+2515
ENCODING 9493
SWIDTH 1000 0
DWIDTH 16 0
BBX 9 9 7 5
BITMAP
8000
8000
8000
8000
8000
8000
8000
FF80
FF80
ENDCHAR
STARTCHAR U+2516
ENCODING 9494
SWIDTH 1000 0
DWIDTH 16 0
BBX 10 8 6 6
BITMAP
C000
C000
C000
C000
C000
C000
C000
FFC0
ENDCHAR
STARTCHAR U+2517
ENCODING 9495
SWIDTH 1000 0
DWIDTH 16 0
BBX 9 9 7 5
BITMAP
C000
C000
C000
C000
C000
C000
C000
FF80
FF80
ENDCHAR
STARTCHAR U+2518
ENCODING 9496
SWIDTH 1000 0
DWIDTH 16 0
BBX 8 8 0 6
BITMAP
01
01
01
01
01
01
01
FF
ENDCHAR
STARTCHAR U+2519
ENCODING 9497
SWIDTH 1000 0
DWIDTH 16 0
BBX 8 9 0 5
BITMAP
01
01
01
01
01
01
01
FF
FF
ENDCHAR
STARTCHAR U+251A
ENCODING 9498
SWIDTH 1000 0
DWIDTH 16 0
BBX 9 8 0 6
BITMAP
0180
0180
0180
0180
0180
0180
0180
FF80
ENDCHAR
STARTCHAR U+251B
ENCODING 9499
SWIDTH 1000 0
DWIDTH 16 0
BBX 9 9 0 5
BITMAP
0180
0180
0180
0180
0180
0180
0180
FF80
FF80
ENDCHAR
STARTCHAR U+251C
ENCODING 9500
SWIDTH 1000 0
DWIDTH 16 0
BBX 9 16 7 -2
BITMAP
8000
8000
8000
8000
8000
8000
8000
FF80
8000
8000
8000
8000
8000
8000
8000
8000
ENDCHAR
STARTCHAR U+251D
ENCODING 9501
SWIDTH 1000 0
DWIDTH 16 0
BBX 9 16 7 -2
BITMAP
8000
8000
8000
8000
8000
8000
8000
FF80
FF80
8000
8000
8000
8000
8000
8000
8000
ENDCHAR
STARTCHAR U+251E
ENCODING 9502
SWIDTH 1000 0
DWIDTH 16 0
BBX 9 16 7 -2
BITMAP
C000
C000
C000
C000
C000
C000
C000
FF80
8000
8000
8000
8000
8000
8000
8000
8000
ENDCHAR
STARTCHAR U+251F
ENCODING 9503
SWIDTH 1000 0
DWIDTH 16 0
BBX 9 16 7 -2
BITMAP
8000
8000
8000
8000
8000
8000
8000
FF80
C000
C000
C000
C000
C000
C000
C000
C000
ENDCHAR
STARTCHAR U+2520
ENCODING 9504
SWIDTH 1000 0
DWIDTH 16 0
BBX 9 16 7 -2
BITMAP
C000
C000
C000
C000
C000
C000
C000
FF80
C000
C000
C000
C000
C000
C000
C000
C000
ENDCHAR
STARTCHAR U+2521
ENCODING 9505
SWIDTH 1000 0
DWIDTH 16 0
BBX 9 16 7 -2
BITMAP
C000
C000
C000
C000
C000
C000
C000
FF80
FF80
8000
8000
8000
8000
8000
8000
8000
ENDCHAR
STARTCHAR U+2522
ENCODING 9506
SWIDTH 1000 0
DWIDTH 16 0
BBX 9 16 7 -2
BITMAP
8000
8000
8000
8000
8000
8000
8000
FF80
FF80
C000
C000
C000
C000
C000
C000
C000
ENDCHAR
STARTCHAR U+2523
ENCODING 9507
SWIDTH 1000 0
DWIDTH 16 0
BBX 9 16 7 -2
BITMAP
C000
C000
C000
C000
C000
C000
C000
FF80
FF80
C000
C000
C000
C000
C000
C000
C000
ENDCHAR
STARTCHAR U+2524
ENCODING 9508
SWIDTH 1000 0
DWIDTH 16 0
BBX 8 16 0 -2
BITMAP
01
01
01
01
01
01
01
FF
01
01
01
01
01
01
01
01
ENDCHAR
STARTCHAR U+2525
ENCODING 9509
SWIDTH 1000 0
DWIDTH 16 0
BBX 8 16 0 -2
BITMAP
01
01
01
01
01
01
01
FF
FF
01
01
01
01
01
01
01
ENDCHAR
STARTCHAR U+2526
ENCODING 9510
SWIDTH 1000 0
DWIDTH 16 0
BBX 9 16 0 -2
BITMAP
0180
0180
0180
0180
0180
0180
0180
FF80
0100
0100
0100
0100
0100
0100
0100
0100
ENDCHAR
STARTCHAR U+2527
ENCODING 9511
SWIDTH 1000 0
DWIDTH 16 0
BBX 9 16 0 -2
BITMAP
0100
0100
0100
0100
0100
0100
0100
FF80
0180
0180
0180
0180
0180
0180
0180
0180
ENDCHAR
STARTCHAR U+2528
ENCODING 9512
SWIDTH 1000 0
DWIDTH 16 0
BBX 9 16 0 -2
BITMAP
0180
0180
0180
0180
0180
0180
0180
FF80
0180
0180
0180
0180
0180
0180
0180
0180
ENDCHAR
STARTCHAR U+2529
ENCODING 9513
SWIDTH 1000 0
DWIDTH 16 0
BBX 9 16 0 -2
BITMAP
0180
0180
0180
0180
0180
0180
0180
FF80
FF80
0100
0100
0100
0100
0100
0100
0100
ENDCHAR
STARTCHAR U+252A
ENCODING 9514
SWIDTH 1000 0
DWIDTH 16 0
BBX 9 16 0 -2
BITMAP
0100
0100
0100
0100
0100
0100
0100
FF80
FF80
0180
0180
0180
0180
0180
0180
0180
ENDCHAR
STARTCHAR U+252B
ENCODING 9515
SWIDTH 1000 0
DWIDTH 16 0
BBX 9 16 0 -2
BITMAP
0180
0180
0180
0180
0180
0180
0180
FF80
FF80
0180
0180
0180
0180
0180
0180
0180
ENDCHAR
STARTCHAR U+252C
ENCODING 9516
SWIDTH 1000 0
DWIDTH 16 0
BBX 16 9 0 -2
BITMAP
FFFF
0100
0100
0100
0100
0100
0100
0100
0100
ENDCHAR
STARTCHAR U+252D
ENCODING 9517
SWIDTH 1000 0
DWIDTH 16 0
BBX 16 9 0 -2
BITMAP
FFFF
FF00
0100
0100
0100
0100
0100
0100
0100
ENDCHAR
STARTCHAR U+252E
ENCODING 9518
SWIDTH 1000 0
DWIDTH 16 0
BBX 16 9 0 -2
BITMAP
FFFF
01FF
0100
0100
0100
0100
0100
0100
0100
ENDCHAR
STARTCHAR U+252F
ENCODING 9519
SWIDTH 1000 0
DWIDTH 16 0
BBX 16 9 0 -2
BITMAP
FFFF
FFFF
0100
0100
0100
0100
0100
0100
0100
ENDCHAR
STARTCHAR U+2530
ENCODING 9520
SWIDTH 1000 0
DWIDTH 16 0
BBX 16 9 0 -2
BITMAP
FFFF
0300
0300
0300
0300
0300
0300
0300
0300
ENDCHAR
STARTCHAR U+2531
ENCODING 9521
SWIDTH 1000 0
DWIDTH 16 0
BBX 16 9 0 -2
BITMAP
FFFF
FF00
0300
0300
0300
0300
0300
0300
0300
ENDCHAR
STARTCHAR U+2532
ENCODING 9522
SWIDTH 1000 0
DWIDTH 16 0
BBX 16 9 0 -2
BITMAP
FFFF
01FF
0180
0180
0180
0180
0180
0180
0180
ENDCHAR
STARTCHAR U+2533
ENCODING 9523
SWIDTH 1000 0
DWIDTH 16 0
BBX 16 9 0 -2
BITMAP
FFFF
FFFF
0180
0180
0180
0180
0180
0180
0180
ENDCHAR
STARTCHAR U+2534
ENCODING 9524
SWIDTH 1000 0
DWIDTH 16 0
BBX 16 8 0 6
BITMAP
0100
0100
0100
0100
0100
0100
0100
FFFF
ENDCHAR
STARTCHAR U+2535
ENCODING 9525
SWIDTH 1000 0
DWIDTH 16 0
BBX 16 9 0 5
BITMAP
0100
0100
0100
0100
0100
0100
0100
FFFF
FF00
ENDCHAR
STARTCHAR U+2536
ENCODING 9526
SWIDTH 1000 0
DWIDTH 16 0
BBX 16 9 0 5
BITMAP
0100
0100
0100
0100
0100
0100
0100
FFFF
01FF
ENDCHAR
STARTCHAR U+2537
ENCODING 9527
SWIDTH 1000 0
DWIDTH 16 0
BBX 16 9 0 5
BITMAP
0100
0100
0100
0100
0100
0100
0100
FFFF
FFFF
ENDCHAR
STARTCHAR U+2538
ENCODING 9528
SWIDTH 1000 0
DWIDTH 16 0
BBX 16 8 0 6
BITMAP
0180
0180
0180
0180
0180
0180
0180
FFFF
ENDCHAR
STARTCHAR U+2539
ENCODING 9529
SWIDTH 1000 0
DWIDTH 16 0
BBX 16 9 0 5
BITMAP
0180
0180
0180
0180
0180
0180
0180
FFFF
FF80
ENDCHAR
STARTCHAR U+253A
ENCODING 9530
SWIDTH 1000 0
DWIDTH 16 0
BBX 16 9 0 5
BITMAP
0180
0180
0180
0180
0180
0180
0180
FFFF
01FF
ENDCHAR
STARTCHAR U+253B
ENCODING 9531
SWIDTH 1000 0
DWIDTH 16 0
BBX 16 9 0 5
BITMAP
0180
0180
0180
0180
0180
0180
0180
FFFF
FFFF
ENDCHAR
STARTCHAR U+253C
ENCODING 9532
SWIDTH 1000 0
DWIDTH 16 0
BBX 16 16 0 -2
BITMAP
0100
0100
0100
0100
0100
0100
0100
FFFF
0100
0100
0100
0100
0100
0100
0100
0100
ENDCHAR
STARTCHAR U+253D
ENCODING 9533
SWIDTH 1000 0
DWIDTH 16 0
BBX 16 16 0 -2
BITMAP
0100
0100
0100
0100
0100
0100
0100
FFFF
FF00
0100
0100
0100
0100
0100
0100
0100
ENDCHAR
STARTCHAR U+253E
ENCODING 9534
SWIDTH 1000 0
DWIDTH 16 0
BBX 16 16 0 -2
BITMAP
0100
0100
0100
0100
0100
0100
0100
FFFF
01FF
0100
0100
0100
0100
0100
0100
0100
ENDCHAR
STARTCHAR U+253F
ENCODING 9535
SWIDTH 1000 0
DWIDTH 16 0
BBX 16 16 0 -2
BITMAP
0100
0100
0100
0100
0100
0100
0100
FFFF
FFFF
0100
0100
0100
0100
0100
0100
0100
ENDCHAR
STARTCHAR U+2540
ENCODING 9536
SWIDTH 1000 0
DWIDTH 16 0
BBX 16 16 0 -2
BITMAP
0180
0180
0180
0180
0180
0180
0180
FFFF
0100
0100
0100
0100
0100
0100
0100
0100
ENDCHAR
STARTCHAR U+2541
ENCODING 9537
SWIDTH 1000 0
DWIDTH 16 0
BBX 16 16 0 -2
BITMAP
0100
0100
0100
0100
0100
0100
0100
FFFF
0180
0180
0180
0180
0180
0180
0180
0180
ENDCHAR
STARTCHAR U+2542
ENCODING 9538
SWIDTH 1000 0
DWIDTH 16 0
BBX 16 16 0 -2
BITMAP
0180
0180
0180
0180
0180
0180
0180
FFFF
0180
0180
0180
0180
0180
0180
0180
0180
ENDCHAR
STARTCHAR U+2543
ENCODING 9539
SWIDTH 1000 0
DWIDTH 16 0
BBX 16 16 0 -2
BITMAP
0180
0180
0180
0180
0180
0180
0180
FFFF
FF00
0100
0100
0100
0100
0100
0100
0100
ENDCHAR
STARTCHAR U+2544
ENCODING 9540
SWIDTH 1000 0
DWIDTH 16 0
BBX 16 16 0 -2
BITMAP
0180
0180
0180
0180
0180
0180
0180
FFFF
01FF
0100
0100
0100
0100
0100
0100
0100
ENDCHAR
STARTCHAR U+2545
ENCODING 9541
SWIDTH 1000 0
DWIDTH 16 0
BBX 16 16 0 -2
BITMAP
0100
0100
0100
0100
0100
0100
0100
FFFF
FF80
0180
0180
0180
0180
0180
0180
0180
ENDCHAR
STARTCHAR U+2546
ENCODING 9542
SWIDTH 1000 0
DWIDTH 16 0
BBX 16 16 0 -2
BITMAP
0100
0100
0100
0100
0100
0100
0100
FFFF
01FF
0180
0180
0180
0180
0180
0180
0180
ENDCHAR
STARTCHAR U+2547
ENCODING 9543
SWIDTH 1000 0
DWIDTH 16 0
BBX 16 16 0 -2
BITMAP
0180
0180
0180
0180
0180
0180
0180
FFFF
FFFF
0100
0100
0100
0100
0100
0100
0100
ENDCHAR
STARTCHAR U+2548
ENCODING 9544
SWIDTH 1000 0
DWIDTH 16 0
BBX 16 16 0 -2
BITMAP
0100
0100
0100
0100
0100
0100
0100
FFFF
FFFF
0180
0180
0180
0180
0180
0180
0180
ENDCHAR
STARTCHAR U+2549
ENCODING 9545
SWIDTH 1000 0
DWIDTH 16 0
BBX 13 14 1 -1
BITMAP
0600
0600
0600
0600
0600
0600
FFF8
FE00
0600
0600
0600
0600
0600
0600
ENDCHAR
STARTCHAR U+254A
ENCODING 9546
SWIDTH 1000 0
DWIDTH 16 0
BBX 16 16 0 -2
BITMAP
0180
0180
0180
0180
0180
0180
0180
FFFF
01FF
0180
0180
0180
0180
0180
0180
0180
ENDCHAR
STARTCHAR U+254B
ENCODING 9547
SWIDTH 1000 0
DWIDTH 16 0
BBX 16 16 0 -2
BITMAP
0180
0180
0180
0180
0180
0180
0180
FFFF
FFFF
0180
0180
0180
0180
0180
0180
0180
ENDCHAR
STARTCHAR U+2550
ENCODING 9552
SWIDTH 1000 0
DWIDTH 16 0
BBX 16 3 0 4
BITMAP
FFFF
0000
FFFF
ENDCHAR
STARTCHAR U+2551
ENCODING 9553
SWIDTH 1000 0
DWIDTH 16 0
BBX 3 16 6 -2
BITMAP
A0
A0
A0
A0
A0
A0
A0
A0
A0
A0
A0
A0
A0
A0
A0
A0
ENDCHAR
STARTCHAR U+2552
ENCODING 9554
SWIDTH 1000 0
DWIDTH 16 0
BBX 9 9 7 -2
BITMAP
FF80
8000
FF80
8000
8000
8000
8000
8000
8000
ENDCHAR
STARTCHAR U+2553
ENCODING 9555
SWIDTH 1000 0
DWIDTH 16 0
BBX 10 8 6 -2
BITMAP
FFC0
A000
A000
A000
A000
A000
A000
A000
ENDCHAR
STARTCHAR U+2554
ENCODING 9556
SWIDTH 1000 0
DWIDTH 16 0
BBX 10 9 6 -2
BITMAP
FFC0
8000
BFC0
A000
A000
A000
A000
A000
A000
ENDCHAR
STARTCHAR U+2555
ENCODING 9557
SWIDTH 1000 0
DWIDTH 16 0
BBX 8 9 0 -2
BITMAP
FF
01
FF
01
01
01
01
01
01
ENDCHAR
STARTCHAR U+2556
ENCODING 9558
SWIDTH 1000 0
DWIDTH 16 0
BBX 9 8 0 -2
BITMAP
FF80
0280
0280
0280
0280
0280
0280
0280
ENDCHAR
STARTCHAR U+2557
ENCODING 9559
SWIDTH 1000 0
DWIDTH 16 0
BBX 9 9 0 -2
BITMAP
FF80
0080
FE80
0280
0280
0280
0280
0280
0280
ENDCHAR
STARTCHAR U+2558
ENCODING 9560
SWIDTH 1000 0
DWIDTH 16 0
BBX 9 10 7 4
BITMAP
8000
8000
8000
8000
8000
8000
8000
FF80
8000
FF80
ENDCHAR
STARTCHAR U+2559
ENCODING 9561
SWIDTH 1000 0
DWIDTH 16 0
BBX 10 9 6 5
BITMAP
A000
A000
A000
A000
A000
A000
A000
A000
FFC0
ENDCHAR
STARTCHAR U+255A
ENCODING 9562
SWIDTH 1000 0
DWIDTH 16 0
BBX 10 10 6 4
BITMAP
A000
A000
A000
A000
A000
A000
A000
BFC0
8000
FFC0
ENDCHAR
STARTCHAR U+255B
ENCODING 9563
SWIDTH 1000 0
DWIDTH 16 0
BBX 8 10 0 4
BITMAP
01
01
01
01
01
01
01
FF
01
FF
ENDCHAR
STARTCHAR U+255C
ENCODING 9564
SWIDTH 1000 0
DWIDTH 16 0
BBX 9 9 0 5
BITMAP
0280
0280
0280
0280
0280
0280
0280
0280
FF80
ENDCHAR
STARTCHAR U+255D
ENCODING 9565
SWIDTH 1000 0
DWIDTH 16 0
BBX 9 10 0 4
BITMAP
0280
0280
0280
0280
0280
0280
0280
FE80
0080
FF80
ENDCHAR
STARTCHAR U+255E
ENCODING 9566
SWIDTH 1000 0
DWIDTH 16 0
BBX 9 16 7 -2
BITMAP
8000
8000
8000
8000
8000
8000
8000
FF80
8000
FF80
8000
8000
8000
8000
8000
8000
ENDCHAR
STARTCHAR U+255F
ENCODING 9567
SWIDTH 1000 0
DWIDTH 16 0
BBX 10 16 6 -2
BITMAP
A000
A000
A000
A000
A000
A000
A000
A000
BFC0
A000
A000
A000
A000
A000
A000
A000
ENDCHAR
STARTCHAR U+2560
ENCODING 9568
SWIDTH 1000 0
DWIDTH 16 0
BBX 10 16 6 -2
BITMAP
A000
A000
A000
A000
A000
A000
A000
BFC0
8000
BFC0
A000
A000
A000
A000
A000
A000
ENDCHAR
STARTCHAR U+2561
ENCODING 9569
SWIDTH 1000 0
DWIDTH 16 0
BBX 8 16 0 -2
BITMAP
01
01
01
01
01
01
01
FF
01
FF
01
01
01
01
01
01
ENDCHAR
STARTCHAR U+2562
ENCODING 9570
SWIDTH 1000 0
DWIDTH 16 0
BBX 9 16 0 -2
BITMAP
0280
0280
0280
0280
0280
0280
0280
0280
FE80
0280
0280
0280
0280
0280
0280
0280
ENDCHAR
STARTCHAR U+2563
ENCODING 9571
SWIDTH 1000 0
DWIDTH 16 0
BBX 9 16 0 -2
BITMAP
0280
0280
0280
0280
0280
0280
0280
FE80
0080
FE80
0280
0280
0280
0280
0280
0280
ENDCHAR
STARTCHAR U+2564
ENCODING 9572
SWIDTH 1000 0
DWIDTH 16 0
BBX 16 9 0 -2
BITMAP
FFFF
0000
FFFF
0100
0100
0100
0100
0100
0100
ENDCHAR
STARTCHAR U+2565
ENCODING 9573
SWIDTH 1000 0
DWIDTH 16 0
BBX 16 8 0 -2
BITMAP
FFFF
0280
0280
0280
0280
0280
0280
0280
ENDCHAR
STARTCHAR U+2566
ENCODING 9574
SWIDTH 1000 0
DWIDTH 16 0
BBX 16 9 0 -2
BITMAP
FFFF
0000
FEFF
0280
0280
0280
0280
0280
0280
ENDCHAR
STARTCHAR U+2567
ENCODING 9575
SWIDTH 1000 0
DWIDTH 16 0
BBX 16 10 0 4
BITMAP
0100
0100
0100
0100
0100
0100
0100
FFFF
0000
FFFF
ENDCHAR
STARTCHAR U+2568
ENCODING 9576
SWIDTH 1000 0
DWIDTH 16 0
BBX 16 9 0 5
BITMAP
0280
0280
0280
0280
0280
0280
0280
0280
FFFF
ENDCHAR
STARTCHAR U+2569
ENCODING 9577
SWIDTH 1000 0
DWIDTH 16 0
BBX 16 10 0 4
BITMAP
0280
0280
0280
0280
0280
0280
0280
FEFF
0000
FFFF
ENDCHAR
STARTCHAR U+256A
ENCODING 9578
SWIDTH 1000 0
DWIDTH 16 0
BBX 16 16 0 -2
BITMAP
0100
0100
0100
0100
0100
0100
0100
FFFF
0100
FFFF
0100
0100
0100
0100
0100
0100
ENDCHAR
STARTCHAR U+256B
ENCODING 9579
SWIDTH 1000 0
DWIDTH 16 0
BBX 16 16 0 -2
BITMAP
0280
0280
0280
0280
0280
0280
0280
0280
FFFF
0280
0280
0280
0280
0280
0280
0280
ENDCHAR
STARTCHAR U+256C
ENCODING 9580
SWIDTH 1000 0
DWIDTH 16 0
BBX 16 16 0 -2
BITMAP
0280
0280
0280
0280
0280
0280
0280
FEFF
0000
FEFF
0280
0280
0280
0280
0280
0280
ENDCHAR
STARTCHAR U+2581
ENCODING 9601
SWIDTH 1000 0
DWIDTH 16 0
BBX 16 2 0 -2
BITMAP
FFFF
FFFF
ENDCHAR
STARTCHAR U+2582
ENCODING 9602
SWIDTH 1000 0
DWIDTH 16 0
BBX 16 4 0 -2
BITMAP
FFFF
FFFF
FFFF
FFFF
ENDCHAR
STARTCHAR U+2583
ENCODING 9603
SWIDTH 1000 0
DWIDTH 16 0
BBX 16 6 0 -2
BITMAP
FFFF
FFFF
FFFF
FFFF
FFFF
FFFF
ENDCHAR
STARTCHAR U+2584
ENCODING 9604
SWIDTH 1000 0
DWIDTH 16 0
BBX 16 8 0 -2
BITMAP
FFFF
FFFF
FFFF
FFFF
FFFF
FFFF
FFFF
FFFF
ENDCHAR
STARTCHAR U+2585
ENCODING 9605
SWIDTH 1000 0
DWIDTH 16 0
BBX 16 10 0 -2
BITMAP
FFFF
FFFF
FFFF
FFFF
FFFF
FFFF
FFFF
FFFF
FFFF
FFFF
ENDCHAR
STARTCHAR U+2586
ENCODING 9606
SWIDTH 1000 0
DWIDTH 16 0
BBX 16 12 0 -2
BITMAP
FFFF
FFFF
FFFF
FFFF
FFFF
FFFF
FFFF
FFFF
FFFF
FFFF
FFFF
FFFF
ENDCHAR
STARTCHAR U+2587
ENCODING 9607
SWIDTH 1000 0
DWIDTH 16 0
BBX 16 14 0 -2
BITMAP
FFFF
FFFF
FFFF
FFFF
FFFF
FFFF
FFFF
FFFF
FFFF
FFFF
FFFF
FFFF
FFFF
FFFF
ENDCHAR
STARTCHAR U+2588
ENCODING 9608
SWIDTH 1000 0
DWIDTH 16 0
BBX 16 16 0 -2
BITMAP
FFFF
FFFF
FFFF
FFFF
FFFF
FFFF
FFFF
FFFF
FFFF
FFFF
FFFF
FFFF
FFFF
FFFF
FFFF
FFFF
ENDCHAR
STARTCHAR U+2589
ENCODING 9609
SWIDTH 1000 0
DWIDTH 16 0
BBX 14 16 0 -2
BITMAP
FFFC
FFFC
FFFC
FFFC
FFFC
FFFC
FFFC
FFFC
FFFC
FFFC
FFFC
FFFC
FFFC
FFFC
FFFC
FFFC
ENDCHAR
STARTCHAR U+258A
ENCODING 9610
SWIDTH 1000 0
DWIDTH 16 0
BBX 12 16 0 -2
BITMAP
FFF0
FFF0
FFF0
FFF0
FFF0
FFF0
FFF0
FFF0
FFF0
FFF0
FFF0
FFF0
FFF0
FFF0
FFF0
FFF0
ENDCHAR
STARTCHAR U+258B
ENCODING 9611
SWIDTH 1000 0
DWIDTH 16 0
BBX 10 16 0 -2
BITMAP
FFC0
FFC0
FFC0
FFC0
FFC0
FFC0
FFC0
FFC0
FFC0
FFC0
FFC0
FFC0
FFC0
FFC0
FFC0
FFC0
ENDCHAR
STARTCHAR U+258C
ENCODING 9612
SWIDTH 1000 0
DWIDTH 16 0
BBX 8 16 0 -2
BITMAP
FF
FF
FF
FF
FF
FF
FF
FF
FF
FF
FF
FF
FF
FF
FF
FF
ENDCHAR
STARTCHAR U+258D
ENCODING 9613
SWIDTH 1000 0
DWIDTH 16 0
BBX 6 16 0 -2
BITMAP
FC
FC
FC
FC
FC
FC
FC
FC
FC
FC
FC
FC
FC
FC
FC
FC
ENDCHAR
STARTCHAR U+258E
ENCODING 9614
SWIDTH 1000 0
DWIDTH 16 0
BBX 4 16 0 -2
BITMAP
F0
F0
F0
F0
F0
F0
F0
F0
F0
F0
F0
F0
F0
F0
F0
F0
ENDCHAR
STARTCHAR U+258F
ENCODING 9615
SWIDTH 1000 0
DWIDTH 16 0
BBX 2 16 0 -2
BITMAP
C0
C0
C0
C0
C0
C0
C0
C0
C0
C0
C0
C0
C0
C0
C0
C0
ENDCHAR
STARTCHAR U+25A0
ENCODING 9632
SWIDTH 1000 0
DWIDTH 16 0
BBX 15 16 0 -2
BITMAP
FFFE
FFFE
FFFE
FFFE
FFFE
FFFE
FFFE
FFFE
FFFE
FFFE
FFFE
FFFE
FFFE
FFFE
FFFE
FFFE
ENDCHAR
STARTCHAR U+25A1
ENCODING 9633
SWIDTH 1000 0
DWIDTH 16 0
BBX 15 16 0 -2
BITMAP
FFFE
8002
8002
8002
8002
8002
8002
8002
8002
8002
8002
8002
8002
8002
8002
FFFE
ENDCHAR
STARTCHAR U+25B2
ENCODING 9650
SWIDTH 1000 0
DWIDTH 16 0
BBX 15 15 0 -1
BITMAP
0100
0100
0380
0380
07C0
07C0
0FE0
0FE0
1FF0
1FF0
3FF8
3FF8
7FFC
7FFC
FFFE
ENDCHAR
STARTCHAR U+25B3
ENCODING 9651
SWIDTH 1000 0
DWIDTH 16 0
BBX 15 15 0 -1
BITMAP
0100
0100
0280
0280
0440
0440
0820
0820
1010
1010
2008
2008
4004
4004
FFFE
ENDCHAR
STARTCHAR U+25BC
ENCODING 9660
SWIDTH 1000 0
DWIDTH 16 0
BBX 15 15 0 -2
BITMAP
FFFE
7FFC
7FFC
3FF8
3FF8
1FF0
1FF0
0FE0
0FE0
07C0
07C0
0380
0380
0100
0100
ENDCHAR
STARTCHAR U+25BD
ENCODING 9661
SWIDTH 1000 0
DWIDTH 16 0
BBX 15 15 0 -2
BITMAP
FFFE
4004
4004
2008
2008
1010
1010
0820
0820
0440
0440
0280
0280
0100
0100
ENDCHAR
STARTCHAR U+25C6
ENCODING 9670
SWIDTH 1000 0
DWIDTH 16 0
BBX 15 16 0 -2
BITMAP
0100
0380
07C0
0FE0
1FF0
3FF8
7FFC
FFFE
FFFE
7FFC
3FF8
1FF0
0FE0
07C0
0380
0100
ENDCHAR
STARTCHAR U+25C7
ENCODING 9671
SWIDTH 1000 0
DWIDTH 16 0
BBX 15 15 0 -1
BITMAP
0100
0280
0440
0820
1010
2008
4004
8002
4004
2008
1010
0820
0440
0280
0100
ENDCHAR
STARTCHAR U+25CB
ENCODING 9675
SWIDTH 1000 0
DWIDTH 16 0
BBX 15 16 0 -2
BITMAP
07C0
1830
2008
4004
4004
8002
8002
8002
8002
8002
8002
4004
4004
2008
1830
07C0
ENDCHAR
STARTCHAR U+25CE
ENCODING 9678
SWIDTH 1000 0
DWIDTH 16 0
BBX 15 16 0 -2
BITMAP
07C0
1830
2008
4004
47C4
8822
9012
9012
9012
9012
8822
47C4
4004
2008
1830
07C0
ENDCHAR
STARTCHAR U+25CF
ENCODING 9679
SWIDTH 1000 0
DWIDTH 16 0
BBX 15 16 0 -2
BITMAP
07C0
1FF0
3FF8
7FFC
7FFC
FFFE
FFFE
FFFE
FFFE
FFFE
FFFE
7FFC
7FFC
3FF8
1FF0
07C0
ENDCHAR
STARTCHAR U+25EF
ENCODING 9711
SWIDTH 1000 0
DWIDTH 16 0
BBX 15 16 0 -2
BITMAP
07C0
1830
2008
4004
4004
8002
8002
8002
8002
8002
8002
4004
4004
2008
1830
07C0
ENDCHAR
STARTCHAR U+2605
ENCODING 9733
SWIDTH 1000 0
DWIDTH 16 0
BBX 15 16 0 -2
BITMAP
0100
0100
0380
0380
0380
07C0
FFFE
7FFC
1FF0
07C0
0FE0
0FE0
1EF0
1C70
3838
3018
ENDCHAR
STARTCHAR U+2606
ENCODING 9734
SWIDTH 1000 0
DWIDTH 16 0
BBX 15 16 0 -2
BITMAP
0100
0100
0380
0280
0280
0440
F83E
600C
1830
0440
0820
0920
1290
1450
3838
2008
ENDCHAR
STARTCHAR U+262F
ENCODING 9775
SWIDTH 1000 0
DWIDTH 16 0
BBX 15 16 0 -2
BITMAP
07C0
1830
2008
4004
4024
8072
BC22
FE06
EF0E
C7FE
EFFE
7FFC
7FFC
3FF8
1FF0
07C0
ENDCHAR
STARTCHAR U+2640
ENCODING 9792
SWIDTH 1000 0
DWIDTH 16 0
BBX 11 15 2 -1
BITMAP
0E00
1100
2080
2080
2080
1100
0E00
0400
8420
FFE0
8420
0400
0400
0400
0E00
ENDCHAR
STARTCHAR U+2642
ENCODING 9794
SWIDTH 1000 0
DWIDTH 16 0
BBX 14 14 0 -1
BITMAP
00FC
000C
0014
0024
0044
0084
0100
3A00
4400
8200
8200
8200
4400
3800
ENDCHAR
STARTCHAR U+266A
ENCODING 9834
SWIDTH 1000 0
DWIDTH 16 0
BBX 10 14 2 -1
BITMAP
0C00
0600
0500
0480
0480
0440
0440
0440
0480
1C00
7C00
F800
F800
7000
ENDCHAR
STARTCHAR U+266D
ENCODING 9837
SWIDTH 1000 0
DWIDTH 16 0
BBX 7 14 3 -1
BITMAP
C0
40
40
40
58
64
42
42
44
44
48
50
60
40
ENDCHAR
STARTCHAR U+266F
ENCODING 9839
SWIDTH 1000 0
DWIDTH 16 0
BBX 9 14 3 -1
BITMAP
0200
2200
2380
3F80
FE00
E200
2200
2200
2380
3F80
FE00
E200
2200
2000
ENDCHAR
STARTCHAR U+26E9
ENCODING 9961
SWIDTH 1000 0
DWIDTH 16 0
BBX 15 15 0 -2
BITMAP
8002
FFFE
9012
1010
1010
1FF0
1010
1010
1010
1010
1010
1010
1010
1010
3878
ENDCHAR
STARTCHAR U+2E80
ENCODING 11904
SWIDTH 1000 0
DWIDTH 16 0
BBX 9 10 3 1
BITMAP
7000
0C00
0200
0100
0180
F000
0C00
0200
0100
0180
ENDCHAR
STARTCHAR U+2E81
ENCODING 11905
SWIDTH 1000 0
DWIDTH 16 0
BBX 14 16 0 -2
BITMAP
000C
20F4
7F00
2000
2000
2000
2000
2000
2000
2000
2000
2000
2000
4000
C000
8000
ENDCHAR
STARTCHAR U+2E82
ENCODING 11906
SWIDTH 1000 0
DWIDTH 16 0
BBX 15 7 0 7
BITMAP
8004
FFFE
8008
0010
0020
00C0
0080
ENDCHAR
STARTCHAR U+2E83
ENCODING 11907
SWIDTH 1000 0
DWIDTH 16 0
BBX 13 16 1 -2
BITMAP
E000
4000
4000
4000
4000
4000
4000
4000
4000
4000
4000
4000
4010
4010
4010
3FF8
ENDCHAR
STARTCHAR U+2E84
ENCODING 11908
SWIDTH 1000 0
DWIDTH 16 0
BBX 15 16 0 -2
BITMAP
8040
FFE0
8040
0040
0040
0040
0040
0040
0040
0040
0040
0020
0020
0014
000C
0006
ENDCHAR
STARTCHAR U+2E85
ENCODING 11909
SWIDTH 1000 0
DWIDTH 16 0
BBX 5 16 5 -2
BITMAP
08
08
08
08
10
10
30
D0
90
10
10
10
10
10
10
30
ENDCHAR
STARTCHAR U+2E86
ENCODING 11910
SWIDTH 1000 0
DWIDTH 16 0
BBX 12 16 1 -2
BITMAP
1020
3FF0
1020
1020
1020
1020
1020
1020
1020
1020
1020
1020
2020
2020
C1E0
8040
ENDCHAR
STARTCHAR U+2E87
ENCODING 11911
SWIDTH 1000 0
DWIDTH 16 0
BBX 15 16 0 -2
BITMAP
2010
7FF8
2010
2010
2010
2010
2010
2010
2010
2010
2008
200A
400A
4004
C006
8002
ENDCHAR
STARTCHAR U+2E88
ENCODING 11912
SWIDTH 1000 0
DWIDTH 16 0
BBX 15 9 0 5
BITMAP
1800
0800
1004
1FFE
2008
2010
C020
80C0
0080
ENDCHAR
STARTCHAR U+2E89
ENCODING 11913
SWIDTH 1000 0
DWIDTH 16 0
BBX 5 16 5 -2
BITMAP
18
08
C8
48
48
48
48
48
48
48
48
08
08
08
38
10
ENDCHAR
STARTCHAR U+2E8A
ENCODING 11914
SWIDTH 1000 0
DWIDTH 16 0
BBX 9 16 6 -2
BITMAP
C000
4000
4000
4000
4000
4080
7F80
4080
4000
4000
4000
4000
4000
4000
4000
C000
ENDCHAR
STARTCHAR U+2E8B
ENCODING 11915
SWIDTH 1000 0
DWIDTH 16 0
BBX 14 9 1 -2
BITMAP
4020
FFF0
4020
4020
40E0
4048
4008
4008
3FFC
ENDCHAR
STARTCHAR U+2E8C
ENCODING 11916
SWIDTH 1000 0
DWIDTH 16 0
BBX 11 5 2 9
BITMAP
0C00
C460
4440
2480
0400
ENDCHAR
STARTCHAR U+2E8D
ENCODING 11917
SWIDTH 1000 0
DWIDTH 16 0
BBX 11 3 2 11
BITMAP
CC60
4440
2280
ENDCHAR
STARTCHAR U+2E8E
ENCODING 11918
SWIDTH 1000 0
DWIDTH 16 0
BBX 15 16 0 -2
BITMAP
8002
FFFE
8482
0480
0480
0480
0480
0480
0480
0880
0880
0884
1084
2084
C084
807E
ENDCHAR
STARTCHAR U+2E8F
ENCODING 11919
SWIDTH 1000 0
DWIDTH 16 0
BBX 15 16 0 -2
BITMAP
0440
0440
0820
0820
1010
2008
CCC6
8482
0480
0480
0480
0884
0884
1084
A084
C07E
ENDCHAR
STARTCHAR U+2E90
ENCODING 11920
SWIDTH 1000 0
DWIDTH 16 0
BBX 15 16 0 -2
BITMAP
0380
0100
0100
8102
FFFE
8102
0100
02C0
0280
0280
0480
0484
0884
1084
A084
C07E
ENDCHAR
STARTCHAR U+2E91
ENCODING 11921
SWIDTH 1000 0
DWIDTH 16 0
BBX 15 16 0 -2
BITMAP
0440
0440
0820
0820
1010
2448
CFE6
8442
0440
0440
0440
0844
0844
1044
A044
C03E
ENDCHAR
STARTCHAR U+2E92
ENCODING 11922
SWIDTH 1000 0
DWIDTH 16 0
BBX 14 16 1 -2
BITMAP
4020
FFF0
4020
4020
4020
4020
7FE0
4020
4020
4000
4000
4000
4008
4008
4008
3FFC
ENDCHAR
STARTCHAR U+2E93
ENCODING 11923
SWIDTH 1000 0
DWIDTH 16 0
BBX 15 16 0 -2
BITMAP
0300
0200
0200
0400
0460
0840
0880
3F80
2100
0240
0220
0410
0808
11FC
FE06
4002
ENDCHAR
STARTCHAR U+2E94
ENCODING 11924
SWIDTH 1000 0
DWIDTH 16 0
BBX 15 16 0 -2
BITMAP
0600
0200
0200
0410
07F8
0410
0810
0810
0820
1FE0
1020
0020
0040
8042
FFFE
8002
ENDCHAR
STARTCHAR U+2E95
ENCODING 11925
SWIDTH 1000 0
DWIDTH 16 0
BBX 14 16 1 -2
BITMAP
8008
FFFC
8008
0008
0008
0008
4008
7FF8
4008
0008
0008
0008
0008
8008
FFF8
8008
ENDCHAR
STARTCHAR U+2E96
ENCODING 11926
SWIDTH 1000 0
DWIDTH 16 0
BBX 7 16 4 -2
BITMAP
30
10
10
54
54
54
54
D6
10
10
10
10
10
10
10
30
ENDCHAR
STARTCHAR U+2E97
ENCODING 11927
SWIDTH 1000 0
DWIDTH 16 0
BBX 13 8 1 -2
BITMAP
0C00
2520
2520
2490
C4D8
8448
1C00
0800
ENDCHAR
STARTCHAR U+2E98
ENCODING 11928
SWIDTH 1000 0
DWIDTH 16 0
BBX 7 16 4 -2
BITMAP
38
10
92
FE
92
10
10
1E
F0
90
10
10
10
10
70
20
ENDCHAR
STARTCHAR U+2E99
ENCODING 11929
SWIDTH 1000 0
DWIDTH 16 0
BBX 15 16 0 -2
BITMAP
0800
0800
1002
1FFE
2812
C810
8820
0420
0440
0240
0280
0100
0280
0C60
B01A
C006
ENDCHAR
STARTCHAR U+2E9B
ENCODING 11931
SWIDTH 1000 0
DWIDTH 16 0
BBX 14 16 1 -2
BITMAP
8008
FFF8
8108
3100
2100
2104
3FFC
6204
0380
0500
0500
0908
0908
1108
A108
C0FC
ENDCHAR
STARTCHAR U+2E9C
ENCODING 11932
SWIDTH 1000 0
DWIDTH 16 0
BBX 15 7 0 7
BITMAP
4004
FFFE
4004
5FF4
4004
5FF4
4004
ENDCHAR
STARTCHAR U+2E9D
ENCODING 11933
SWIDTH 1000 0
DWIDTH 16 0
BBX 10 16 3 -2
BITMAP
4080
FFC0
4080
4080
4080
7F80
4080
4080
4080
7F80
4080
4080
4080
4080
4780
C100
ENDCHAR
STARTCHAR U+2E9E
ENCODING 11934
SWIDTH 1000 0
DWIDTH 16 0
BBX 15 16 0 -2
BITMAP
0300
0102
01FE
0902
0910
0FF8
1010
A020
D820
0440
0280
0100
0200
0C00
B000
C000
ENDCHAR
STARTCHAR U+2E9F
ENCODING 11935
SWIDTH 1000 0
DWIDTH 16 0
BBX 15 16 0 -2
BITMAP
1020
3FF0
1220
1220
1120
9122
FFFE
9222
1220
1120
2120
2024
3FFC
2040
01C0
0080
ENDCHAR
STARTCHAR U+2EA0
ENCODING 11936
SWIDTH 1000 0
DWIDTH 16 0
BBX 15 16 0 -2
BITMAP
1010
3FF8
1010
1010
1FF0
1110
1104
1FFC
1104
1080
1080
1040
1044
1F24
F014
800E
ENDCHAR
STARTCHAR U+2EA1
ENCODING 11937
SWIDTH 1000 0
DWIDTH 16 0
BBX 4 16 6 -2
BITMAP
60
20
00
00
C0
50
10
10
10
20
20
20
40
40
C0
80
ENDCHAR
STARTCHAR U+2EA2
ENCODING 11938
SWIDTH 1000 0
DWIDTH 16 0
BBX 15 16 0 -2
BITMAP
0300
0100
0100
610C
1108
1910
0920
0100
0180
0540
0920
3118
C106
8102
0700
0200
ENDCHAR
STARTCHAR U+2EA3
ENCODING 11939
SWIDTH 1000 0
DWIDTH 16 0
BBX 15 4 0 -2
BITMAP
0910
2488
2244
C242
ENDCHAR
STARTCHAR U+2EA4
ENCODING 11940
SWIDTH 1000 0
DWIDTH 16 0
BBX 11 5 2 9
BITMAP
80E0
FF20
8840
4440
4480
ENDCHAR
STARTCHAR U+2EA5
ENCODING 11941
SWIDTH 1000 0
DWIDTH 16 0
BBX 14 6 0 8
BITMAP
0038
3FC0
1210
2108
C08C
8000
ENDCHAR
STARTCHAR U+2EA6
ENCODING 11942
SWIDTH 1000 0
DWIDTH 16 0
BBX 5 16 5 -2
BITMAP
18
08
08
88
48
28
28
08
38
C8
88
08
08
08
08
18
ENDCHAR
STARTCHAR U+2EA7
ENCODING 11943
SWIDTH 1000 0
DWIDTH 16 0
BBX 15 9 0 5
BITMAP
0300
3100
1108
1FF8
2108
2100
4102
FFFE
8002
ENDCHAR
STARTCHAR U+2EA8
ENCODING 11944
SWIDTH 1000 0
DWIDTH 16 0
BBX 5 16 5 -2
BITMAP
18
90
D0
20
20
50
90
10
28
48
88
08
08
50
30
20
ENDCHAR
STARTCHAR U+2EA9
ENCODING 11945
SWIDTH 1000 0
DWIDTH 16 0
BBX 6 15 5 -1
BITMAP
84
FC
94
10
10
94
FC
94
10
10
10
10
1C
E0
80
ENDCHAR
STARTCHAR U+2EAA
ENCODING 11946
SWIDTH 1000 0
DWIDTH 16 0
BBX 6 15 5 -1
BITMAP
84
FC
84
08
10
D0
54
5C
54
50
50
50
5C
70
C0
ENDCHAR
STARTCHAR U+2EAB
ENCODING 11947
SWIDTH 1000 0
DWIDTH 16 0
BBX 15 6 0 8
BITMAP
4004
FFFE
4444
4444
7FFC
4004
ENDCHAR
STARTCHAR U+2EAC
ENCODING 11948
SWIDTH 1000 0
DWIDTH 16 0
BBX 6 16 0 -2
BITMAP
48
78
48
00
84
FC
94
10
54
54
54
D4
94
10
10
38
ENDCHAR
STARTCHAR U+2EAD
ENCODING 11949
SWIDTH 1000 0
DWIDTH 16 0
BBX 7 16 4 -2
BITMAP
30
10
92
FE
04
04
08
10
3C
D2
12
10
10
10
10
30
ENDCHAR
STARTCHAR U+2EAE
ENCODING 11950
SWIDTH 1000 0
DWIDTH 16 0
BBX 15 7 0 7
BITMAP
1040
1040
2282
3EFE
C990
8508
0408
ENDCHAR
STARTCHAR U+2EAF
ENCODING 11951
SWIDTH 1000 0
DWIDTH 16 0
BBX 7 16 4 -2
BITMAP
30
28
28
C8
50
28
2C
F6
92
14
54
54
56
D0
10
30
ENDCHAR
STARTCHAR U+2EB0
ENCODING 11952
SWIDTH 1000 0
DWIDTH 16 0
BBX 6 15 5 -1
BITMAP
30
20
20
4C
48
F8
90
10
2C
F0
80
04
18
E0
80
ENDCHAR
STARTCHAR U+2EB1
ENCODING 11953
SWIDTH 1000 0
DWIDTH 16 0
BBX 13 7 1 7
BITMAP
4010
FFF8
5050
4D90
4210
5DD0
5050
ENDCHAR
STARTCHAR U+2EB2
ENCODING 11954
SWIDTH 1000 0
DWIDTH 16 0
BBX 15 6 0 8
BITMAP
4004
FFFE
4824
4444
7FFC
4004
ENDCHAR
STARTCHAR U+2EB3
ENCODING 11955
SWIDTH 1000 0
DWIDTH 16 0
BBX 15 6 0 8
BITMAP
8002
FFFE
8442
8822
701C
4004
ENDCHAR
STARTCHAR U+2EB4
ENCODING 11956
SWIDTH 1000 0
DWIDTH 16 0
BBX 15 16 0 -2
BITMAP
8002
FFFE
8442
8442
0440
0440
0440
0440
0440
0440
0440
0844
0844
1044
A044
C03E
ENDCHAR
STARTCHAR U+2EB5
ENCODING 11957
SWIDTH 1000 0
DWIDTH 16 0
BBX 15 16 0 -2
BITMAP
4004
FFFE
4444
4444
4444
4444
4444
4444
4444
4444
4444
4444
4444
4444
4CC4
C00C
ENDCHAR
STARTCHAR U+2EB6
ENCODING 11958
SWIDTH 1000 0
DWIDTH 16 0
BBX 15 15 0 -1
BITMAP
0C60
0440
4084
7FFC
4104
2108
3FF8
2108
8202
FFFE
8402
0800
3000
C000
8000
ENDCHAR
STARTCHAR U+2EB7
ENCODING 11959
SWIDTH 1000 0
DWIDTH 16 0
BBX 15 11 0 3
BITMAP
0C60
0440
4084
7FFC
4104
2108
3FF8
2108
8102
FFFE
8002
ENDCHAR
STARTCHAR U+2EB8
ENCODING 11960
SWIDTH 1000 0
DWIDTH 16 0
BBX 15 16 0 -2
BITMAP
0C60
0440
4444
7C7C
4444
0440
2008
3FF8
2108
0100
8102
FFFE
8102
0100
0100
0300
ENDCHAR
STARTCHAR U+2EB9
ENCODING 11961
SWIDTH 1000 0
DWIDTH 16 0
BBX 15 13 0 1
BITMAP
0300
0100
2118
3FF0
2120
8142
FFFE
8102
0200
0400
0800
B000
C000
ENDCHAR
STARTCHAR U+2EBA
ENCODING 11962
SWIDTH 1000 0
DWIDTH 16 0
BBX 15 16 0 -2
BITMAP
0300
2108
3FF8
810A
FFFE
810A
3FF8
2108
0100
0100
0100
0100
0100
0100
0100
0300
ENDCHAR
STARTCHAR U+2EBB
ENCODING 11963
SWIDTH 1000 0
DWIDTH 16 0
BBX 15 10 0 4
BITMAP
0300
2108
3FF8
810A
FFFE
810A
3FF8
8102
FFFE
8002
ENDCHAR
STARTCHAR U+2EBC
ENCODING 11964
SWIDTH 1000 0
DWIDTH 16 0
BBX 12 16 1 -2
BITMAP
1020
3FF0
1020
1020
1620
1120
11A0
1020
1620
1120
11A0
1020
2020
2020
C1E0
8040
ENDCHAR
STARTCHAR U+2EBD
ENCODING 11965
SWIDTH 1000 0
DWIDTH 16 0
BBX 13 16 1 -2
BITMAP
0400
0D10
F5F8
4110
4010
4010
4010
4510
7DF0
4510
4010
4010
4010
4510
7DF0
4510
ENDCHAR
STARTCHAR U+2EBE
ENCODING 11966
SWIDTH 1000 0
DWIDTH 16 0
BBX 15 5 0 4
BITMAP
0440
4444
FFFE
0440
0440
ENDCHAR
STARTCHAR U+2EBF
ENCODING 11967
SWIDTH 1000 0
DWIDTH 16 0
BBX 15 5 0 4
BITMAP
3030
9292
FEFE
9292
3030
ENDCHAR
STARTCHAR U+2EC0
ENCODING 11968
SWIDTH 1000 0
DWIDTH 16 0
BBX 15 5 0 4
BITMAP
0440
8442
FC7E
8442
0440
ENDCHAR
STARTCHAR U+2EC1
ENCODING 11969
SWIDTH 1000 0
DWIDTH 16 0
BBX 15 16 0 -2
BITMAP
0610
03F0
2204
7FFE
2204
2230
23E0
3E10
2210
21F8
2400
4FE0
4444
C444
A844
303E
ENDCHAR
STARTCHAR U+2EC2
ENCODING 11970
SWIDTH 1000 0
DWIDTH 16 0
BBX 7 16 4 -2
BITMAP
30
10
94
FC
04
08
0A
16
38
D4
12
12
10
10
10
30
ENDCHAR
STARTCHAR U+2EC3
ENCODING 11971
SWIDTH 1000 0
DWIDTH 16 0
BBX 15 9 0 5
BITMAP
8002
FFFE
8442
2448
7FFC
2448
2448
3FF8
2008
ENDCHAR
STARTCHAR U+2EC4
ENCODING 11972
SWIDTH 1000 0
DWIDTH 16 0
BBX 15 16 0 -2
BITMAP
8002
FFFE
8482
0480
4484
FFFE
4484
4484
4884
487C
5004
6004
4004
4004
7FFC
4004
ENDCHAR
STARTCHAR U+2EC5
ENCODING 11973
SWIDTH 1000 0
DWIDTH 16 0
BBX 15 16 0 -2
BITMAP
1010
3FF8
1010
1010
1310
1110
1110
1110
1110
1110
1390
0280
0484
0884
B084
C07E
ENDCHAR
STARTCHAR U+2EC6
ENCODING 11974
SWIDTH 1000 0
DWIDTH 16 0
BBX 13 16 1 -2
BITMAP
0400
07E0
0840
1090
BFF8
D110
1110
1FF0
1110
1110
1FF0
1110
2110
2310
C070
8020
ENDCHAR
STARTCHAR U+2EC7
ENCODING 11975
SWIDTH 1000 0
DWIDTH 16 0
BBX 13 16 1 -2
BITMAP
0400
07E0
0840
1090
BFF8
D110
1110
16D0
1450
1110
1110
16D0
1450
1010
1070
3020
ENDCHAR
STARTCHAR U+2EC8
ENCODING 11976
SWIDTH 1000 0
DWIDTH 16 0
BBX 7 15 4 -1
BITMAP
20
30
10
10
00
90
F8
10
10
10
10
10
16
38
10
ENDCHAR
STARTCHAR U+2EC9
ENCODING 11977
SWIDTH 1000 0
DWIDTH 16 0
BBX 15 16 0 -2
BITMAP
1010
3FF8
1010
1010
1310
1110
1110
1110
1110
1110
1110
1290
0280
0440
9832
E00E
ENDCHAR
STARTCHAR U+2ECA
ENCODING 11978
SWIDTH 1000 0
DWIDTH 16 0
BBX 7 15 4 -1
BITMAP
44
FE
44
44
44
7C
54
10
DC
50
50
5C
70
C0
80
ENDCHAR
STARTCHAR U+2ECB
ENCODING 11979
SWIDTH 1000 0
DWIDTH 16 0
BBX 15 16 0 -2
BITMAP
0600
0200
8202
FFFE
8402
0580
0900
0910
1FF0
1110
8102
FFFE
8102
0100
0100
0300
ENDCHAR
STARTCHAR U+2ECC
ENCODING 11980
SWIDTH 1000 0
DWIDTH 16 0
BBX 15 15 0 -2
BITMAP
6000
2000
2000
0000
0000
A000
F000
2000
2000
2000
2000
2000
5000
C802
87FE
ENDCHAR
STARTCHAR U+2ECD
ENCODING 11981
SWIDTH 1000 0
DWIDTH 16 0
BBX 15 15 0 -2
BITMAP
6000
2000
2000
0000
0000
A000
F000
2000
2000
2000
2000
2000
5000
C802
87FE
ENDCHAR
STARTCHAR U+2ECE
ENCODING 11982
SWIDTH 1000 0
DWIDTH 16 0
BBX 15 15 0 -2
BITMAP
6000
2000
2000
0000
9000
F800
9000
2000
5000
F800
9000
2000
2000
D002
8FFE
ENDCHAR
STARTCHAR U+2ECF
ENCODING 11983
SWIDTH 1000 0
DWIDTH 16 0
BBX 7 16 4 -2
BITMAP
44
FE
44
44
48
50
58
44
42
42
62
52
4C
40
40
C0
ENDCHAR
STARTCHAR U+2ED0
ENCODING 11984
SWIDTH 1000 0
DWIDTH 16 0
BBX 7 15 4 -1
BITMAP
60
24
3C
20
44
FC
10
92
FE
92
10
10
1C
70
20
ENDCHAR
STARTCHAR U+2ED1
ENCODING 11985
SWIDTH 1000 0
DWIDTH 16 0
BBX 15 16 0 -2
BITMAP
0810
1FF0
0810
0820
0FE0
0800
0FE0
8802
FFFE
8904
0888
0850
0820
0F18
3806
2002
ENDCHAR
STARTCHAR U+2ED2
ENCODING 11986
SWIDTH 1000 0
DWIDTH 16 0
BBX 15 16 0 -2
BITMAP
0810
1FF0
0810
0820
0FE0
0800
0820
0FE0
0800
8802
FFFE
8422
0410
09F0
7E08
2008
ENDCHAR
STARTCHAR U+2ED3
ENCODING 11987
SWIDTH 1000 0
DWIDTH 16 0
BBX 15 16 0 -2
BITMAP
1810
0810
0820
0840
0B80
0A00
8802
FFFE
8902
0900
0880
0840
0820
0F18
3806
2002
ENDCHAR
STARTCHAR U+2ED4
ENCODING 11988
SWIDTH 1000 0
DWIDTH 16 0
BBX 15 16 0 -2
BITMAP
6404
27FE
1404
1004
C004
4004
4004
4004
4004
4004
4004
4004
4004
4004
401C
4008
ENDCHAR
STARTCHAR U+2ED5
ENCODING 11989
SWIDTH 1000 0
DWIDTH 16 0
BBX 12 16 2 -2
BITMAP
0C00
4840
FFE0
4040
7FC0
4000
7FE0
4040
4040
7FC0
4000
7FF0
4020
4020
7FE0
4020
ENDCHAR
STARTCHAR U+2ED6
ENCODING 11990
SWIDTH 1000 0
DWIDTH 16 0
BBX 6 16 5 -2
BITMAP
44
FC
44
48
48
50
50
48
44
44
64
58
40
40
40
C0
ENDCHAR
STARTCHAR U+2ED7
ENCODING 11991
SWIDTH 1000 0
DWIDTH 16 0
BBX 15 8 0 6
BITMAP
2008
3FF8
8102
FFFE
8102
BD7A
8102
3D78
ENDCHAR
STARTCHAR U+2ED8
ENCODING 11992
SWIDTH 1000 0
DWIDTH 16 0
BBX 15 16 0 -2
BITMAP
0300
2108
3FF8
2108
1FF0
8102
FFFE
8002
1FF0
0820
0FE0
0820
0FE0
0820
0860
0840
ENDCHAR
STARTCHAR U+2ED9
ENCODING 11993
SWIDTH 1000 0
DWIDTH 16 0
BBX 15 16 0 -2
BITMAP
0300
0100
4104
7FFC
4104
1110
1FF0
1110
8104
FFFE
8104
0104
011C
0108
0100
0300
ENDCHAR
STARTCHAR U+2EDA
ENCODING 11994
SWIDTH 1000 0
DWIDTH 16 0
BBX 15 16 0 -2
BITMAP
8002
FFFE
8102
0A20
1FF0
0820
0B20
0920
0920
0920
0920
0920
0280
0440
5834
600C
ENDCHAR
STARTCHAR U+2EDB
ENCODING 11995
SWIDTH 1000 0
DWIDTH 16 0
BBX 15 16 0 -2
BITMAP
2010
7FF8
2010
2190
2090
2890
2490
2290
2310
2110
2288
224A
446A
5824
D006
8002
ENDCHAR
STARTCHAR U+2EDC
ENCODING 11996
SWIDTH 1000 0
DWIDTH 16 0
BBX 15 16 0 -2
BITMAP
8040
FFE0
8040
0048
0058
0060
0040
0070
0048
004C
0044
0020
0020
0014
000C
0006
ENDCHAR
STARTCHAR U+2EDD
ENCODING 11997
SWIDTH 1000 0
DWIDTH 16 0
BBX 15 16 0 -2
BITMAP
0300
0280
0440
0B20
B11A
CFE6
0820
0FE0
0820
0820
0FE0
0918
08B0
0E40
7832
400E
ENDCHAR
STARTCHAR U+2EDE
ENCODING 11998
SWIDTH 1000 0
DWIDTH 16 0
BBX 7 16 4 -2
BITMAP
18
14
24
22
7E
80
FE
44
7C
44
7C
40
7C
40
7E
40
ENDCHAR
STARTCHAR U+2EDF
ENCODING 11999
SWIDTH 1000 0
DWIDTH 16 0
BBX 7 15 4 -1
BITMAP
30
10
28
56
D2
7C
44
7C
44
7C
54
48
48
7C
C4
ENDCHAR
STARTCHAR U+2EE0
ENCODING 12000
SWIDTH 1000 0
DWIDTH 16 0
BBX 7 15 4 -1
BITMAP
60
20
24
3E
44
C8
B0
20
20
20
20
20
2C
70
20
ENDCHAR
STARTCHAR U+2EE1
ENCODING 12001
SWIDTH 1000 0
DWIDTH 16 0
BBX 15 16 0 -2
BITMAP
318C
2108
4210
2108
9084
FFFE
8102
1210
3FF8
1010
1FF0
1010
1FF0
1010
1FF0
1010
ENDCHAR
STARTCHAR U+2EE2
ENCODING 12002
SWIDTH 1000 0
DWIDTH 16 0
BBX 15 16 0 -2
BITMAP
2020
3FF0
2020
0620
0420
0420
0840
0844
0FFE
0004
8024
FFE4
8024
0004
0038
0010
ENDCHAR
STARTCHAR U+2EE3
ENCODING 12003
SWIDTH 1000 0
DWIDTH 16 0
BBX 15 16 0 -2
BITMAP
0820
1FF0
0820
0FA0
8922
FFFE
8002
9FF2
0820
0FE0
0820
0FE0
0820
0820
08E0
0840
ENDCHAR
STARTCHAR U+2EE4
ENCODING 12004
SWIDTH 1000 0
DWIDTH 16 0
BBX 15 16 0 -2
BITMAP
0300
1210
3FF8
1110
1110
1FF0
1110
1110
1FF0
1220
0320
0558
09E8
1104
A104
C0FE
ENDCHAR
STARTCHAR U+2EE5
ENCODING 12005
SWIDTH 1000 0
DWIDTH 16 0
BBX 15 16 0 -2
BITMAP
0400
0440
07E0
0840
1090
BFF8
D110
1110
1FF0
1110
1110
1FF0
1010
8002
FFFE
8002
ENDCHAR
STARTCHAR U+2EE6
ENCODING 12006
SWIDTH 1000 0
DWIDTH 16 0
BBX 15 16 0 -2
BITMAP
0600
1420
3FF0
1020
1420
1620
1160
1140
1004
1FFE
1004
8024
FFE4
8004
0038
0010
ENDCHAR
STARTCHAR U+2EE7
ENCODING 12007
SWIDTH 1000 0
DWIDTH 16 0
BBX 14 16 1 -2
BITMAP
0C00
0404
07FC
0404
4410
FFF8
4090
5890
4510
4210
4510
4890
5050
4010
7FF0
4010
ENDCHAR
STARTCHAR U+2EE8
ENCODING 12008
SWIDTH 1000 0
DWIDTH 16 0
BBX 15 16 0 -2
BITMAP
0300
4104
7FFC
4104
3FF8
0100
8102
FFFE
8202
07F0
4820
7440
0280
0380
8C62
F01E
ENDCHAR
STARTCHAR U+2EE9
ENCODING 12009
SWIDTH 1000 0
DWIDTH 16 0
BBX 15 16 0 -2
BITMAP
06C0
2448
3FF8
2448
8442
FFFE
8102
3FF8
1110
1110
1FF0
1110
1110
1FF0
4824
701C
ENDCHAR
STARTCHAR U+2EEA
ENCODING 12010
SWIDTH 1000 0
DWIDTH 16 0
BBX 14 16 1 -2
BITMAP
2020
7FF0
2020
2020
3FE0
4210
FFF8
4210
7FF0
4210
4210
7FF0
4210
0208
0208
01FC
ENDCHAR
STARTCHAR U+2EEB
ENCODING 12011
SWIDTH 1000 0
DWIDTH 16 0
BBX 15 16 0 -2
BITMAP
0300
8102
FFFE
8822
0440
0380
9C72
E82E
0FE0
0820
0820
0FE0
1020
1020
A020
C060
ENDCHAR
STARTCHAR U+2EEC
ENCODING 12012
SWIDTH 1000 0
DWIDTH 16 0
BBX 15 16 0 -2
BITMAP
0300
8102
FFFE
8822
0820
0440
0380
9C72
E44E
0440
0440
0440
0840
0840
5040
60C0
ENDCHAR
STARTCHAR U+2EED
ENCODING 12013
SWIDTH 1000 0
DWIDTH 16 0
BBX 15 16 0 -2
BITMAP
0300
1910
09F0
8902
FFFE
8002
6B2C
2928
2548
3FF8
2548
2928
2928
2108
3FF8
2008
ENDCHAR
STARTCHAR U+2EEE
ENCODING 12014
SWIDTH 1000 0
DWIDTH 16 0
BBX 15 16 0 -2
BITMAP
0300
1908
09F8
0908
8902
FFFE
8002
630C
2108
2108
2288
2C68
2828
2008
3FF8
2008
ENDCHAR
STARTCHAR U+2EEF
ENCODING 12015
SWIDTH 1000 0
DWIDTH 16 0
BBX 15 16 0 -2
BITMAP
0300
4104
7FFC
4824
8442
FFFE
8002
1FF0
1110
1FF0
1110
1110
1FF4
1114
0104
00FE
ENDCHAR
STARTCHAR U+2EF0
ENCODING 12016
SWIDTH 1000 0
DWIDTH 16 0
BBX 15 16 0 -2
BITMAP
0600
02C0
0230
8202
FFFE
8202
0390
0510
0510
0520
0920
0940
1184
2B04
CD04
80FE
ENDCHAR
STARTCHAR U+2EF1
ENCODING 12017
SWIDTH 1000 0
DWIDTH 16 0
BBX 15 16 0 -2
BITMAP
0480
0FC0
1088
7FFC
2288
3EF8
4284
7AFC
8AD4
FEA4
0AB4
7ACC
8AFC
FE84
0A84
79FE
ENDCHAR
STARTCHAR U+2EF2
ENCODING 12018
SWIDTH 1000 0
DWIDTH 16 0
BBX 15 16 0 -2
BITMAP
0400
07E0
0890
BFF8
D110
1FF0
1110
1FF0
2108
7FFC
2108
3FF8
2108
3FF8
2104
00FE
ENDCHAR
STARTCHAR U+2EF3
ENCODING 12019
SWIDTH 1000 0
DWIDTH 16 0
BBX 15 16 0 -2
BITMAP
0440
07E0
0840
9080
E108
3FFC
2108
2108
3FF8
2108
2108
3FF8
2108
0104
0104
00FE
ENDCHAR
STARTCHAR U+2F00
ENCODING 12032
SWIDTH 1000 0
DWIDTH 16 0
BBX 15 3 0 5
BITMAP
8002
FFFE
8002
ENDCHAR
STARTCHAR U+2F01
ENCODING 12033
SWIDTH 1000 0
DWIDTH 16 0
BBX 2 16 6 -2
BITMAP
C0
40
40
40
40
40
40
40
40
40
40
40
40
40
40
C0
ENDCHAR
STARTCHAR U+2F02
ENCODING 12034
SWIDTH 1000 0
DWIDTH 16 0
BBX 8 7 3 3
BITMAP
C0
B0
08
04
02
03
01
ENDCHAR
STARTCHAR U+2F03
ENCODING 12035
SWIDTH 1000 0
DWIDTH 16 0
BBX 6 16 3 -2
BITMAP
1C
08
08
08
08
08
08
08
08
08
08
10
10
20
C0
80
ENDCHAR
STARTCHAR U+2F04
ENCODING 12036
SWIDTH 1000 0
DWIDTH 16 0
BBX 13 16 1 -2
BITMAP
8020
FFF0
8020
0040
0080
0100
0200
0400
0800
1000
2000
2000
4010
4010
4010
3FF8
ENDCHAR
STARTCHAR U+2F05
ENCODING 12037
SWIDTH 1000 0
DWIDTH 16 0
BBX 5 16 4 -2
BITMAP
38
10
10
10
10
10
10
10
10
10
10
10
10
10
F0
20
ENDCHAR
STARTCHAR U+2F06
ENCODING 12038
SWIDTH 1000 0
DWIDTH 16 0
BBX 15 12 0 0
BITMAP
2008
3FF8
2008
0000
0000
0000
0000
0000
0000
8002
FFFE
8002
ENDCHAR
STARTCHAR U+2F07
ENCODING 12039
SWIDTH 1000 0
DWIDTH 16 0
BBX 15 6 0 4
BITMAP
0380
0100
0100
8102
FFFE
8002
ENDCHAR
STARTCHAR U+2F08
ENCODING 12040
SWIDTH 1000 0
DWIDTH 16 0
BBX 15 16 0 -2
BITMAP
0300
0100
0100
0100
0100
0100
0100
0280
0280
0440
0440
0820
1010
2008
C006
8002
ENDCHAR
STARTCHAR U+2F09
ENCODING 12041
SWIDTH 1000 0
DWIDTH 16 0
BBX 15 16 0 -2
BITMAP
0EE0
0440
0440
0440
0440
0440
0440
0440
0440
0840
0840
0844
1044
2044
C044
803E
ENDCHAR
STARTCHAR U+2F0A
ENCODING 12042
SWIDTH 1000 0
DWIDTH 16 0
BBX 15 16 0 -2
BITMAP
0900
0F80
0900
0100
0100
0100
0280
0280
0280
0440
0440
0820
1010
2008
C006
8002
ENDCHAR
STARTCHAR U+2F0B
ENCODING 12043
SWIDTH 1000 0
DWIDTH 16 0
BBX 15 16 0 -2
BITMAP
0440
0440
0440
0440
0440
0440
0440
0820
0820
0820
1010
1010
2008
2008
C006
8002
ENDCHAR
STARTCHAR U+2F0C
ENCODING 12044
SWIDTH 1000 0
DWIDTH 16 0
BBX 15 16 0 -2
BITMAP
4004
FFFE
4004
4004
4004
4004
4004
4004
4004
4004
4004
4004
4004
4004
401C
E008
ENDCHAR
STARTCHAR U+2F0D
ENCODING 12045
SWIDTH 1000 0
DWIDTH 16 0
BBX 15 5 0 5
BITMAP
8002
FFFE
8002
8002
8002
ENDCHAR
STARTCHAR U+2F0E
ENCODING 12046
SWIDTH 1000 0
DWIDTH 16 0
BBX 6 16 4 -2
BITMAP
80
40
60
20
00
04
08
08
10
10
20
20
60
40
40
40
ENDCHAR
STARTCHAR U+2F0F
ENCODING 12047
SWIDTH 1000 0
DWIDTH 16 0
BBX 15 16 0 -2
BITMAP
0840
1FE0
0840
0840
0840
0840
0840
0840
0840
0840
1040
1044
1044
2044
C044
803E
ENDCHAR
STARTCHAR U+2F10
ENCODING 12048
SWIDTH 1000 0
DWIDTH 16 0
BBX 15 16 0 -2
BITMAP
E00E
4004
4004
4004
4004
4004
4004
4004
4004
4004
4004
4004
4004
4004
FFFE
4004
ENDCHAR
STARTCHAR U+2F11
ENCODING 12049
SWIDTH 1000 0
DWIDTH 16 0
BBX 15 16 0 -2
BITMAP
8004
FFFE
8204
0204
0204
0204
0204
0204
0204
0404
0404
0808
0808
1008
A070
C020
ENDCHAR
STARTCHAR U+2F12
ENCODING 12050
SWIDTH 1000 0
DWIDTH 16 0
BBX 15 16 0 -2
BITMAP
0300
0100
0100
8104
FFFE
8104
0104
0204
0204
0204
0404
0404
0808
1008
A070
C020
ENDCHAR
STARTCHAR U+2F13
ENCODING 12051
SWIDTH 1000 0
DWIDTH 16 0
BBX 15 16 0 -2
BITMAP
1800
0800
1004
1FFE
2004
2004
C004
8004
0004
0004
0004
0008
0008
0008
0070
0020
ENDCHAR
STARTCHAR U+2F14
ENCODING 12052
SWIDTH 1000 0
DWIDTH 16 0
BBX 13 16 1 -2
BITMAP
7000
2000
2000
2010
2030
2040
2180
2600
3800
E000
2000
2010
2010
2010
2010
1FF8
ENDCHAR
STARTCHAR U+2F15
ENCODING 12053
SWIDTH 1000 0
DWIDTH 16 0
BBX 15 16 0 -2
BITMAP
4004
FFFC
4004
4000
4000
4000
4000
4000
4000
4000
4000
4000
4000
4002
FFFE
4002
ENDCHAR
STARTCHAR U+2F16
ENCODING 12054
SWIDTH 1000 0
DWIDTH 16 0
BBX 15 15 0 -2
BITMAP
8002
FFFE
A002
2000
2000
2000
2000
2000
2000
2000
2000
2000
2002
1FFE
0002
ENDCHAR
STARTCHAR U+2F17
ENCODING 12055
SWIDTH 1000 0
DWIDTH 16 0
BBX 15 16 0 -2
BITMAP
0300
0100
0100
0100
0100
8102
FFFE
8102
0100
0100
0100
0100
0100
0100
0100
0300
ENDCHAR
STARTCHAR U+2F18
ENCODING 12056
SWIDTH 1000 0
DWIDTH 16 0
BBX 7 16 6 -2
BITMAP
C0
40
40
40
40
60
58
44
46
42
40
40
40
40
40
C0
ENDCHAR
STARTCHAR U+2F19
ENCODING 12057
SWIDTH 1000 0
DWIDTH 16 0
BBX 8 15 4 -2
BITMAP
42
FF
42
42
42
42
42
42
42
42
5E
44
40
40
E0
ENDCHAR
STARTCHAR U+2F1A
ENCODING 12058
SWIDTH 1000 0
DWIDTH 16 0
BBX 15 15 0 -1
BITMAP
2002
7FFE
2002
2000
2000
2000
2000
2000
2000
2000
2000
4000
4000
C000
8000
ENDCHAR
STARTCHAR U+2F1B
ENCODING 12059
SWIDTH 1000 0
DWIDTH 16 0
BBX 15 16 0 -2
BITMAP
0180
0080
0100
0100
0100
0200
0200
0200
0400
0420
0810
0808
1004
10FC
FF02
4002
ENDCHAR
STARTCHAR U+2F1C
ENCODING 12060
SWIDTH 1000 0
DWIDTH 16 0
BBX 15 16 0 -2
BITMAP
2010
3FF8
2010
0810
0820
0420
0440
0280
0280
0100
0280
0440
0820
3018
C006
8002
ENDCHAR
STARTCHAR U+2F1D
ENCODING 12061
SWIDTH 1000 0
DWIDTH 16 0
BBX 13 14 1 -1
BITMAP
4010
FFF8
4010
4010
4010
4010
4010
4010
4010
4010
4010
4010
7FF0
4010
ENDCHAR
STARTCHAR U+2F1E
ENCODING 12062
SWIDTH 1000 0
DWIDTH 16 0
BBX 15 16 0 -2
BITMAP
4004
FFFE
4004
4004
4004
4004
4004
4004
4004
4004
4004
4004
4004
4004
FFFE
4004
ENDCHAR
STARTCHAR U+2F1F
ENCODING 12063
SWIDTH 1000 0
DWIDTH 16 0
BBX 15 16 0 -2
BITMAP
0300
0100
0100
0100
0100
2108
3FF8
2108
0100
0100
0100
0100
0100
8102
FFFE
8002
ENDCHAR
STARTCHAR U+2F20
ENCODING 12064
SWIDTH 1000 0
DWIDTH 16 0
BBX 15 16 0 -2
BITMAP
0300
0100
0100
0100
0100
8102
FFFE
8102
0100
0100
0100
0100
0100
4104
7FFC
4004
ENDCHAR
STARTCHAR U+2F21
ENCODING 12065
SWIDTH 1000 0
DWIDTH 16 0
BBX 15 11 0 3
BITMAP
0400
0420
07F0
0820
1440
A280
C100
0280
0440
9832
E00E
ENDCHAR
STARTCHAR U+2F22
ENCODING 12066
SWIDTH 1000 0
DWIDTH 16 0
BBX 15 16 0 -2
BITMAP
0300
0108
61FC
2208
1210
1410
0820
0820
B440
C440
0280
0100
0280
0440
9832
E00E
ENDCHAR
STARTCHAR U+2F23
ENCODING 12067
SWIDTH 1000 0
DWIDTH 16 0
BBX 14 16 0 -2
BITMAP
0200
0208
03FC
0408
0408
0810
5610
6120
00A0
0040
0080
0100
0200
0C00
B000
C000
ENDCHAR
STARTCHAR U+2F24
ENCODING 12068
SWIDTH 1000 0
DWIDTH 16 0
BBX 15 16 0 -2
BITMAP
0300
0100
0100
8102
FFFE
8102
0100
0280
0280
0440
0440
0820
1010
2008
C006
8002
ENDCHAR
STARTCHAR U+2F25
ENCODING 12069
SWIDTH 1000 0
DWIDTH 16 0
BBX 15 16 0 -2
BITMAP
0300
0200
0200
0200
8402
FFFE
8422
0820
0820
1840
1640
0180
0260
0410
9808
E00C
ENDCHAR
STARTCHAR U+2F26
ENCODING 12070
SWIDTH 1000 0
DWIDTH 16 0
BBX 15 16 0 -2
BITMAP
2010
3FF8
2020
0040
0080
0300
8102
FFFE
8102
0100
0100
0100
0100
0100
0700
0200
ENDCHAR
STARTCHAR U+2F27
ENCODING 12071
SWIDTH 1000 0
DWIDTH 16 0
BBX 15 8 0 4
BITMAP
0380
0100
0100
8102
FFFE
8002
8002
8002
ENDCHAR
STARTCHAR U+2F28
ENCODING 12072
SWIDTH 1000 0
DWIDTH 16 0
BBX 15 16 0 -2
BITMAP
0060
0020
0020
8022
FFFE
8022
0020
1020
0820
0420
0420
0020
0020
0020
00E0
0040
ENDCHAR
STARTCHAR U+2F29
ENCODING 12073
SWIDTH 1000 0
DWIDTH 16 0
BBX 15 16 0 -2
BITMAP
0300
0100
0100
0100
0920
0920
0920
1110
1110
2108
C106
8102
0100
0100
0700
0200
ENDCHAR
STARTCHAR U+2F2A
ENCODING 12074
SWIDTH 1000 0
DWIDTH 16 0
BBX 15 16 0 -2
BITMAP
0380
0100
0100
8102
FFFE
8102
0100
02C0
0280
0280
0480
0484
0884
1084
A084
C07E
ENDCHAR
STARTCHAR U+2F2B
ENCODING 12075
SWIDTH 1000 0
DWIDTH 16 0
BBX 14 15 0 -1
BITMAP
1008
3FFC
1008
1008
1008
1FF8
1008
1000
1000
1000
2000
2000
4000
C000
8000
ENDCHAR
STARTCHAR U+2F2C
ENCODING 12076
SWIDTH 1000 0
DWIDTH 16 0
BBX 14 16 0 -2
BITMAP
0380
0100
711C
2108
2108
2108
2108
2108
2108
3FF8
2108
0200
0200
0400
9800
E000
ENDCHAR
STARTCHAR U+2F2D
ENCODING 12077
SWIDTH 1000 0
DWIDTH 16 0
BBX 14 16 0 -2
BITMAP
0300
0100
0100
0100
C10C
4104
4104
4104
4104
4104
4104
4104
4104
4104
7FFC
4004
ENDCHAR
STARTCHAR U+2F2E
ENCODING 12078
SWIDTH 1000 0
DWIDTH 16 0
BBX 15 16 0 -2
BITMAP
0842
0842
1084
1084
2108
2108
4210
C630
4210
2108
2108
1084
1084
0842
0842
0842
ENDCHAR
STARTCHAR U+2F2F
ENCODING 12079
SWIDTH 1000 0
DWIDTH 16 0
BBX 15 14 0 -1
BITMAP
4004
7FFC
4104
0100
0100
0100
0100
0100
0100
0100
0100
8102
FFFE
8002
ENDCHAR
STARTCHAR U+2F30
ENCODING 12080
SWIDTH 1000 0
DWIDTH 16 0
BBX 14 16 1 -2
BITMAP
8020
FFF0
8020
0020
0020
4020
FFE0
4020
4000
4000
4000
4000
4008
4008
4008
3FFC
ENDCHAR
STARTCHAR U+2F31
ENCODING 12081
SWIDTH 1000 0
DWIDTH 16 0
BBX 13 16 1 -2
BITMAP
0600
0200
4210
FFF8
4210
4210
4210
4210
4210
4210
4270
4220
0200
0200
0200
0600
ENDCHAR
STARTCHAR U+2F32
ENCODING 12082
SWIDTH 1000 0
DWIDTH 16 0
BBX 15 16 0 -2
BITMAP
4004
7FFC
4104
0100
0100
8102
FFFE
8102
0100
0100
0100
0100
0100
0100
0100
0300
ENDCHAR
STARTCHAR U+2F33
ENCODING 12083
SWIDTH 1000 0
DWIDTH 16 0
BBX 15 16 0 -2
BITMAP
0300
0200
0200
0400
0460
0840
0880
3F80
2100
0240
0220
0410
0808
11FC
FE06
4002
ENDCHAR
STARTCHAR U+2F34
ENCODING 12084
SWIDTH 1000 0
DWIDTH 16 0
BBX 15 15 0 -1
BITMAP
0380
2102
7FFE
2002
2000
2000
2000
2000
2000
2000
2000
4000
4000
C000
8000
ENDCHAR
STARTCHAR U+2F35
ENCODING 12085
SWIDTH 1000 0
DWIDTH 16 0
BBX 15 16 0 -2
BITMAP
8800
FC00
8800
1000
1000
2400
7E00
4400
2400
2800
2800
1000
1000
2800
C602
81FE
ENDCHAR
STARTCHAR U+2F36
ENCODING 12086
SWIDTH 1000 0
DWIDTH 16 0
BBX 15 16 0 -2
BITMAP
0E70
0420
0420
0420
0420
8422
FFFE
8422
0420
0420
0820
0820
1020
2020
C020
8070
ENDCHAR
STARTCHAR U+2F37
ENCODING 12087
SWIDTH 1000 0
DWIDTH 16 0
BBX 15 16 0 -2
BITMAP
0700
0260
0218
8202
FFFE
8202
0200
0100
0100
0100
0080
0080
0044
0024
0014
000E
ENDCHAR
STARTCHAR U+2F38
ENCODING 12088
SWIDTH 1000 0
DWIDTH 16 0
BBX 15 16 0 -2
BITMAP
8010
FFF8
0010
2010
3FF0
2010
2000
2004
7FFE
4004
0004
0004
0008
0008
0070
0020
ENDCHAR
STARTCHAR U+2F39
ENCODING 12089
SWIDTH 1000 0
DWIDTH 16 0
BBX 14 16 1 -2
BITMAP
4008
7FFC
4008
0008
0008
0008
2008
3FF8
2008
0008
0008
0008
0008
8008
FFF8
8008
ENDCHAR
STARTCHAR U+2F3A
ENCODING 12090
SWIDTH 1000 0
DWIDTH 16 0
BBX 12 16 2 -2
BITMAP
0180
0100
0200
0400
18C0
6080
0100
0200
0430
1820
6040
0080
0100
0600
1800
E000
ENDCHAR
STARTCHAR U+2F3B
ENCODING 12091
SWIDTH 1000 0
DWIDTH 16 0
BBX 10 16 2 -2
BITMAP
0100
0200
0400
0800
B040
C080
0100
0200
0C00
B400
C400
0400
0400
0400
0400
0C00
ENDCHAR
STARTCHAR U+2F3C
ENCODING 12092
SWIDTH 1000 0
DWIDTH 16 0
BBX 15 16 0 -2
BITMAP
0200
0100
0080
0080
0480
0408
0404
2402
2402
2402
2400
4400
C410
8410
0410
03F8
ENDCHAR
STARTCHAR U+2F3D
ENCODING 12093
SWIDTH 1000 0
DWIDTH 16 0
BBX 15 16 0 -2
BITMAP
0660
0210
0208
8202
FFFE
8202
0118
0110
0120
00C0
0080
0144
0244
4C24
7014
000E
ENDCHAR
STARTCHAR U+2F3E
ENCODING 12094
SWIDTH 1000 0
DWIDTH 16 0
BBX 13 16 0 -2
BITMAP
0018
10E8
3F00
1010
1FF8
1010
1010
1010
1FF0
1010
1000
1000
2000
2000
C000
8000
ENDCHAR
STARTCHAR U+2F3F
ENCODING 12095
SWIDTH 1000 0
DWIDTH 16 0
BBX 15 16 0 -2
BITMAP
2038
3FC8
2100
0100
4104
7FFC
4104
0100
8102
FFFE
8102
0100
0100
0100
0700
0200
ENDCHAR
STARTCHAR U+2F40
ENCODING 12096
SWIDTH 1000 0
DWIDTH 16 0
BBX 15 16 0 -2
BITMAP
0300
0100
8102
FFFE
8102
0100
2110
3FF8
2810
0820
0440
0280
0100
06C0
9832
E00E
ENDCHAR
STARTCHAR U+2F41
ENCODING 12097
SWIDTH 1000 0
DWIDTH 16 0
BBX 15 16 0 -2
BITMAP
0380
0100
0104
01FC
0104
2110
3FF8
2810
0820
0420
0440
0280
0100
06C0
9832
E00E
ENDCHAR
STARTCHAR U+2F42
ENCODING 12098
SWIDTH 1000 0
DWIDTH 16 0
BBX 15 16 0 -2
BITMAP
0300
0100
8102
FFFE
8822
0820
0820
0440
0440
0280
0100
0280
0440
0820
B01A
C006
ENDCHAR
STARTCHAR U+2F43
ENCODING 12099
SWIDTH 1000 0
DWIDTH 16 0
BBX 15 16 0 -2
BITMAP
00C0
0840
0440
0240
2240
1040
0840
0842
005E
01E0
9E40
E040
0040
0040
0040
00C0
ENDCHAR
STARTCHAR U+2F44
ENCODING 12100
SWIDTH 1000 0
DWIDTH 16 0
BBX 15 16 0 -2
BITMAP
0038
11C8
3E00
1000
1000
1002
1FFE
1042
1040
1040
1040
2040
2040
C040
8040
00C0
ENDCHAR
STARTCHAR U+2F45
ENCODING 12101
SWIDTH 1000 0
DWIDTH 16 0
BBX 15 16 0 -2
BITMAP
0300
0100
8102
FFFE
8202
0200
0210
03F8
0210
0210
0410
0410
0820
1020
61C0
4080
ENDCHAR
STARTCHAR U+2F46
ENCODING 12102
SWIDTH 1000 0
DWIDTH 16 0
BBX 15 16 0 -2
BITMAP
4004
7FFC
4104
0100
0100
8102
FFFE
8102
0100
02C0
0280
0484
0484
0884
B084
C07E
ENDCHAR
STARTCHAR U+2F47
ENCODING 12103
SWIDTH 1000 0
DWIDTH 16 0
BBX 11 14 2 -1
BITMAP
4040
FFE0
4040
4040
4040
4040
7FC0
4040
4040
4040
4040
4040
7FC0
4040
ENDCHAR
STARTCHAR U+2F48
ENCODING 12104
SWIDTH 1000 0
DWIDTH 16 0
BBX 13 16 1 -2
BITMAP
4010
FFF8
4010
4010
4010
4010
4050
7FD0
4050
4010
4010
4010
4010
4010
7FF0
4010
ENDCHAR
STARTCHAR U+2F49
ENCODING 12105
SWIDTH 1000 0
DWIDTH 16 0
BBX 12 16 1 -2
BITMAP
1020
3FF0
1020
1020
1020
1FE0
1020
1020
1020
1FE0
1020
1020
2020
2020
C1E0
8040
ENDCHAR
STARTCHAR U+2F4A
ENCODING 12106
SWIDTH 1000 0
DWIDTH 16 0
BBX 15 16 0 -2
BITMAP
0300
0100
8102
FFFE
8102
0380
0540
0540
0920
1110
A10A
C106
0100
0100
0100
0300
ENDCHAR
STARTCHAR U+2F4B
ENCODING 12107
SWIDTH 1000 0
DWIDTH 16 0
BBX 15 16 0 -2
BITMAP
0800
0800
0804
1FFE
1108
2110
C120
8140
0280
0280
0440
0440
0820
1010
A00A
C006
ENDCHAR
STARTCHAR U+2F4C
ENCODING 12108
SWIDTH 1000 0
DWIDTH 16 0
BBX 15 16 0 -2
BITMAP
0300
0100
0100
0100
3100
1108
11F8
1108
1100
1100
1100
1100
1100
9102
FFFE
8002
ENDCHAR
STARTCHAR U+2F4D
ENCODING 12109
SWIDTH 1000 0
DWIDTH 16 0
BBX 15 16 0 -2
BITMAP
8002
FFFE
8202
0200
0410
0FF8
1010
A020
D820
0440
0280
0100
0200
0C00
B000
C000
ENDCHAR
STARTCHAR U+2F4E
ENCODING 12110
SWIDTH 1000 0
DWIDTH 16 0
BBX 15 16 0 -2
BITMAP
0820
1FF0
0820
0820
0820
1020
A01E
C000
3FF0
2820
0440
0280
0100
06C0
9832
E00E
ENDCHAR
STARTCHAR U+2F4F
ENCODING 12111
SWIDTH 1000 0
DWIDTH 16 0
BBX 15 16 0 -2
BITMAP
1010
3FF8
1110
1110
1110
9112
FFFE
A222
2220
2220
2224
7FFC
2424
0820
91E0
E040
ENDCHAR
STARTCHAR U+2F50
ENCODING 12112
SWIDTH 1000 0
DWIDTH 16 0
BBX 15 16 0 -2
BITMAP
6180
2080
2080
2080
228C
3E98
22E0
2080
2080
2080
2080
2080
2684
3884
E084
807E
ENDCHAR
STARTCHAR U+2F51
ENCODING 12113
SWIDTH 1000 0
DWIDTH 16 0
BBX 15 16 0 -2
BITMAP
0030
11E0
1E00
0200
4208
7FF8
4208
0200
8204
FFFC
8204
0200
0204
0204
0204
01FE
ENDCHAR
STARTCHAR U+2F52
ENCODING 12114
SWIDTH 1000 0
DWIDTH 16 0
BBX 15 16 0 -2
BITMAP
0018
21F0
7F00
2100
2100
2102
3FFE
2082
2080
2080
2040
2040
2324
3C14
E00C
8006
ENDCHAR
STARTCHAR U+2F53
ENCODING 12115
SWIDTH 1000 0
DWIDTH 16 0
BBX 15 16 0 -2
BITMAP
0800
0804
1FFC
1004
2FF8
C008
8010
7FF8
4010
0010
0010
0012
0012
000A
000A
0006
ENDCHAR
STARTCHAR U+2F54
ENCODING 12116
SWIDTH 1000 0
DWIDTH 16 0
BBX 15 16 0 -2
BITMAP
0300
0100
0100
0100
858C
FD88
0550
0560
0940
0920
1120
2110
C10A
8106
0700
0200
ENDCHAR
STARTCHAR U+2F55
ENCODING 12117
SWIDTH 1000 0
DWIDTH 16 0
BBX 15 16 0 -2
BITMAP
0300
0100
0100
610C
2108
1110
0920
0100
0280
0280
0440
0440
0820
1010
A00A
C006
ENDCHAR
STARTCHAR U+2F56
ENCODING 12118
SWIDTH 1000 0
DWIDTH 16 0
BBX 15 16 0 -2
BITMAP
0008
1078
3F90
1010
1310
1110
1110
1110
1110
1108
1108
2108
2108
4104
C106
8302
ENDCHAR
STARTCHAR U+2F57
ENCODING 12119
SWIDTH 1000 0
DWIDTH 16 0
BBX 15 16 0 -2
BITMAP
0440
0440
0820
1010
A00A
C826
0820
0440
0440
0280
0100
0280
0440
0820
B01A
C006
ENDCHAR
STARTCHAR U+2F58
ENCODING 12120
SWIDTH 1000 0
DWIDTH 16 0
BBX 15 16 0 -2
BITMAP
3030
0C20
0240
01C0
0220
0C10
7058
0440
0440
0280
0280
0100
0280
0440
9832
E00E
ENDCHAR
STARTCHAR U+2F59
ENCODING 12121
SWIDTH 1000 0
DWIDTH 16 0
BBX 12 16 0 -2
BITMAP
1C30
0810
0810
0810
0810
0FF0
0810
8010
FFF0
8410
0410
0810
0810
1010
A010
C030
ENDCHAR
STARTCHAR U+2F5A
ENCODING 12122
SWIDTH 1000 0
DWIDTH 16 0
BBX 15 16 0 -2
BITMAP
3180
1080
1080
1082
1FFE
1002
1000
1040
1FE0
2040
2040
2040
4040
C040
8040
00C0
ENDCHAR
STARTCHAR U+2F5B
ENCODING 12123
SWIDTH 1000 0
DWIDTH 16 0
BBX 15 16 0 -2
BITMAP
2004
3FFC
2044
0C40
0840
0842
1FFE
1142
0140
0240
0440
0840
B040
C040
01C0
0080
ENDCHAR
STARTCHAR U+2F5C
ENCODING 12124
SWIDTH 1000 0
DWIDTH 16 0
BBX 15 16 0 -2
BITMAP
0300
3100
1104
1FFC
2104
2100
4100
8102
FFFE
8102
0100
0100
0100
0100
0100
0300
ENDCHAR
STARTCHAR U+2F5D
ENCODING 12125
SWIDTH 1000 0
DWIDTH 16 0
BBX 15 16 0 -2
BITMAP
0360
0110
0108
8102
FFFE
8102
0100
0100
0280
0280
0440
0440
0820
1010
A00A
C006
ENDCHAR
STARTCHAR U+2F5E
ENCODING 12126
SWIDTH 1000 0
DWIDTH 16 0
BBX 15 16 0 -2
BITMAP
0300
0100
8102
FFFE
8202
0200
0460
0840
3F80
2100
0220
0210
0408
09FC
FE04
8004
ENDCHAR
STARTCHAR U+2F5F
ENCODING 12127
SWIDTH 1000 0
DWIDTH 16 0
BBX 15 16 0 -2
BITMAP
4004
7FFC
4104
0100
0100
0100
2108
3FF8
2108
0120
0110
0108
0108
8102
FFFE
8002
ENDCHAR
STARTCHAR U+2F60
ENCODING 12128
SWIDTH 1000 0
DWIDTH 16 0
BBX 15 16 0 -2
BITMAP
000C
10F4
3F10
1010
1310
1110
1110
1110
1110
1188
2148
2128
21E8
5E14
C816
8002
ENDCHAR
STARTCHAR U+2F61
ENCODING 12129
SWIDTH 1000 0
DWIDTH 16 0
BBX 15 16 0 -2
BITMAP
8002
FFFE
8802
0800
0840
0FE0
0840
0840
1640
1140
1140
1044
13C4
1C44
E044
803E
ENDCHAR
STARTCHAR U+2F62
ENCODING 12130
SWIDTH 1000 0
DWIDTH 16 0
BBX 15 16 0 -2
BITMAP
1860
0820
0820
8822
FFFE
8822
0820
0820
0820
0FE0
0820
0820
0820
0820
0FE0
0820
ENDCHAR
STARTCHAR U+2F63
ENCODING 12131
SWIDTH 1000 0
DWIDTH 16 0
BBX 15 16 0 -2
BITMAP
0300
1900
1100
1108
1FF8
2108
2100
C100
A110
3FF0
2110
0100
0100
8102
FFFE
8002
ENDCHAR
STARTCHAR U+2F64
ENCODING 12132
SWIDTH 1000 0
DWIDTH 16 0
BBX 14 16 0 -2
BITMAP
1008
3FFC
1108
1108
1108
1FF8
1108
1108
1108
1FF8
1108
1108
2108
2108
C138
8010
ENDCHAR
STARTCHAR U+2F65
ENCODING 12133
SWIDTH 1000 0
DWIDTH 16 0
BBX 13 14 1 -1
BITMAP
4010
FFF8
4210
4210
4210
4210
7FF0
4210
4210
4210
4210
4210
7FF0
4010
ENDCHAR
STARTCHAR U+2F66
ENCODING 12134
SWIDTH 1000 0
DWIDTH 16 0
BBX 15 16 0 -2
BITMAP
8004
FFFE
8104
0108
0110
3100
1108
11F8
1108
1100
1100
2900
2500
4500
C302
80FE
ENDCHAR
STARTCHAR U+2F67
ENCODING 12135
SWIDTH 1000 0
DWIDTH 16 0
BBX 15 15 0 -1
BITMAP
0180
2082
7FFE
2002
A000
E000
2000
2000
E000
A000
2000
2000
4000
4000
8000
ENDCHAR
STARTCHAR U+2F68
ENCODING 12136
SWIDTH 1000 0
DWIDTH 16 0
BBX 15 8 0 3
BITMAP
0100
1F10
2290
22A4
1444
0828
B01A
C006
ENDCHAR
STARTCHAR U+2F69
ENCODING 12137
SWIDTH 1000 0
DWIDTH 16 0
BBX 11 16 2 -2
BITMAP
0C00
0800
5040
FFE0
4040
4040
4040
4040
7FC0
4040
4040
4040
4040
4040
7FC0
4040
ENDCHAR
STARTCHAR U+2F6A
ENCODING 12138
SWIDTH 1000 0
DWIDTH 16 0
BBX 15 16 0 -2
BITMAP
0300
0100
2108
7FFC
2108
2110
2100
3FF8
2410
2420
2220
4140
4080
C140
A632
380E
ENDCHAR
STARTCHAR U+2F6B
ENCODING 12139
SWIDTH 1000 0
DWIDTH 16 0
BBX 15 14 0 -1
BITMAP
2008
7FFC
2448
2448
2448
2448
2448
2448
2448
2448
2448
A44A
FFFE
8002
ENDCHAR
STARTCHAR U+2F6C
ENCODING 12140
SWIDTH 1000 0
DWIDTH 16 0
BBX 11 16 2 -2
BITMAP
4040
FFE0
4040
4040
4040
7FC0
4040
4040
4040
7FC0
4040
4040
4040
4040
7FC0
4040
ENDCHAR
STARTCHAR U+2F6D
ENCODING 12141
SWIDTH 1000 0
DWIDTH 16 0
BBX 15 16 0 -2
BITMAP
1010
1FF8
1420
0240
0280
8104
FFFE
8108
0310
0520
0900
1100
A100
C100
0700
0200
ENDCHAR
STARTCHAR U+2F6E
ENCODING 12142
SWIDTH 1000 0
DWIDTH 16 0
BBX 15 16 0 -2
BITMAP
0800
0808
1FF8
1108
6100
4100
8102
FFFE
8102
0280
0280
0440
0820
1010
A00A
C006
ENDCHAR
STARTCHAR U+2F6F
ENCODING 12143
SWIDTH 1000 0
DWIDTH 16 0
BBX 15 16 0 -2
BITMAP
8002
FFFE
8202
0200
0400
0400
0810
1FF8
2810
C810
8810
0810
0810
0810
0FF0
0810
ENDCHAR
STARTCHAR U+2F70
ENCODING 12144
SWIDTH 1000 0
DWIDTH 16 0
BBX 15 16 0 -2
BITMAP
2008
3FF8
2008
0000
0000
8002
FFFE
8102
0100
0920
1110
1110
A10A
C106
0700
0200
ENDCHAR
STARTCHAR U+2F71
ENCODING 12145
SWIDTH 1000 0
DWIDTH 16 0
BBX 14 16 1 -2
BITMAP
0600
0200
4208
FFFC
4208
4208
4208
4448
4448
49E8
5E28
5008
4008
4008
4038
4010
ENDCHAR
STARTCHAR U+2F72
ENCODING 12146
SWIDTH 1000 0
DWIDTH 16 0
BBX 15 16 0 -2
BITMAP
2078
3F88
2100
0100
8102
FFFE
8102
0380
0540
0540
0920
1110
A10A
C106
0100
0300
ENDCHAR
STARTCHAR U+2F73
ENCODING 12147
SWIDTH 1000 0
DWIDTH 16 0
BBX 15 16 0 -2
BITMAP
0300
0100
8102
FFFE
8002
8002
0440
0440
0440
0440
0820
0820
1010
2008
C006
8002
ENDCHAR
STARTCHAR U+2F74
ENCODING 12148
SWIDTH 1000 0
DWIDTH 16 0
BBX 15 16 0 -2
BITMAP
0300
0100
4104
7FFC
4004
1010
1010
0810
0820
0420
0420
0440
0040
8082
FFFE
8002
ENDCHAR
STARTCHAR U+2F75
ENCODING 12149
SWIDTH 1000 0
DWIDTH 16 0
BBX 15 16 0 -2
BITMAP
1040
1040
1242
3EFE
2892
CB10
8A10
0810
0810
0810
0810
0810
0810
0810
0870
1820
ENDCHAR
STARTCHAR U+2F76
ENCODING 12150
SWIDTH 1000 0
DWIDTH 16 0
BBX 15 16 0 -2
BITMAP
0300
3118
1110
0920
0920
8102
FFFE
8102
0380
0540
0920
1110
A10A
C106
0100
0300
ENDCHAR
STARTCHAR U+2F77
ENCODING 12151
SWIDTH 1000 0
DWIDTH 16 0
BBX 15 16 0 -2
BITMAP
0300
0230
0420
0840
3F80
20A0
0110
0208
04FC
7F02
4102
0920
1110
E10E
8702
0200
ENDCHAR
STARTCHAR U+2F78
ENCODING 12152
SWIDTH 1000 0
DWIDTH 16 0
BBX 15 16 0 -2
BITMAP
0800
0808
0FF8
1108
6100
4100
8102
FFFE
8102
2108
2108
2108
2108
2108
3FF8
2008
ENDCHAR
STARTCHAR U+2F79
ENCODING 12153
SWIDTH 1000 0
DWIDTH 16 0
BBX 15 16 0 -2
BITMAP
4004
FFFE
4444
4444
4444
5544
4CC4
4444
4664
4554
4954
4894
5084
6104
421C
4008
ENDCHAR
STARTCHAR U+2F7A
ENCODING 12154
SWIDTH 1000 0
DWIDTH 16 0
BBX 15 16 0 -2
BITMAP
0C60
0440
4084
7FFC
4104
2108
3FF8
2108
0100
8102
FFFE
8102
0100
0100
0100
0300
ENDCHAR
STARTCHAR U+2F7B
ENCODING 12155
SWIDTH 1000 0
DWIDTH 16 0
BBX 15 16 0 -2
BITMAP
8284
FEFE
0204
0204
4284
2244
1224
1224
0204
0A0C
3234
C2C4
0204
0204
0E1C
0408
ENDCHAR
STARTCHAR U+2F7C
ENCODING 12156
SWIDTH 1000 0
DWIDTH 16 0
BBX 15 16 0 -2
BITMAP
0300
0100
2118
3FF0
2120
8142
FFFE
8102
0210
0430
0CC0
B700
C408
0408
0408
03FC
ENDCHAR
STARTCHAR U+2F7D
ENCODING 12157
SWIDTH 1000 0
DWIDTH 16 0
BBX 15 16 0 -2
BITMAP
8002
FFFE
8102
0200
4404
FFFE
4444
4444
4444
4444
4444
4444
4444
4444
445C
4008
ENDCHAR
STARTCHAR U+2F7E
ENCODING 12158
SWIDTH 1000 0
DWIDTH 16 0
BBX 15 16 0 -2
BITMAP
0300
4104
7FFC
4104
2108
3FF8
2108
8102
FFFE
8102
0380
0540
0920
B11A
C106
0300
ENDCHAR
STARTCHAR U+2F7F
ENCODING 12159
SWIDTH 1000 0
DWIDTH 16 0
BBX 15 16 0 -2
BITMAP
8002
FFFE
8822
0820
0FE0
0820
0820
0820
0FE0
0820
0822
083E
8FE0
F820
0020
0060
ENDCHAR
STARTCHAR U+2F80
ENCODING 12160
SWIDTH 1000 0
DWIDTH 16 0
BBX 15 16 0 -2
BITMAP
0300
2108
3FF8
810A
FFFE
810A
3FF8
2108
4104
7FFC
4104
8102
FFFE
8102
0100
0300
ENDCHAR
STARTCHAR U+2F81
ENCODING 12161
SWIDTH 1000 0
DWIDTH 16 0
BBX 13 16 1 -2
BITMAP
0600
0200
4210
FFF8
4210
4510
4510
5AD0
5250
4210
4510
58D0
5050
4010
4070
4020
ENDCHAR
STARTCHAR U+2F82
ENCODING 12162
SWIDTH 1000 0
DWIDTH 16 0
BBX 15 16 0 -2
BITMAP
4004
FFFC
4204
4200
4210
7FF8
4010
4010
4010
7FF0
4210
4200
4200
4202
7FFE
4002
ENDCHAR
STARTCHAR U+2F83
ENCODING 12163
SWIDTH 1000 0
DWIDTH 16 0
BBX 11 16 2 -2
BITMAP
0C00
4840
FFE0
4040
4040
4040
7FC0
4040
4040
4040
7FC0
4040
4040
4040
7FC0
4040
ENDCHAR
STARTCHAR U+2F84
ENCODING 12164
SWIDTH 1000 0
DWIDTH 16 0
BBX 15 16 0 -2
BITMAP
8002
FFFE
8202
0220
0410
04F8
7F04
2004
0300
2108
3FF8
2108
0100
8102
FFFE
8002
ENDCHAR
STARTCHAR U+2F85
ENCODING 12165
SWIDTH 1000 0
DWIDTH 16 0
BBX 13 16 1 -2
BITMAP
0400
0D10
F5F8
4110
4010
4010
4010
4510
7DF0
4510
4010
4010
4010
4010
7FF0
4010
ENDCHAR
STARTCHAR U+2F86
ENCODING 12166
SWIDTH 1000 0
DWIDTH 16 0
BBX 15 16 0 -2
BITMAP
0038
3FC8
2100
0100
8102
FFFE
8102
0100
1110
3FF8
1010
1010
1010
1010
1FF0
1010
ENDCHAR
STARTCHAR U+2F87
ENCODING 12167
SWIDTH 1000 0
DWIDTH 16 0
BBX 15 16 0 -2
BITMAP
1030
1010
1214
1EFC
1214
2290
2290
6492
D5FE
0912
0810
1010
1010
2010
C010
8030
ENDCHAR
STARTCHAR U+2F88
ENCODING 12168
SWIDTH 1000 0
DWIDTH 16 0
BBX 15 16 0 -2
BITMAP
0300
0A20
1FF0
0A20
0A20
0920
8922
FFFE
8822
0B20
0920
1120
1120
2020
C0E0
8040
ENDCHAR
STARTCHAR U+2F89
ENCODING 12169
SWIDTH 1000 0
DWIDTH 16 0
BBX 14 16 1 -2
BITMAP
1020
3FF0
1020
1020
1FE0
1020
1020
1FE0
1218
1110
1120
10A0
1040
1E30
E00C
8004
ENDCHAR
STARTCHAR U+2F8A
ENCODING 12170
SWIDTH 1000 0
DWIDTH 16 0
BBX 15 16 0 -2
BITMAP
0200
0240
07E0
0840
1090
FFF8
A110
2110
2110
3FF0
2010
2000
2004
2004
2004
1FFE
ENDCHAR
STARTCHAR U+2F8B
ENCODING 12171
SWIDTH 1000 0
DWIDTH 16 0
BBX 15 16 0 -2
BITMAP
3030
1010
1010
D6D6
9292
9292
9292
9292
9292
FEFE
9292
1010
2010
2010
C010
8030
ENDCHAR
STARTCHAR U+2F8C
ENCODING 12172
SWIDTH 1000 0
DWIDTH 16 0
BBX 15 16 0 -2
BITMAP
0300
0104
01FC
0104
2102
7FFE
2004
2308
2904
2FFC
2904
2100
4104
C104
8104
00FE
ENDCHAR
STARTCHAR U+2F8D
ENCODING 12173
SWIDTH 1000 0
DWIDTH 16 0
BBX 15 16 0 -2
BITMAP
0300
0100
2108
7FFC
2108
2108
2108
2108
3FF8
2108
0120
0110
0108
01FC
FF02
4002
ENDCHAR
STARTCHAR U+2F8E
ENCODING 12174
SWIDTH 1000 0
DWIDTH 16 0
BBX 15 16 0 -2
BITMAP
0300
0200
0200
2408
7FFC
2448
2448
2448
2448
2448
2448
2448
2448
A44A
FFFE
8002
ENDCHAR
STARTCHAR U+2F8F
ENCODING 12175
SWIDTH 1000 0
DWIDTH 16 0
BBX 15 16 0 -2
BITMAP
1204
13FC
2204
C800
8802
17FE
1412
3010
D010
9010
1010
1010
1010
1010
1070
3020
ENDCHAR
STARTCHAR U+2F90
ENCODING 12176
SWIDTH 1000 0
DWIDTH 16 0
BBX 15 16 0 -2
BITMAP
0300
0100
8102
FFFE
8102
0280
048C
0898
B060
D040
1020
1020
1310
1C08
7006
4002
ENDCHAR
STARTCHAR U+2F91
ENCODING 12177
SWIDTH 1000 0
DWIDTH 16 0
BBX 15 16 0 -2
BITMAP
8002
FFFE
8442
0440
4444
FFFE
4444
4444
4444
4444
47C4
4444
4004
4004
4004
4004
ENDCHAR
STARTCHAR U+2F92
ENCODING 12178
SWIDTH 1000 0
DWIDTH 16 0
BBX 15 16 0 -2
BITMAP
0820
1FF0
0820
0820
0FE0
0820
0820
0FE0
0820
0820
0FE0
04A0
0484
0884
B084
C07E
ENDCHAR
STARTCHAR U+2F93
ENCODING 12179
SWIDTH 1000 0
DWIDTH 16 0
BBX 13 16 1 -2
BITMAP
0400
07E0
0840
1090
BFF8
D110
1110
1FF0
1110
1110
1FF0
1110
2110
2310
C070
8020
ENDCHAR
STARTCHAR U+2F94
ENCODING 12180
SWIDTH 1000 0
DWIDTH 16 0
BBX 15 16 0 -2
BITMAP
0300
0100
8102
FFFE
8002
1FF0
0000
1FF0
0000
1010
3FF8
1010
1010
1010
1FF0
1010
ENDCHAR
STARTCHAR U+2F95
ENCODING 12181
SWIDTH 1000 0
DWIDTH 16 0
BBX 15 16 0 -2
BITMAP
0440
0820
1010
630C
0280
0440
0820
B01A
C826
1FF0
0820
0820
0820
0820
0FE0
0820
ENDCHAR
STARTCHAR U+2F96
ENCODING 12182
SWIDTH 1000 0
DWIDTH 16 0
BBX 15 16 0 -2
BITMAP
4004
7FFC
4004
1010
3FF8
1010
1010
1010
1FF0
1010
0820
0820
0440
8442
FFFE
8002
ENDCHAR
STARTCHAR U+2F97
ENCODING 12183
SWIDTH 1000 0
DWIDTH 16 0
BBX 15 16 0 -2
BITMAP
8002
FFFE
8202
0400
0A18
B110
C320
0CC0
31A0
C2A0
0490
1888
E086
8102
0700
0200
ENDCHAR
STARTCHAR U+2F98
ENCODING 12184
SWIDTH 1000 0
DWIDTH 16 0
BBX 12 16 1 -2
BITMAP
00C0
0180
0650
7830
44C0
0300
9C80
E140
0240
0CA0
70A0
0320
0C20
7040
01C0
0080
ENDCHAR
STARTCHAR U+2F99
ENCODING 12185
SWIDTH 1000 0
DWIDTH 16 0
BBX 15 16 0 -2
BITMAP
1010
3FF8
1010
1010
1FF0
1010
1010
1FF0
1010
1010
1010
1FF0
1010
0440
9832
E00E
ENDCHAR
STARTCHAR U+2F9A
ENCODING 12186
SWIDTH 1000 0
DWIDTH 16 0
BBX 15 16 0 -2
BITMAP
0300
0100
2108
3FF8
2108
8102
FFFE
8442
0440
1450
2448
4444
C846
0840
31C0
2080
ENDCHAR
STARTCHAR U+2F9B
ENCODING 12187
SWIDTH 1000 0
DWIDTH 16 0
BBX 15 16 0 -2
BITMAP
0300
0100
2108
3FF8
2108
8102
FFFE
8102
0100
1908
11F8
1108
1100
2900
C702
81FE
ENDCHAR
STARTCHAR U+2F9C
ENCODING 12188
SWIDTH 1000 0
DWIDTH 16 0
BBX 15 16 0 -2
BITMAP
0820
1FF0
0820
0820
0820
0820
0FE0
0920
0100
1908
09F8
0908
1900
2500
C302
80FE
ENDCHAR
STARTCHAR U+2F9D
ENCODING 12189
SWIDTH 1000 0
DWIDTH 16 0
BBX 15 16 0 -2
BITMAP
0300
0A20
1FF0
0820
0FE0
0820
0826
0FE4
0828
0830
3FE0
20A0
0320
9C20
E0E0
0040
ENDCHAR
STARTCHAR U+2F9E
ENCODING 12190
SWIDTH 1000 0
DWIDTH 16 0
BBX 15 16 0 -2
BITMAP
0300
4104
7FFC
4104
3FF8
1110
1110
1FF0
1110
1110
1FF0
8102
FFFE
8102
0100
0300
ENDCHAR
STARTCHAR U+2F9F
ENCODING 12191
SWIDTH 1000 0
DWIDTH 16 0
BBX 15 16 0 -2
BITMAP
0300
2108
3FF8
2828
0440
8442
FFFE
8102
0100
2108
3FF8
2108
0100
0100
0100
0300
ENDCHAR
STARTCHAR U+2FA0
ENCODING 12192
SWIDTH 1000 0
DWIDTH 16 0
BBX 15 16 0 -2
BITMAP
2004
7FFC
2004
2808
2FF8
2000
2002
3FFE
2484
2448
2450
2420
4410
C788
9C06
1002
ENDCHAR
STARTCHAR U+2FA1
ENCODING 12193
SWIDTH 1000 0
DWIDTH 16 0
BBX 15 16 0 -2
BITMAP
0010
2060
3F88
0030
20C4
3F08
0030
40C0
7F00
0100
1908
11F8
1108
2900
C702
81FE
ENDCHAR
STARTCHAR U+2FA2
ENCODING 12194
SWIDTH 1000 0
DWIDTH 16 0
BBX 15 16 0 -2
BITMAP
0840
1FE0
0840
0840
0FC0
0840
4010
FFF8
4210
4210
7FF0
4010
4004
4004
4004
3FFE
ENDCHAR
STARTCHAR U+2FA3
ENCODING 12195
SWIDTH 1000 0
DWIDTH 16 0
BBX 15 16 0 -2
BITMAP
8002
FFFE
8482
0480
2488
7FFC
2488
2488
2878
3008
2008
3FF8
2008
2008
3FF8
2008
ENDCHAR
STARTCHAR U+2FA4
ENCODING 12196
SWIDTH 1000 0
DWIDTH 16 0
BBX 15 16 0 -2
BITMAP
0038
21C8
3F10
1110
0920
8922
FFFE
8542
0540
0920
0920
1110
A10A
C106
0100
0300
ENDCHAR
STARTCHAR U+2FA5
ENCODING 12197
SWIDTH 1000 0
DWIDTH 16 0
BBX 15 16 0 -2
BITMAP
1010
3FF8
1110
1110
1FF0
1110
1110
1FF0
1110
2108
3FF8
2108
0100
8102
FFFE
8002
ENDCHAR
STARTCHAR U+2FA6
ENCODING 12198
SWIDTH 1000 0
DWIDTH 16 0
BBX 15 16 0 -2
BITMAP
0300
0100
0280
0440
0820
B01A
CFE6
0100
2108
3FF8
1110
1110
0920
4924
7FFC
4004
ENDCHAR
STARTCHAR U+2FA7
ENCODING 12199
SWIDTH 1000 0
DWIDTH 16 0
BBX 15 16 0 -2
BITMAP
0810
1FF0
0810
0820
0FE0
0800
0FE0
8802
FFFE
8904
0888
0850
0820
0F18
3806
2002
ENDCHAR
STARTCHAR U+2FA8
ENCODING 12200
SWIDTH 1000 0
DWIDTH 16 0
BBX 15 16 0 -2
BITMAP
4484
FEFE
4484
7CFC
4484
7CFC
4484
4004
4004
4004
4004
4004
4004
4004
401C
4008
ENDCHAR
STARTCHAR U+2FA9
ENCODING 12201
SWIDTH 1000 0
DWIDTH 16 0
BBX 15 16 0 -2
BITMAP
0300
0A20
1FF0
0820
0820
0FE0
0800
0FF0
0820
0820
0FE0
8102
FFFE
8102
0100
0300
ENDCHAR
STARTCHAR U+2FAA
ENCODING 12202
SWIDTH 1000 0
DWIDTH 16 0
BBX 15 16 0 -2
BITMAP
0300
2110
3FF8
2110
8112
FFFE
8112
2110
3FF0
010C
6188
1550
0920
B11A
C706
0200
ENDCHAR
STARTCHAR U+2FAB
ENCODING 12203
SWIDTH 1000 0
DWIDTH 16 0
BBX 15 16 0 -2
BITMAP
0420
0420
0840
0882
1FFE
F082
9084
1FFC
1080
1084
1FFC
1084
1080
1082
1FFE
1002
ENDCHAR
STARTCHAR U+2FAC
ENCODING 12204
SWIDTH 1000 0
DWIDTH 16 0
BBX 15 16 0 -2
BITMAP
8002
FFFE
8102
0100
4104
FFFE
4104
4104
5964
4514
4104
4104
5964
4514
410C
4108
ENDCHAR
STARTCHAR U+2FAD
ENCODING 12205
SWIDTH 1000 0
DWIDTH 16 0
BBX 15 16 0 -2
BITMAP
0300
2108
3FF8
2108
1FF0
8102
FFFE
8002
1FF0
0920
0920
0FE0
0820
0820
08E0
0840
ENDCHAR
STARTCHAR U+2FAE
ENCODING 12206
SWIDTH 1000 0
DWIDTH 16 0
BBX 15 16 0 -2
BITMAP
0CC0
0440
8442
FC7E
8442
4444
7C7C
4444
0440
8442
FC7E
8442
0440
0440
0440
0CC0
ENDCHAR
STARTCHAR U+2FAF
ENCODING 12207
SWIDTH 1000 0
DWIDTH 16 0
BBX 15 16 0 -2
BITMAP
8002
FFFE
8202
0200
2408
7FFC
2448
2448
27C8
2448
2448
27C8
2448
2448
3FF8
2008
ENDCHAR
STARTCHAR U+2FB0
ENCODING 12208
SWIDTH 1000 0
DWIDTH 16 0
BBX 15 16 0 -2
BITMAP
06C0
8442
FFFE
8442
07C0
1110
3FF8
1110
1110
1FF0
1110
8102
FFFE
8102
0100
0300
ENDCHAR
STARTCHAR U+2FB1
ENCODING 12209
SWIDTH 1000 0
DWIDTH 16 0
BBX 15 16 0 -2
BITMAP
0300
1120
1FF0
8222
FFFE
8002
1FF0
0820
0FE0
4080
7FF8
1082
3FFE
2082
0080
0180
ENDCHAR
STARTCHAR U+2FB2
ENCODING 12210
SWIDTH 1000 0
DWIDTH 16 0
BBX 15 16 0 -2
BITMAP
06C0
0240
4244
7E7C
0240
4244
7E7C
0240
0240
4244
7E7C
4244
0240
8242
FFFE
8002
ENDCHAR
STARTCHAR U+2FB3
ENCODING 12211
SWIDTH 1000 0
DWIDTH 16 0
BBX 15 16 0 -2
BITMAP
0300
2108
3FF8
2828
0440
8442
FFFE
8002
3FF8
1010
1010
1FF0
1010
1010
1FF0
1010
ENDCHAR
STARTCHAR U+2FB4
ENCODING 12212
SWIDTH 1000 0
DWIDTH 16 0
BBX 15 16 0 -2
BITMAP
8002
FFFE
8102
0A20
1FF0
0820
0FE0
0820
0820
0FE0
0820
0820
0FE0
0440
5834
600C
ENDCHAR
STARTCHAR U+2FB5
ENCODING 12213
SWIDTH 1000 0
DWIDTH 16 0
BBX 15 16 0 -2
BITMAP
2010
7FF8
2010
20D0
2F90
2210
2A50
2FD0
2A50
2A50
2FC8
2A4A
422A
43E4
DE16
9012
ENDCHAR
STARTCHAR U+2FB6
ENCODING 12214
SWIDTH 1000 0
DWIDTH 16 0
BBX 15 16 0 -2
BITMAP
2040
3FC8
2158
0D24
792C
4910
894C
FFE6
8948
0958
0954
112C
1120
2114
C10C
8306
ENDCHAR
STARTCHAR U+2FB7
ENCODING 12215
SWIDTH 1000 0
DWIDTH 16 0
BBX 15 16 0 -2
BITMAP
0300
0280
0440
0B20
B11A
CFE6
0820
0FE0
0820
0820
0FE0
0918
08B0
0E40
7832
400E
ENDCHAR
STARTCHAR U+2FB8
ENCODING 12216
SWIDTH 1000 0
DWIDTH 16 0
BBX 15 16 0 -2
BITMAP
0C60
0440
8082
FFFE
8102
1210
3FF8
1010
1FF0
1010
1010
1FF0
1010
1010
1FF0
1010
ENDCHAR
STARTCHAR U+2FB9
ENCODING 12217
SWIDTH 1000 0
DWIDTH 16 0
BBX 15 16 0 -2
BITMAP
2038
3FC8
0100
8102
FFFE
8542
0920
1110
EFEE
8822
0820
0FE0
0820
0820
0FE0
0820
ENDCHAR
STARTCHAR U+2FBA
ENCODING 12218
SWIDTH 1000 0
DWIDTH 16 0
BBX 15 16 0 -2
BITMAP
1008
3FF8
1100
1110
1FF0
1100
1110
1FF0
1110
1104
1FFE
1244
2924
24A4
4498
8010
ENDCHAR
STARTCHAR U+2FBB
ENCODING 12219
SWIDTH 1000 0
DWIDTH 16 0
BBX 15 16 0 -2
BITMAP
0820
1FF0
0820
0FA0
8922
FFFE
8002
9FF2
0820
0FE0
0820
0FE0
0820
0820
08E0
0840
ENDCHAR
STARTCHAR U+2FBC
ENCODING 12220
SWIDTH 1000 0
DWIDTH 16 0
BBX 15 16 0 -2
BITMAP
0300
8102
FFFE
8002
0FE0
0820
0FE0
2008
7FFC
2008
27C8
2448
27C8
2448
2038
2010
ENDCHAR
STARTCHAR U+2FBD
ENCODING 12221
SWIDTH 1000 0
DWIDTH 16 0
BBX 15 16 0 -2
BITMAP
2108
7F08
2010
3E20
22C4
2004
3E08
2210
A122
FFC2
1404
2208
2F10
F120
80C0
0700
ENDCHAR
STARTCHAR U+2FBE
ENCODING 12222
SWIDTH 1000 0
DWIDTH 16 0
BBX 14 16 0 -2
BITMAP
D28C
5EF4
4444
5EF4
4444
5EF4
4004
4004
4004
4004
4004
4004
4004
4004
401C
4008
ENDCHAR
STARTCHAR U+2FBF
ENCODING 12223
SWIDTH 1000 0
DWIDTH 16 0
BBX 13 16 1 -2
BITMAP
C4B0
5290
4890
5550
5250
4D10
7290
4290
7FF0
C000
4060
43C0
7C10
4010
4010
3FF8
ENDCHAR
STARTCHAR U+2FC0
ENCODING 12224
SWIDTH 1000 0
DWIDTH 16 0
BBX 15 16 0 -2
BITMAP
8002
FFFE
8002
1FF0
0820
0820
0FE0
4004
FFFE
4824
4444
5FF4
4104
4104
431C
4008
ENDCHAR
STARTCHAR U+2FC1
ENCODING 12225
SWIDTH 1000 0
DWIDTH 16 0
BBX 15 16 0 -2
BITMAP
0300
1210
3FF8
1110
1110
1FF0
1110
1110
1FF0
1220
0320
0558
09E8
1104
A104
C0FE
ENDCHAR
STARTCHAR U+2FC2
ENCODING 12226
SWIDTH 1000 0
DWIDTH 16 0
BBX 15 16 0 -2
BITMAP
0400
0440
07E0
0840
1090
BFF8
D110
1110
1FF0
1110
1110
1FF0
1088
2444
2222
C222
ENDCHAR
STARTCHAR U+2FC3
ENCODING 12227
SWIDTH 1000 0
DWIDTH 16 0
BBX 15 16 0 -2
BITMAP
0600
1420
3FF0
1020
1FE0
1020
1FE0
1008
1FF8
1004
1FFE
1244
0924
24A4
2498
C010
ENDCHAR
STARTCHAR U+2FC4
ENCODING 12228
SWIDTH 1000 0
DWIDTH 16 0
BBX 15 16 0 -2
BITMAP
0600
0202
03FE
0202
4204
FFFE
4144
4D44
4284
5934
4284
4444
5924
4104
7FFC
4004
ENDCHAR
STARTCHAR U+2FC5
ENCODING 12229
SWIDTH 1000 0
DWIDTH 16 0
BBX 15 16 0 -2
BITMAP
0300
2104
7FFC
2244
2248
3FFC
2248
2248
3FF8
2840
2F4C
2878
4844
CF44
B844
203E
ENDCHAR
STARTCHAR U+2FC6
ENCODING 12230
SWIDTH 1000 0
DWIDTH 16 0
BBX 15 16 0 -2
BITMAP
0300
8102
FFFE
9112
1110
2BA8
C546
0920
B21A
C7E6
0820
B740
C0C0
0330
4C18
7000
ENDCHAR
STARTCHAR U+2FC7
ENCODING 12231
SWIDTH 1000 0
DWIDTH 16 0
BBX 15 16 0 -2
BITMAP
0180
2082
7FFE
2002
2630
2212
3FFE
2212
2730
26B8
2A54
5294
6312
C210
8210
0630
ENDCHAR
STARTCHAR U+2FC8
ENCODING 12232
SWIDTH 1000 0
DWIDTH 16 0
BBX 15 16 0 -2
BITMAP
2448
3FF8
2448
07C0
8002
FFFE
8102
3FF8
1110
1110
1FF0
1110
1110
1FF0
4824
701C
ENDCHAR
STARTCHAR U+2FC9
ENCODING 12233
SWIDTH 1000 0
DWIDTH 16 0
BBX 15 16 0 -2
BITMAP
1030
1FD0
4104
7FFC
4544
0920
B11A
C286
0440
9B32
E10E
1D70
0100
7D7C
4304
0200
ENDCHAR
STARTCHAR U+2FCA
ENCODING 12234
SWIDTH 1000 0
DWIDTH 16 0
BBX 15 16 0 -2
BITMAP
1010
3FF8
1950
1550
1550
1590
1FF0
1110
2108
3FF8
2108
8102
FFFE
9112
2888
C666
ENDCHAR
STARTCHAR U+2FCB
ENCODING 12235
SWIDTH 1000 0
DWIDTH 16 0
BBX 15 16 0 -2
BITMAP
0CC0
644C
2448
9452
FFFE
9112
2928
7FFC
2108
2548
2548
2548
2D68
2108
2118
2110
ENDCHAR
STARTCHAR U+2FCC
ENCODING 12236
SWIDTH 1000 0
DWIDTH 16 0
BBX 15 16 0 -2
BITMAP
4008
FFFC
4488
7CF8
0480
4488
FCFC
4488
7CF8
4488
4488
7CF8
4488
0484
0484
03FE
ENDCHAR
STARTCHAR U+2FCD
ENCODING 12237
SWIDTH 1000 0
DWIDTH 16 0
BBX 15 16 0 -2
BITMAP
0820
1FF0
682C
2FE8
2828
2FE8
2828
2FE8
2008
3C78
8444
FC7E
A444
2444
C444
8CCC
ENDCHAR
STARTCHAR U+2FCE
ENCODING 12238
SWIDTH 1000 0
DWIDTH 16 0
BBX 15 16 0 -2
BITMAP
3870
9220
FE22
13FE
5222
7C20
0128
FFFC
4508
4488
7C90
2850
2820
AE50
F28A
8306
ENDCHAR
STARTCHAR U+2FCF
ENCODING 12239
SWIDTH 1000 0
DWIDTH 16 0
BBX 15 16 0 -2
BITMAP
2688
7AFC
2008
3CF8
2008
3FF8
0000
6B58
2528
2108
2948
252A
210A
3974
E786
8402
ENDCHAR
STARTCHAR U+2FD0
ENCODING 12240
SWIDTH 1000 0
DWIDTH 16 0
BBX 15 16 0 -2
BITMAP
0400
1FF0
0820
0FE0
0820
0FE0
0820
3FF8
2108
3FF8
2108
3FF8
8002
FFFE
0820
7060
ENDCHAR
STARTCHAR U+2FD1
ENCODING 12241
SWIDTH 1000 0
DWIDTH 16 0
BBX 15 16 0 -2
BITMAP
0300
8102
FFFE
8286
7D7C
2528
252A
CD34
8966
3012
1FF0
1010
1FF0
1010
A010
C030
ENDCHAR
STARTCHAR U+2FD2
ENCODING 12242
SWIDTH 1000 0
DWIDTH 16 0
BBX 15 16 0 -2
BITMAP
0300
1908
09F8
0908
8902
FFFE
8442
644C
2AA8
3FF8
2448
2448
2AA8
2008
3FF8
2008
ENDCHAR
STARTCHAR U+2FD3
ENCODING 12243
SWIDTH 1000 0
DWIDTH 16 0
BBX 15 16 0 -2
BITMAP
3180
5482
7CFE
4482
AAFC
FE04
81FC
7C84
44F8
7C80
44F8
7C80
44FC
4484
5C84
487E
ENDCHAR
STARTCHAR U+2FD4
ENCODING 12244
SWIDTH 1000 0
DWIDTH 16 0
BBX 15 16 0 -2
BITMAP
0480
0FC0
1088
7FFC
2288
3EF8
4284
7AFC
8AD4
FEA4
0AB4
7ACC
8AFC
FE84
0A84
79FE
ENDCHAR
STARTCHAR U+2FD5
ENCODING 12245
SWIDTH 1000 0
DWIDTH 16 0
BBX 15 16 0 -2
BITMAP
0300
0280
0C60
B7DA
C006
3BB8
2AA8
3BB8
0000
7FFC
2488
2488
3FF8
2488
2498
2490
ENDCHAR
STARTCHAR U+3000
ENCODING 12288
SWIDTH 1000 0
DWIDTH 16 0
BBX 0 0 0 0
BITMAP
ENDCHAR
STARTCHAR U+3001
ENCODING 12289
SWIDTH 1000 0
DWIDTH 16 0
BBX 4 5 0 -2
BITMAP
80
40
60
30
30
ENDCHAR
STARTCHAR U+3002
ENCODING 12290
SWIDTH 1000 0
DWIDTH 16 0
BBX 5 5 0 -2
BITMAP
70
88
88
88
70
ENDCHAR
STARTCHAR U+3003
ENCODING 12291
SWIDTH 1000 0
DWIDTH 16 0
BBX 8 6 3 4
BITMAP
11
33
22
44
44
88
ENDCHAR
STARTCHAR U+3005
ENCODING 12293
SWIDTH 1000 0
DWIDTH 16 0
BBX 14 15 0 -2
BITMAP
0200
0200
0208
07FC
0408
0808
0810
1010
2020
C040
8640
0580
0040
0020
0010
ENDCHAR
STARTCHAR U+3006
ENCODING 12294
SWIDTH 1000 0
DWIDTH 16 0
BBX 12 14 1 -1
BITMAP
0020
0030
0020
0040
0880
1500
2200
2500
4900
5000
9000
A000
C000
8000
ENDCHAR
STARTCHAR U+3007
ENCODING 12295
SWIDTH 1000 0
DWIDTH 16 0
BBX 15 12 0 0
BITMAP
07C0
1830
2008
4004
8002
8002
8002
8002
4004
2008
1830
07C0
ENDCHAR
STARTCHAR U+3008
ENCODING 12296
SWIDTH 1000 0
DWIDTH 16 0
BBX 5 16 9 -2
BITMAP
08
08
10
10
20
40
40
80
80
40
40
20
10
10
18
08
ENDCHAR
STARTCHAR U+3009
ENCODING 12297
SWIDTH 1000 0
DWIDTH 16 0
BBX 5 16 1 -2
BITMAP
80
80
40
40
20
10
10
08
08
10
10
20
40
40
C0
80
ENDCHAR
STARTCHAR U+300A
ENCODING 12298
SWIDTH 1000 0
DWIDTH 16 0
BBX 8 16 6 -2
BITMAP
09
09
12
12
24
48
48
90
90
48
48
24
12
12
1B
09
ENDCHAR
STARTCHAR U+300B
ENCODING 12299
SWIDTH 1000 0
DWIDTH 16 0
BBX 8 16 1 -2
BITMAP
90
90
48
48
24
12
12
09
09
12
12
24
48
48
D8
90
ENDCHAR
STARTCHAR U+300C
ENCODING 12300
SWIDTH 1000 0
DWIDTH 16 0
BBX 5 12 9 2
BITMAP
F8
88
80
80
80
80
80
80
80
80
80
80
ENDCHAR
STARTCHAR U+300D
ENCODING 12301
SWIDTH 1000 0
DWIDTH 16 0
BBX 5 12 1 -2
BITMAP
08
08
08
08
08
08
08
08
08
08
88
F8
ENDCHAR
STARTCHAR U+300E
ENCODING 12302
SWIDTH 1000 0
DWIDTH 16 0
BBX 6 12 8 2
BITMAP
FC
84
BC
A0
A0
A0
A0
A0
A0
A0
A0
E0
ENDCHAR
STARTCHAR U+300F
ENCODING 12303
SWIDTH 1000 0
DWIDTH 16 0
BBX 6 12 1 -2
BITMAP
1C
14
14
14
14
14
14
14
14
F4
84
FC
ENDCHAR
STARTCHAR U+3010
ENCODING 12304
SWIDTH 1000 0
DWIDTH 16 0
BBX 5 16 9 -2
BITMAP
F8
E0
E0
C0
C0
C0
C0
C0
C0
C0
C0
C0
E0
E0
E0
F8
ENDCHAR
STARTCHAR U+3011
ENCODING 12305
SWIDTH 1000 0
DWIDTH 16 0
BBX 5 16 1 -2
BITMAP
F8
38
38
18
18
18
18
18
18
18
18
18
38
38
38
F8
ENDCHAR
STARTCHAR U+3012
ENCODING 12306
SWIDTH 1000 0
DWIDTH 16 0
BBX 14 15 0 -2
BITMAP
FFFC
FFFC
0000
0000
FFFC
FFFC
0300
0300
0300
0300
0300
0300
0300
0300
0300
ENDCHAR
STARTCHAR U+3013
ENCODING 12307
SWIDTH 1000 0
DWIDTH 16 0
BBX 11 7 2 3
BITMAP
FFE0
FFE0
0000
0000
0000
FFE0
FFE0
ENDCHAR
STARTCHAR U+3014
ENCODING 12308
SWIDTH 1000 0
DWIDTH 16 0
BBX 4 16 10 -2
BITMAP
10
60
80
80
80
80
80
80
80
80
80
80
80
80
70
10
ENDCHAR
STARTCHAR U+3015
ENCODING 12309
SWIDTH 1000 0
DWIDTH 16 0
BBX 4 16 1 -2
BITMAP
80
60
10
10
10
10
10
10
10
10
10
10
10
10
E0
80
ENDCHAR
STARTCHAR U+3016
ENCODING 12310
SWIDTH 1000 0
DWIDTH 16 0
BBX 5 16 9 -2
BITMAP
F8
A0
A0
C0
C0
C0
C0
C0
C0
C0
C0
C0
A0
A0
A0
F8
ENDCHAR
STARTCHAR U+3017
ENCODING 12311
SWIDTH 1000 0
DWIDTH 16 0
BBX 5 16 1 -2
BITMAP
F8
28
28
18
18
18
18
18
18
18
18
18
28
28
28
F8
ENDCHAR
STARTCHAR U+301C
ENCODING 12316
SWIDTH 1000 0
DWIDTH 16 0
BBX 15 6 0 3
BITMAP
3800
4400
C202
0104
0088
0070
ENDCHAR
STARTCHAR U+301D
ENCODING 12317
SWIDTH 1000 0
DWIDTH 16 0
BBX 6 3 9 10
BITMAP
6C
48
90
ENDCHAR
STARTCHAR U+301F
ENCODING 12319
SWIDTH 1000 0
DWIDTH 16 0
BBX 6 3 1 -1
BITMAP
6C
48
90
ENDCHAR
STARTCHAR U+3021
ENCODING 12321
SWIDTH 1000 0
DWIDTH 16 0
BBX 2 16 6 -2
BITMAP
C0
40
40
40
40
40
40
40
40
40
40
40
40
40
40
C0
ENDCHAR
STARTCHAR U+3022
ENCODING 12322
SWIDTH 1000 0
DWIDTH 16 0
BBX 6 16 4 -2
BITMAP
0C
04
C4
44
44
44
44
44
44
44
44
04
04
04
04
0C
ENDCHAR
STARTCHAR U+3023
ENCODING 12323
SWIDTH 1000 0
DWIDTH 16 0
BBX 10 16 3 -2
BITMAP
C0C0
4040
4C40
4440
4440
4440
4440
4440
4440
4440
4440
4040
4040
4040
4040
C0C0
ENDCHAR
STARTCHAR U+3024
ENCODING 12324
SWIDTH 1000 0
DWIDTH 16 0
BBX 15 16 0 -2
BITMAP
0018
0008
0008
1808
0410
0210
0120
00A0
0040
00A0
0110
0208
0C08
1004
E006
8002
ENDCHAR
STARTCHAR U+3025
ENCODING 12325
SWIDTH 1000 0
DWIDTH 16 0
BBX 11 16 2 -2
BITMAP
1060
1020
2020
C040
3080
0D00
0300
0C80
1040
2020
4020
4020
4020
4040
2040
1F80
ENDCHAR
STARTCHAR U+3026
ENCODING 12326
SWIDTH 1000 0
DWIDTH 16 0
BBX 15 16 0 -2
BITMAP
0300
0100
0100
0100
0100
0100
0100
0100
0100
0100
0100
0100
0100
8102
FFFE
8002
ENDCHAR
STARTCHAR U+3027
ENCODING 12327
SWIDTH 1000 0
DWIDTH 16 0
BBX 15 16 0 -2
BITMAP
0300
0100
0100
0100
0100
0100
0100
0100
0100
8102
FFFE
8002
0000
4004
7FFC
4004
ENDCHAR
STARTCHAR U+3028
ENCODING 12328
SWIDTH 1000 0
DWIDTH 16 0
BBX 15 16 0 -2
BITMAP
0300
0100
0100
0100
0100
8102
FFFE
8002
0000
4004
7FFC
4004
0000
4004
7FFC
4004
ENDCHAR
STARTCHAR U+3029
ENCODING 12329
SWIDTH 1000 0
DWIDTH 16 0
BBX 15 16 0 -2
BITMAP
0300
0100
0100
7FFC
2008
2008
1010
1010
0820
0440
0280
0100
0280
0C60
B01A
C006
ENDCHAR
STARTCHAR U+3038
ENCODING 12344
SWIDTH 1000 0
DWIDTH 16 0
BBX 15 16 0 -2
BITMAP
0300
0100
0100
0100
0100
0100
8102
FFFE
8102
0100
0100
0100
0100
0100
0100
0300
ENDCHAR
STARTCHAR U+3039
ENCODING 12345
SWIDTH 1000 0
DWIDTH 16 0
BBX 15 16 0 -2
BITMAP
1860
0820
0820
0820
0820
0820
8822
FFFE
8822
0820
0820
0820
0820
0820
0820
1860
ENDCHAR
STARTCHAR U+303A
ENCODING 12346
SWIDTH 1000 0
DWIDTH 16 0
BBX 15 16 0 -2
BITMAP
3330
1110
1110
1110
1110
9112
FFFE
9112
1110
1110
1110
1110
2110
2110
C310
8030
ENDCHAR
STARTCHAR U+3041
ENCODING 12353
SWIDTH 1000 0
DWIDTH 16 0
BBX 9 11 3 -2
BITMAP
1000
0A00
5E00
3000
1400
3F00
5480
5880
A880
C300
0C00
ENDCHAR
STARTCHAR U+3042
ENCODING 12354
SWIDTH 1000 0
DWIDTH 16 0
BBX 12 15 2 -1
BITMAP
0400
0C00
0480
4780
7C00
0900
0900
0FC0
3A20
4C10
8810
9410
A410
C060
0380
ENDCHAR
STARTCHAR U+3043
ENCODING 12355
SWIDTH 1000 0
DWIDTH 16 0
BBX 11 8 2 -1
BITMAP
C100
4100
4080
4060
4020
2800
3000
1000
ENDCHAR
STARTCHAR U+3044
ENCODING 12356
SWIDTH 1000 0
DWIDTH 16 0
BBX 13 12 2 0
BITMAP
8000
C040
4040
4040
4020
4020
4018
4410
4800
5000
3000
2000
ENDCHAR
STARTCHAR U+3045
ENCODING 12357
SWIDTH 1000 0
DWIDTH 16 0
BBX 7 11 4 -2
BITMAP
48
78
00
1C
E2
82
02
02
04
08
30
ENDCHAR
STARTCHAR U+3046
ENCODING 12358
SWIDTH 1000 0
DWIDTH 16 0
BBX 8 15 3 -2
BITMAP
60
1E
00
00
1E
E1
81
01
01
01
02
02
04
18
10
ENDCHAR
STARTCHAR U+3047
ENCODING 12359
SWIDTH 1000 0
DWIDTH 16 0
BBX 9 10 3 -1
BITMAP
1000
0C00
0000
5E00
6400
0800
1800
2400
4480
C380
ENDCHAR
STARTCHAR U+3048
ENCODING 12360
SWIDTH 1000 0
DWIDTH 16 0
BBX 13 15 1 -1
BITMAP
1800
0780
0100
0000
07C0
3880
2100
0200
0400
0C00
1200
2200
4200
C210
81F8
ENDCHAR
STARTCHAR U+3049
ENCODING 12361
SWIDTH 1000 0
DWIDTH 16 0
BBX 9 10 3 -2
BITMAP
3000
1500
9C80
7080
2F00
3080
6080
A880
6700
2000
ENDCHAR
STARTCHAR U+304A
ENCODING 12362
SWIDTH 1000 0
DWIDTH 16 0
BBX 14 15 1 -1
BITMAP
1000
3000
1060
121C
5E08
7000
1000
11E0
1610
1808
3008
D008
9030
31C0
1000
ENDCHAR
STARTCHAR U+304B
ENCODING 12363
SWIDTH 1000 0
DWIDTH 16 0
BBX 15 15 0 -1
BITMAP
0400
0C00
0400
0420
0F20
7490
C490
0888
0886
1084
1080
2100
C100
8E00
0400
ENDCHAR
STARTCHAR U+304C
ENCODING 12364
SWIDTH 1000 0
DWIDTH 16 0
BBX 15 15 0 -1
BITMAP
0400
0C04
0412
040A
0F28
74A0
C490
0888
0886
1084
1080
2100
C100
8E00
0400
ENDCHAR
STARTCHAR U+304D
ENCODING 12365
SWIDTH 1000 0
DWIDTH 16 0
BBX 11 15 2 -1
BITMAP
1800
0800
0480
0380
7E00
0160
03C0
FC80
0180
0080
4000
4000
3000
0F80
0100
ENDCHAR
STARTCHAR U+304E
ENCODING 12366
SWIDTH 1000 0
DWIDTH 16 0
BBX 13 15 2 -1
BITMAP
1810
0848
04A8
03A0
7E00
0140
03C0
FC80
0180
0080
4000
4000
3000
0F80
0100
ENDCHAR
STARTCHAR U+304F
ENCODING 12367
SWIDTH 1000 0
DWIDTH 16 0
BBX 10 16 2 -2
BITMAP
0100
0180
0200
0400
0800
1000
2000
4000
8000
E000
1800
0600
0100
0180
0040
0040
ENDCHAR
STARTCHAR U+3050
ENCODING 12368
SWIDTH 1000 0
DWIDTH 16 0
BBX 12 16 2 -2
BITMAP
0100
0180
0200
0420
0890
1050
2040
4000
8000
E000
1800
0600
0100
0180
0040
0040
ENDCHAR
STARTCHAR U+3051
ENCODING 12369
SWIDTH 1000 0
DWIDTH 16 0
BBX 13 15 2 -2
BITMAP
C0C0
4040
4040
4040
47F8
8440
8040
8040
8040
8040
8040
C080
4080
4100
0600
ENDCHAR
STARTCHAR U+3052
ENCODING 12370
SWIDTH 1000 0
DWIDTH 16 0
BBX 14 16 1 -2
BITMAP
0008
C0E4
4054
4050
4040
47FC
8440
8040
8040
8040
8040
8040
C080
4080
4100
0600
ENDCHAR
STARTCHAR U+3053
ENCODING 12371
SWIDTH 1000 0
DWIDTH 16 0
BBX 11 11 2 0
BITMAP
3F80
1000
0000
0000
0000
0000
0000
8000
8000
6040
1FE0
ENDCHAR
STARTCHAR U+3054
ENCODING 12372
SWIDTH 1000 0
DWIDTH 16 0
BBX 12 14 2 0
BITMAP
0020
0090
0050
3F40
1000
0000
0000
0000
0000
0000
8000
8000
6040
1FE0
ENDCHAR
STARTCHAR U+3055
ENCODING 12373
SWIDTH 1000 0
DWIDTH 16 0
BBX 10 15 2 -1
BITMAP
1800
0800
0440
05C0
9E00
E100
0100
0080
0180
0080
4000
4000
3000
0F80
0100
ENDCHAR
STARTCHAR U+3056
ENCODING 12374
SWIDTH 1000 0
DWIDTH 16 0
BBX 13 15 2 -1
BITMAP
1810
0848
04A8
05A0
9E00
E100
0100
0080
0180
0080
4000
4000
3000
0F80
0100
ENDCHAR
STARTCHAR U+3057
ENCODING 12375
SWIDTH 1000 0
DWIDTH 16 0
BBX 11 15 3 -1
BITMAP
4000
C000
4000
4000
4000
4000
4000
4000
4000
4020
4020
4040
4080
4300
3C00
ENDCHAR
STARTCHAR U+3058
ENCODING 12376
SWIDTH 1000 0
DWIDTH 16 0
BBX 11 15 3 -1
BITMAP
4000
C000
4080
4240
4140
4100
4000
4000
4000
4020
4020
4040
4080
4300
3C00
ENDCHAR
STARTCHAR U+3059
ENCODING 12377
SWIDTH 1000 0
DWIDTH 16 0
BBX 15 16 0 -2
BITMAP
0080
0180
0080
0080
03FE
FC84
4080
0380
0480
0480
0580
0280
0100
0100
0E00
0400
ENDCHAR
STARTCHAR U+305A
ENCODING 12378
SWIDTH 1000 0
DWIDTH 16 0
BBX 15 16 0 -2
BITMAP
0084
0192
008A
0088
03FE
FC84
4080
0380
0480
0480
0580
0280
0100
0100
0E00
0400
ENDCHAR
STARTCHAR U+305B
ENCODING 12379
SWIDTH 1000 0
DWIDTH 16 0
BBX 15 14 0 -1
BITMAP
0040
08C0
1840
0840
0844
0FFE
F840
8840
08C0
0800
0800
0600
01F8
0010
ENDCHAR
STARTCHAR U+305C
ENCODING 12380
SWIDTH 1000 0
DWIDTH 16 0
BBX 15 15 0 -1
BITMAP
0004
0052
08CA
1848
0840
0844
0FFE
F840
8840
08C0
0800
0800
0600
01F8
0010
ENDCHAR
STARTCHAR U+305D
ENCODING 12381
SWIDTH 1000 0
DWIDTH 16 0
BBX 13 15 1 -2
BITMAP
00C0
3080
1100
0900
0800
07F0
BA18
C200
0400
0400
0400
0400
0200
01C0
0040
ENDCHAR
STARTCHAR U+305E
ENCODING 12382
SWIDTH 1000 0
DWIDTH 16 0
BBX 14 15 1 -2
BITMAP
00C8
30A4
1114
0910
0800
07F0
BA18
C200
0400
0400
0400
0400
0200
01C0
0040
ENDCHAR
STARTCHAR U+305F
ENCODING 12383
SWIDTH 1000 0
DWIDTH 16 0
BBX 12 14 1 -1
BITMAP
1000
3000
1400
9C00
F000
11F0
1020
2000
2000
2000
4400
C400
8310
00F0
ENDCHAR
STARTCHAR U+3060
ENCODING 12384
SWIDTH 1000 0
DWIDTH 16 0
BBX 14 15 1 -1
BITMAP
0008
1024
3014
1410
9C00
F000
11F0
1020
2000
2000
2000
4400
C400
8310
00F0
ENDCHAR
STARTCHAR U+3061
ENCODING 12385
SWIDTH 1000 0
DWIDTH 16 0
BBX 12 15 1 -1
BITMAP
0C00
0800
0800
0840
9FC0
E800
0800
1000
13C0
2C20
3010
2010
0020
00C0
0F00
ENDCHAR
STARTCHAR U+3062
ENCODING 12386
SWIDTH 1000 0
DWIDTH 16 0
BBX 13 15 1 -1
BITMAP
0C00
0810
0848
08A8
9FA0
E800
0800
1000
13C0
2C20
3010
2010
0020
00C0
0F00
ENDCHAR
STARTCHAR U+3063
ENCODING 12387
SWIDTH 1000 0
DWIDTH 16 0
BBX 10 7 2 -1
BITMAP
1F80
E040
8040
0040
0080
0300
1C00
ENDCHAR
STARTCHAR U+3064
ENCODING 12388
SWIDTH 1000 0
DWIDTH 16 0
BBX 13 8 1 1
BITMAP
0FE0
F010
8008
0008
0008
0010
0060
0780
ENDCHAR
STARTCHAR U+3065
ENCODING 12389
SWIDTH 1000 0
DWIDTH 16 0
BBX 14 13 1 1
BITMAP
0008
0024
0014
0010
0000
0FE0
F010
8008
0008
0008
0010
0060
0780
ENDCHAR
STARTCHAR U+3066
ENCODING 12390
SWIDTH 1000 0
DWIDTH 16 0
BBX 13 13 0 -1
BITMAP
01F8
4F00
F100
0200
0200
0400
0400
0400
0400
0400
0200
01F0
0020
ENDCHAR
STARTCHAR U+3067
ENCODING 12391
SWIDTH 1000 0
DWIDTH 16 0
BBX 15 13 0 -1
BITMAP
01F8
4F04
F112
020A
0208
0400
0400
0400
0400
0400
0200
01F0
0020
ENDCHAR
STARTCHAR U+3068
ENCODING 12392
SWIDTH 1000 0
DWIDTH 16 0
BBX 10 15 3 -1
BITMAP
2000
6000
2000
2000
2000
2100
2180
1600
1800
2000
4000
8000
8000
80C0
7F80
ENDCHAR
STARTCHAR U+3069
ENCODING 12393
SWIDTH 1000 0
DWIDTH 16 0
BBX 12 15 3 -1
BITMAP
2020
6090
2050
2040
2000
2100
2180
1600
1800
2000
4000
8000
8000
80C0
7F80
ENDCHAR
STARTCHAR U+306A
ENCODING 12394
SWIDTH 1000 0
DWIDTH 16 0
BBX 14 15 1 -1
BITMAP
1800
0800
0A00
0E00
F8FC
9008
1040
1040
2040
2040
4040
C7C0
8860
089C
0708
ENDCHAR
STARTCHAR U+306B
ENCODING 12395
SWIDTH 1000 0
DWIDTH 16 0
BBX 12 14 2 -1
BITMAP
C000
4000
47E0
4200
4000
4000
8000
8000
8000
8800
8800
C620
41F0
4000
ENDCHAR
STARTCHAR U+306C
ENCODING 12396
SWIDTH 1000 0
DWIDTH 16 0
BBX 14 12 1 0
BITMAP
0300
2100
23F0
2E08
1208
3408
5408
4810
8DD0
9230
622C
41C8
ENDCHAR
STARTCHAR U+306D
ENCODING 12397
SWIDTH 1000 0
DWIDTH 16 0
BBX 14 15 1 -1
BITMAP
1000
3000
1000
1060
5C90
F110
1210
1410
1810
1010
31D0
5230
912C
B0C8
1000
ENDCHAR
STARTCHAR U+306E
ENCODING 12398
SWIDTH 1000 0
DWIDTH 16 0
BBX 13 12 1 0
BITMAP
07C0
1A20
2210
4208
4408
8408
8408
8808
8810
5010
3060
0380
ENDCHAR
STARTCHAR U+306F
ENCODING 12399
SWIDTH 1000 0
DWIDTH 16 0
BBX 14 14 1 -1
BITMAP
C0C0
4040
4040
4040
47FC
8240
8040
8040
8040
8040
83C0
C470
444C
4388
ENDCHAR
STARTCHAR U+3070
ENCODING 12400
SWIDTH 1000 0
DWIDTH 16 0
BBX 14 15 1 -1
BITMAP
0008
C1A4
4094
4090
4080
4FF8
8480
8080
8080
8080
8080
8780
C8E0
4898
4710
ENDCHAR
STARTCHAR U+3071
ENCODING 12401
SWIDTH 1000 0
DWIDTH 16 0
BBX 14 15 1 -1
BITMAP
0018
C1A4
40A4
4098
4080
4FF8
8480
8080
8080
8080
8080
8780
C8E0
4898
4710
ENDCHAR
STARTCHAR U+3072
ENCODING 12402
SWIDTH 1000 0
DWIDTH 16 0
BBX 15 13 0 -1
BITMAP
0E00
F830
8820
1020
1050
2050
2048
2086
2084
2100
1100
1200
0C00
ENDCHAR
STARTCHAR U+3073
ENCODING 12403
SWIDTH 1000 0
DWIDTH 16 0
BBX 15 14 0 -1
BITMAP
0004
0E12
F80A
8868
1020
1050
2050
2048
2086
2084
2100
1100
1200
0C00
ENDCHAR
STARTCHAR U+3074
ENCODING 12404
SWIDTH 1000 0
DWIDTH 16 0
BBX 15 14 0 -1
BITMAP
000C
0E12
F812
886C
1020
1050
2050
2048
2086
2084
2100
1100
1200
0C00
ENDCHAR
STARTCHAR U+3075
ENCODING 12405
SWIDTH 1000 0
DWIDTH 16 0
BBX 15 14 0 -1
BITMAP
0800
1FC0
0000
0000
0200
0100
0100
1090
1090
1088
2086
C884
4900
0600
ENDCHAR
STARTCHAR U+3076
ENCODING 12406
SWIDTH 1000 0
DWIDTH 16 0
BBX 15 14 0 -1
BITMAP
0800
1F88
0024
0014
0210
0100
0100
1090
1090
1088
2086
C884
4900
0600
ENDCHAR
STARTCHAR U+3077
ENCODING 12407
SWIDTH 1000 0
DWIDTH 16 0
BBX 15 14 0 -1
BITMAP
0800
1FCC
0012
0012
020C
0100
0100
1090
1090
1088
2086
C884
4900
0600
ENDCHAR
STARTCHAR U+3078
ENCODING 12408
SWIDTH 1000 0
DWIDTH 16 0
BBX 15 8 0 2
BITMAP
0600
0900
9100
6080
4040
0030
000E
0004
ENDCHAR
STARTCHAR U+3079
ENCODING 12409
SWIDTH 1000 0
DWIDTH 16 0
BBX 15 11 0 2
BITMAP
0010
0048
0028
0620
0900
9100
6080
4040
0030
000E
0004
ENDCHAR
STARTCHAR U+307A
ENCODING 12410
SWIDTH 1000 0
DWIDTH 16 0
BBX 15 11 0 2
BITMAP
0030
0048
0048
0630
0900
9100
6080
4040
0030
000E
0004
ENDCHAR
STARTCHAR U+307B
ENCODING 12411
SWIDTH 1000 0
DWIDTH 16 0
BBX 13 14 1 -1
BITMAP
C020
47F0
4040
4040
4078
8FC0
8440
8040
8040
8040
83C0
C478
4450
4380
ENDCHAR
STARTCHAR U+307C
ENCODING 12412
SWIDTH 1000 0
DWIDTH 16 0
BBX 14 15 1 -1
BITMAP
0008
C024
47D4
4050
4040
4078
8FC0
8440
8040
8040
8040
83C0
C478
4450
4380
ENDCHAR
STARTCHAR U+307D
ENCODING 12413
SWIDTH 1000 0
DWIDTH 16 0
BBX 14 15 1 -1
BITMAP
0018
C024
47E4
4058
4040
4078
8FC0
8440
8040
8040
8040
83C0
C478
4450
4380
ENDCHAR
STARTCHAR U+307E
ENCODING 12414
SWIDTH 1000 0
DWIDTH 16 0
BBX 11 15 2 -1
BITMAP
0400
0C00
0400
FFC0
4400
0400
4480
7F80
0400
0400
0400
3E00
4580
4460
3840
ENDCHAR
STARTCHAR U+307F
ENCODING 12415
SWIDTH 1000 0
DWIDTH 16 0
BBX 14 13 1 -1
BITMAP
0780
3900
0200
0220
0430
0420
3E20
49E0
903C
9048
A040
C080
0300
ENDCHAR
STARTCHAR U+3080
ENCODING 12416
SWIDTH 1000 0
DWIDTH 16 0
BBX 14 15 1 -1
BITMAP
1000
3000
1200
FE00
9000
1060
101C
7008
9000
9000
9020
6020
2010
2010
1FE0
ENDCHAR
STARTCHAR U+3081
ENCODING 12417
SWIDTH 1000 0
DWIDTH 16 0
BBX 13 12 1 0
BITMAP
0600
2200
2200
23E0
2E10
3208
5408
5408
8808
9410
6060
0380
ENDCHAR
STARTCHAR U+3082
ENCODING 12418
SWIDTH 1000 0
DWIDTH 16 0
BBX 11 15 2 -1
BITMAP
0C00
0800
0800
0A00
FE00
0800
0800
9200
FE40
1040
1020
1020
1020
1040
0F80
ENDCHAR
STARTCHAR U+3083
ENCODING 12419
SWIDTH 1000 0
DWIDTH 16 0
BBX 12 10 1 -1
BITMAP
0200
1C00
11E0
1610
3810
C810
85E0
0400
0200
0200
ENDCHAR
STARTCHAR U+3084
ENCODING 12420
SWIDTH 1000 0
DWIDTH 16 0
BBX 15 13 0 -1
BITMAP
0200
1F00
1000
10FC
0B02
1C02
2804
C478
8200
0200
0100
0180
0080
ENDCHAR
STARTCHAR U+3085
ENCODING 12421
SWIDTH 1000 0
DWIDTH 16 0
BBX 10 13 3 -2
BITMAP
0400
8C00
4400
4F00
5480
A440
C440
9440
5480
4F00
0400
0800
3000
ENDCHAR
STARTCHAR U+3086
ENCODING 12422
SWIDTH 1000 0
DWIDTH 16 0
BBX 13 16 1 -2
BITMAP
0100
0300
4100
C100
43F0
4D08
5108
E108
8108
8908
C510
43E0
0100
0200
1C00
1000
ENDCHAR
STARTCHAR U+3087
ENCODING 12423
SWIDTH 1000 0
DWIDTH 16 0
BBX 9 11 3 -1
BITMAP
0800
1800
0F00
0A00
0800
0800
0800
7800
8E00
8980
7100
ENDCHAR
STARTCHAR U+3088
ENCODING 12424
SWIDTH 1000 0
DWIDTH 16 0
BBX 11 15 2 -1
BITMAP
0400
0C00
0400
0400
07C0
0480
0400
0400
0400
0400
0400
7C00
8700
84E0
7840
ENDCHAR
STARTCHAR U+3089
ENCODING 12425
SWIDTH 1000 0
DWIDTH 16 0
BBX 10 14 3 -1
BITMAP
3900
0700
0000
6000
4000
4000
4000
4F00
7080
C040
0040
0040
0180
3E00
ENDCHAR
STARTCHAR U+308A
ENCODING 12426
SWIDTH 1000 0
DWIDTH 16 0
BBX 8 15 3 -2
BITMAP
C0
46
49
51
61
41
41
41
C1
41
01
02
02
3C
10
ENDCHAR
STARTCHAR U+308B
ENCODING 12427
SWIDTH 1000 0
DWIDTH 16 0
BBX 11 14 2 -1
BITMAP
0100
7F00
2200
0400
0800
0800
1780
3840
4020
C020
8C20
1220
1240
0F80
ENDCHAR
STARTCHAR U+308C
ENCODING 12428
SWIDTH 1000 0
DWIDTH 16 0
BBX 14 15 1 -1
BITMAP
1000
3000
1020
1060
18A0
F120
5220
1420
1840
3040
5040
D044
9048
3030
1000
ENDCHAR
STARTCHAR U+308D
ENCODING 12429
SWIDTH 1000 0
DWIDTH 16 0
BBX 11 14 2 -1
BITMAP
0100
7F00
2200
0400
0800
1000
2780
5840
6020
C020
0020
0040
0180
1E00
ENDCHAR
STARTCHAR U+308E
ENCODING 12430
SWIDTH 1000 0
DWIDTH 16 0
BBX 10 10 2 -2
BITMAP
3000
1000
1B80
B440
5840
3040
5040
9080
3700
1000
ENDCHAR
STARTCHAR U+308F
ENCODING 12431
SWIDTH 1000 0
DWIDTH 16 0
BBX 13 15 1 -1
BITMAP
3000
1800
1000
1000
1800
F1F0
5608
1808
1008
3008
5008
D008
9010
30E0
1000
ENDCHAR
STARTCHAR U+3090
ENCODING 12432
SWIDTH 1000 0
DWIDTH 16 0
BBX 13 14 1 -1
BITMAP
0380
1C80
1100
0200
0200
07E0
1C10
2408
4808
8808
9388
5450
6460
0380
ENDCHAR
STARTCHAR U+3091
ENCODING 12433
SWIDTH 1000 0
DWIDTH 16 0
BBX 15 14 0 -1
BITMAP
0BC0
0C80
0100
0200
05E0
0E10
1A10
0560
0780
0800
1040
38B0
470E
C204
ENDCHAR
STARTCHAR U+3092
ENCODING 12434
SWIDTH 1000 0
DWIDTH 16 0
BBX 11 15 2 -1
BITMAP
1800
0800
0900
FF00
4800
1000
1840
E4E0
8700
0C00
1400
2400
2000
2080
1FC0
ENDCHAR
STARTCHAR U+3093
ENCODING 12435
SWIDTH 1000 0
DWIDTH 16 0
BBX 14 14 1 -1
BITMAP
0C00
0400
0800
0800
1000
1000
1380
2500
2904
3104
4108
4108
C110
80E0
ENDCHAR
STARTCHAR U+3094
ENCODING 12436
SWIDTH 1000 0
DWIDTH 16 0
BBX 12 16 3 -2
BITMAP
0020
6090
1E50
0040
0000
1E00
E100
8100
0100
0100
0100
0200
0200
0400
1800
1000
ENDCHAR
STARTCHAR U+3095
ENCODING 12437
SWIDTH 1000 0
DWIDTH 16 0
BBX 11 11 3 -2
BITMAP
3000
1000
1C80
7280
D280
1280
1260
2440
2400
CC00
8800
ENDCHAR
STARTCHAR U+3096
ENCODING 12438
SWIDTH 1000 0
DWIDTH 16 0
BBX 10 11 3 -2
BITMAP
C600
4200
4200
BFC0
A200
8200
8200
C400
4400
0800
7000
ENDCHAR
STARTCHAR U+309B
ENCODING 12443
SWIDTH 1000 0
DWIDTH 16 0
BBX 5 5 0 9
BITMAP
20
10
98
40
60
ENDCHAR
STARTCHAR U+309C
ENCODING 12444
SWIDTH 1000 0
DWIDTH 16 0
BBX 5 5 0 9
BITMAP
70
88
88
88
70
ENDCHAR
STARTCHAR U+309D
ENCODING 12445
SWIDTH 1000 0
DWIDTH 16 0
BBX 7 10 4 1
BITMAP
C0
80
40
40
20
10
08
04
1C
62
ENDCHAR
STARTCHAR U+309E
ENCODING 12446
SWIDTH 1000 0
DWIDTH 16 0
BBX 9 11 4 1
BITMAP
0100
C180
8400
4600
4000
2000
1000
0800
0400
1C00
6200
ENDCHAR
STARTCHAR U+30A1
ENCODING 12449
SWIDTH 1000 0
DWIDTH 16 0
BBX 9 8 3 -1
BITMAP
0F80
F100
9200
0C00
0800
0800
1000
6000
ENDCHAR
STARTCHAR U+30A2
ENCODING 12450
SWIDTH 1000 0
DWIDTH 16 0
BBX 12 12 2 -1
BITMAP
0FF0
F020
8040
0680
0200
0200
0200
0400
0400
0800
1000
6000
ENDCHAR
STARTCHAR U+30A3
ENCODING 12451
SWIDTH 1000 0
DWIDTH 16 0
BBX 7 11 3 -2
BITMAP
02
02
04
08
18
E8
88
08
08
18
08
ENDCHAR
STARTCHAR U+30A4
ENCODING 12452
SWIDTH 1000 0
DWIDTH 16 0
BBX 9 14 2 -1
BITMAP
0080
0080
0100
0200
0400
0C00
1400
E400
8400
0400
0400
0400
0C00
0400
ENDCHAR
STARTCHAR U+30A5
ENCODING 12453
SWIDTH 1000 0
DWIDTH 16 0
BBX 8 11 4 -2
BITMAP
30
10
12
9F
E1
81
82
02
04
08
30
ENDCHAR
STARTCHAR U+30A6
ENCODING 12454
SWIDTH 1000 0
DWIDTH 16 0
BBX 11 13 2 0
BITMAP
0C00
0400
0440
C7E0
7840
4040
4040
4040
0080
0080
0100
0600
1800
ENDCHAR
STARTCHAR U+30A7
ENCODING 12455
SWIDTH 1000 0
DWIDTH 16 0
BBX 9 7 3 0
BITMAP
4700
7900
0800
0800
0800
8F80
F080
ENDCHAR
STARTCHAR U+30A8
ENCODING 12456
SWIDTH 1000 0
DWIDTH 16 0
BBX 14 10 1 1
BITMAP
01E0
3E40
1200
0200
0200
0200
0200
0200
8FFC
F008
ENDCHAR
STARTCHAR U+30A9
ENCODING 12457
SWIDTH 1000 0
DWIDTH 16 0
BBX 10 11 2 -2
BITMAP
0600
0200
0280
7FC0
2600
0A00
1200
2200
C200
8600
0200
ENDCHAR
STARTCHAR U+30AA
ENCODING 12458
SWIDTH 1000 0
DWIDTH 16 0
BBX 13 14 1 -1
BITMAP
0080
0180
0080
0080
47F8
7A90
0280
0480
0480
0880
1080
E080
4180
0080
ENDCHAR
STARTCHAR U+30AB
ENCODING 12459
SWIDTH 1000 0
DWIDTH 16 0
BBX 11 14 2 -1
BITMAP
0C00
0400
0400
0440
0FE0
F820
8840
0840
0840
1040
1080
2080
C700
0200
ENDCHAR
STARTCHAR U+30AC
ENCODING 12460
SWIDTH 1000 0
DWIDTH 16 0
BBX 14 14 1 -1
BITMAP
0C08
0424
0414
0450
0FE0
F820
8840
0840
0840
1040
1080
2080
C700
0200
ENDCHAR
STARTCHAR U+30AD
ENCODING 12461
SWIDTH 1000 0
DWIDTH 16 0
BBX 13 14 1 -1
BITMAP
0400
0C00
0440
27C0
7C00
0200
02F8
9F10
E200
0200
0100
0100
0100
0100
ENDCHAR
STARTCHAR U+30AE
ENCODING 12462
SWIDTH 1000 0
DWIDTH 16 0
BBX 14 15 1 -1
BITMAP
0008
0424
0C14
0450
27C0
7C00
0200
02F8
9F10
E200
0200
0100
0100
0100
0100
ENDCHAR
STARTCHAR U+30AF
ENCODING 12463
SWIDTH 1000 0
DWIDTH 16 0
BBX 10 13 2 -1
BITMAP
0800
0840
0FC0
1040
1080
2080
C080
8100
0100
0200
0400
0800
7000
ENDCHAR
STARTCHAR U+30B0
ENCODING 12464
SWIDTH 1000 0
DWIDTH 16 0
BBX 14 15 1 -1
BITMAP
0008
0024
0814
0850
0FC0
1040
1080
2080
C080
8100
0100
0200
0400
0800
7000
ENDCHAR
STARTCHAR U+30B1
ENCODING 12465
SWIDTH 1000 0
DWIDTH 16 0
BBX 13 12 1 0
BITMAP
1000
1000
11F8
1F10
2100
C100
8100
0100
0200
0200
0C00
3000
ENDCHAR
STARTCHAR U+30B2
ENCODING 12466
SWIDTH 1000 0
DWIDTH 16 0
BBX 14 14 1 0
BITMAP
0008
0024
1014
1010
11E0
1F20
2100
C100
8100
0100
0200
0200
0C00
3000
ENDCHAR
STARTCHAR U+30B3
ENCODING 12467
SWIDTH 1000 0
DWIDTH 16 0
BBX 11 9 2 1
BITMAP
0060
FFC0
4040
0040
0080
0080
0080
7F80
2080
ENDCHAR
STARTCHAR U+30B4
ENCODING 12468
SWIDTH 1000 0
DWIDTH 16 0
BBX 13 13 2 1
BITMAP
0010
0048
0028
0020
0040
FFC0
4040
0040
0080
0080
0080
7F80
2080
ENDCHAR
STARTCHAR U+30B5
ENCODING 12469
SWIDTH 1000 0
DWIDTH 16 0
BBX 14 13 1 -1
BITMAP
0080
0980
1880
0880
0FFC
F888
4880
0880
0080
0100
0100
0200
1C00
ENDCHAR
STARTCHAR U+30B6
ENCODING 12470
SWIDTH 1000 0
DWIDTH 16 0
BBX 14 15 1 -1
BITMAP
0008
0024
0094
0990
1880
0880
0FFC
F888
4880
0880
0080
0100
0100
0200
1C00
ENDCHAR
STARTCHAR U+30B7
ENCODING 12471
SWIDTH 1000 0
DWIDTH 16 0
BBX 11 13 2 -1
BITMAP
4000
7000
0800
0000
8020
F020
0040
0080
0100
0200
0C00
F000
4000
ENDCHAR
STARTCHAR U+30B8
ENCODING 12472
SWIDTH 1000 0
DWIDTH 16 0
BBX 13 14 2 -1
BITMAP
0010
4048
7028
0820
0000
8020
F020
0040
0080
0100
0200
0C00
F000
4000
ENDCHAR
STARTCHAR U+30B9
ENCODING 12473
SWIDTH 1000 0
DWIDTH 16 0
BBX 13 11 1 0
BITMAP
23C0
3C40
0080
0080
0100
0100
0280
0440
0820
3018
C010
ENDCHAR
STARTCHAR U+30BA
ENCODING 12474
SWIDTH 1000 0
DWIDTH 16 0
BBX 14 14 1 0
BITMAP
0008
0024
0014
23D0
3C40
0080
0080
0100
0100
0280
0440
0820
3018
C010
ENDCHAR
STARTCHAR U+30BB
ENCODING 12475
SWIDTH 1000 0
DWIDTH 16 0
BBX 12 13 1 0
BITMAP
0800
1800
0800
0800
09F0
1E20
E840
8880
0900
0800
0800
0820
07F0
ENDCHAR
STARTCHAR U+30BC
ENCODING 12476
SWIDTH 1000 0
DWIDTH 16 0
BBX 14 14 1 0
BITMAP
0008
0824
1814
0810
0800
09F0
1E20
E840
8880
0900
0800
0800
0820
07F0
ENDCHAR
STARTCHAR U+30BD
ENCODING 12477
SWIDTH 1000 0
DWIDTH 16 0
BBX 11 13 2 -1
BITMAP
0040
4060
C040
4040
2040
2040
0080
0080
0100
0100
0200
0C00
3000
ENDCHAR
STARTCHAR U+30BE
ENCODING 12478
SWIDTH 1000 0
DWIDTH 16 0
BBX 13 15 2 -1
BITMAP
0010
0048
0028
40A0
C0C0
4080
2080
2080
0080
0100
0100
0200
0400
1800
6000
ENDCHAR
STARTCHAR U+30BF
ENCODING 12479
SWIDTH 1000 0
DWIDTH 16 0
BBX 10 13 2 -1
BITMAP
0800
0840
0FC0
1040
1080
2880
C680
8100
0100
0200
0400
0800
7000
ENDCHAR
STARTCHAR U+30C0
ENCODING 12480
SWIDTH 1000 0
DWIDTH 16 0
BBX 14 15 1 -1
BITMAP
0008
0024
0814
0850
0FC0
1040
1080
2880
C680
8100
0100
0200
0400
0800
7000
ENDCHAR
STARTCHAR U+30C1
ENCODING 12481
SWIDTH 1000 0
DWIDTH 16 0
BBX 13 14 1 -1
BITMAP
00C0
0100
0600
3900
2100
0100
8FF8
F110
0100
0100
0200
0200
0400
3800
ENDCHAR
STARTCHAR U+30C2
ENCODING 12482
SWIDTH 1000 0
DWIDTH 16 0
BBX 14 14 1 -1
BITMAP
00C0
0108
0624
3914
2110
0100
8FF8
F110
0100
0100
0200
0200
0400
3800
ENDCHAR
STARTCHAR U+30C3
ENCODING 12483
SWIDTH 1000 0
DWIDTH 16 0
BBX 9 9 3 -2
BITMAP
1900
C980
4900
4100
0100
0200
0200
0400
3800
ENDCHAR
STARTCHAR U+30C4
ENCODING 12484
SWIDTH 1000 0
DWIDTH 16 0
BBX 12 13 1 -1
BITMAP
0420
4C30
C420
4220
2220
2020
0020
0040
0040
0080
0100
0600
1800
ENDCHAR
STARTCHAR U+30C5
ENCODING 12485
SWIDTH 1000 0
DWIDTH 16 0
BBX 15 15 0 -1
BITMAP
0004
0012
040A
4C68
C420
4220
2220
2020
0020
0040
0040
0080
0100
0600
1800
ENDCHAR
STARTCHAR U+30C6
ENCODING 12486
SWIDTH 1000 0
DWIDTH 16 0
BBX 13 13 1 -1
BITMAP
27C0
3800
0000
0000
8FF8
F210
0200
0200
0200
0200
0400
0400
3800
ENDCHAR
STARTCHAR U+30C7
ENCODING 12487
SWIDTH 1000 0
DWIDTH 16 0
BBX 14 14 1 -1
BITMAP
0008
27A4
3814
0010
0000
8FF8
F210
0200
0200
0200
0200
0400
0400
3800
ENDCHAR
STARTCHAR U+30C8
ENCODING 12488
SWIDTH 1000 0
DWIDTH 16 0
BBX 7 14 5 -1
BITMAP
40
C0
40
40
40
60
5E
44
40
40
40
40
C0
40
ENDCHAR
STARTCHAR U+30C9
ENCODING 12489
SWIDTH 1000 0
DWIDTH 16 0
BBX 9 14 5 -1
BITMAP
4100
C480
4280
4200
4000
6000
5E00
4400
4000
4000
4000
4000
C000
4000
ENDCHAR
STARTCHAR U+30CA
ENCODING 12490
SWIDTH 1000 0
DWIDTH 16 0
BBX 13 14 1 -1
BITMAP
0100
0300
0100
0100
07F8
F910
4100
0100
0100
0100
0200
0200
0400
1800
ENDCHAR
STARTCHAR U+30CB
ENCODING 12491
SWIDTH 1000 0
DWIDTH 16 0
BBX 13 8 1 2
BITMAP
23C0
3C80
0000
0000
0000
0000
87F8
F810
ENDCHAR
STARTCHAR U+30CC
ENCODING 12492
SWIDTH 1000 0
DWIDTH 16 0
BBX 9 13 3 -1
BITMAP
0100
1F80
E100
8200
0200
3400
0C00
0A00
0900
1180
2000
C000
8000
ENDCHAR
STARTCHAR U+30CD
ENCODING 12493
SWIDTH 1000 0
DWIDTH 16 0
BBX 12 15 2 -1
BITMAP
0C00
0600
0400
0400
4FC0
7080
0100
0200
0500
0C80
3470
C420
8400
0C00
0400
ENDCHAR
STARTCHAR U+30CE
ENCODING 12494
SWIDTH 1000 0
DWIDTH 16 0
BBX 10 12 2 0
BITMAP
00C0
0080
0080
0080
0100
0100
0200
0400
0800
3000
C000
8000
ENDCHAR
STARTCHAR U+30CF
ENCODING 12495
SWIDTH 1000 0
DWIDTH 16 0
BBX 15 9 0 1
BITMAP
1080
0880
0880
0840
1040
1020
2010
C00E
8004
ENDCHAR
STARTCHAR U+30D0
ENCODING 12496
SWIDTH 1000 0
DWIDTH 16 0
BBX 15 11 0 1
BITMAP
0004
0012
108A
0888
0880
0840
1040
1020
2010
C00E
8004
ENDCHAR
STARTCHAR U+30D1
ENCODING 12497
SWIDTH 1000 0
DWIDTH 16 0
BBX 15 11 0 1
BITMAP
000C
0012
1092
088C
0880
0840
1040
1020
2010
C00E
8004
ENDCHAR
STARTCHAR U+30D2
ENCODING 12498
SWIDTH 1000 0
DWIDTH 16 0
BBX 10 12 3 0
BITMAP
C000
4000
4000
40C0
4380
7C00
4000
4000
4000
4000
4080
3FC0
ENDCHAR
STARTCHAR U+30D3
ENCODING 12499
SWIDTH 1000 0
DWIDTH 16 0
BBX 12 13 3 0
BITMAP
0020
C090
4050
4040
4080
4380
7C00
4000
4000
4000
4000
4080
3FC0
ENDCHAR
STARTCHAR U+30D4
ENCODING 12500
SWIDTH 1000 0
DWIDTH 16 0
BBX 12 13 3 0
BITMAP
0060
C090
4090
4060
4080
4380
7C00
4000
4000
4000
4000
4080
3FC0
ENDCHAR
STARTCHAR U+30D5
ENCODING 12501
SWIDTH 1000 0
DWIDTH 16 0
BBX 10 11 2 0
BITMAP
0040
0FC0
F040
8040
0080
0080
0100
0100
0200
0C00
3000
ENDCHAR
STARTCHAR U+30D6
ENCODING 12502
SWIDTH 1000 0
DWIDTH 16 0
BBX 13 14 2 0
BITMAP
0010
0048
0028
00A0
0F80
F080
8080
0100
0100
0200
0200
0400
1800
6000
ENDCHAR
STARTCHAR U+30D7
ENCODING 12503
SWIDTH 1000 0
DWIDTH 16 0
BBX 13 14 2 0
BITMAP
0030
0048
0048
00B0
0F80
F080
8080
0100
0100
0200
0200
0400
1800
6000
ENDCHAR
STARTCHAR U+30D8
ENCODING 12504
SWIDTH 1000 0
DWIDTH 16 0
BBX 15 7 0 3
BITMAP
0600
0900
9080
6040
4020
0010
000E
ENDCHAR
STARTCHAR U+30D9
ENCODING 12505
SWIDTH 1000 0
DWIDTH 16 0
BBX 15 10 0 3
BITMAP
0010
0048
0028
0620
0900
9080
6040
4020
0010
000E
ENDCHAR
STARTCHAR U+30DA
ENCODING 12506
SWIDTH 1000 0
DWIDTH 16 0
BBX 15 10 0 3
BITMAP
0030
0048
0048
0630
0900
9080
6040
4020
0010
000E
ENDCHAR
STARTCHAR U+30DB
ENCODING 12507
SWIDTH 1000 0
DWIDTH 16 0
BBX 13 14 2 -1
BITMAP
0400
0C00
0400
0400
87F0
FC20
0400
0480
2480
2440
C438
8410
0C00
0400
ENDCHAR
STARTCHAR U+30DC
ENCODING 12508
SWIDTH 1000 0
DWIDTH 16 0
BBX 13 15 2 -1
BITMAP
0010
0448
0C28
0420
0400
87F0
FC20
0400
0480
2480
2440
C438
8410
0C00
0400
ENDCHAR
STARTCHAR U+30DD
ENCODING 12509
SWIDTH 1000 0
DWIDTH 16 0
BBX 13 15 2 -1
BITMAP
0030
0448
0C48
0430
0400
87F0
FC20
0400
0480
2480
2440
C438
8410
0C00
0400
ENDCHAR
STARTCHAR U+30DE
ENCODING 12510
SWIDTH 1000 0
DWIDTH 16 0
BBX 12 9 2 1
BITMAP
0FF0
F020
8040
0180
0A00
0400
0200
0100
0180
ENDCHAR
STARTCHAR U+30DF
ENCODING 12511
SWIDTH 1000 0
DWIDTH 16 0
BBX 9 12 3 -1
BITMAP
7800
0700
0100
0000
3800
0600
0200
0000
F000
0C00
0300
0180
ENDCHAR
STARTCHAR U+30E0
ENCODING 12512
SWIDTH 1000 0
DWIDTH 16 0
BBX 12 12 2 0
BITMAP
0600
0400
0800
0800
1200
1100
2100
2080
2040
47F0
F820
8000
ENDCHAR
STARTCHAR U+30E1
ENCODING 12513
SWIDTH 1000 0
DWIDTH 16 0
BBX 11 12 1 0
BITMAP
0040
0040
0040
0080
1C80
0300
0180
0240
0460
0800
3000
C000
ENDCHAR
STARTCHAR U+30E2
ENCODING 12514
SWIDTH 1000 0
DWIDTH 16 0
BBX 13 12 1 0
BITMAP
13C0
3C00
0400
0410
47F8
FC00
0400
0400
0400
0400
0420
03F0
ENDCHAR
STARTCHAR U+30E3
ENCODING 12515
SWIDTH 1000 0
DWIDTH 16 0
BBX 10 10 2 -2
BITMAP
1000
3080
13C0
1C80
E900
8A00
0400
0400
0200
0200
ENDCHAR
STARTCHAR U+30E4
ENCODING 12516
SWIDTH 1000 0
DWIDTH 16 0
BBX 13 14 1 -1
BITMAP
1000
3000
1000
08F8
0B10
1C20
E440
8480
0200
0200
0200
0100
0100
0100
ENDCHAR
STARTCHAR U+30E5
ENCODING 12517
SWIDTH 1000 0
DWIDTH 16 0
BBX 10 7 2 0
BITMAP
2700
3900
0200
0200
0200
8FC0
7040
ENDCHAR
STARTCHAR U+30E6
ENCODING 12518
SWIDTH 1000 0
DWIDTH 16 0
BBX 13 8 1 1
BITMAP
27C0
3880
0080
0100
0100
07F8
F810
4000
ENDCHAR
STARTCHAR U+30E7
ENCODING 12519
SWIDTH 1000 0
DWIDTH 16 0
BBX 7 8 4 -1
BITMAP
FE
44
04
7C
44
04
FC
44
ENDCHAR
STARTCHAR U+30E8
ENCODING 12520
SWIDTH 1000 0
DWIDTH 16 0
BBX 11 11 2 0
BITMAP
8060
7FC0
0040
0040
4040
3F80
0080
0080
0080
7F80
2080
ENDCHAR
STARTCHAR U+30E9
ENCODING 12521
SWIDTH 1000 0
DWIDTH 16 0
BBX 10 13 3 -1
BITMAP
0F00
F000
0000
0080
9FC0
E080
0080
0080
0100
0100
0200
0C00
3000
ENDCHAR
STARTCHAR U+30EA
ENCODING 12522
SWIDTH 1000 0
DWIDTH 16 0
BBX 8 15 3 -2
BITMAP
02
43
C2
42
42
42
42
42
02
02
02
02
04
78
20
ENDCHAR
STARTCHAR U+30EB
ENCODING 12523
SWIDTH 1000 0
DWIDTH 16 0
BBX 15 13 0 -1
BITMAP
0100
0980
1900
0900
0900
0900
0900
0900
110E
1130
21C0
C100
8000
ENDCHAR
STARTCHAR U+30EC
ENCODING 12524
SWIDTH 1000 0
DWIDTH 16 0
BBX 11 12 3 0
BITMAP
C000
6000
4000
4000
4000
4020
4040
4080
4300
4C00
F000
8000
ENDCHAR
STARTCHAR U+30ED
ENCODING 12525
SWIDTH 1000 0
DWIDTH 16 0
BBX 11 9 2 1
BITMAP
8060
FFC0
4040
4040
4080
4080
4080
7F80
4080
ENDCHAR
STARTCHAR U+30EE
ENCODING 12526
SWIDTH 1000 0
DWIDTH 16 0
BBX 9 9 3 -2
BITMAP
CF80
7100
4100
4100
0100
0200
0200
0400
3800
ENDCHAR
STARTCHAR U+30EF
ENCODING 12527
SWIDTH 1000 0
DWIDTH 16 0
BBX 10 12 2 0
BITMAP
0040
C7C0
7840
4040
4040
4040
4040
0080
0080
0100
0600
1800
ENDCHAR
STARTCHAR U+30F0
ENCODING 12528
SWIDTH 1000 0
DWIDTH 16 0
BBX 13 14 1 -1
BITMAP
0100
0300
0100
0100
23E0
3D20
0900
0900
8FF8
F110
0100
0100
0100
0100
ENDCHAR
STARTCHAR U+30F1
ENCODING 12529
SWIDTH 1000 0
DWIDTH 16 0
BBX 14 9 1 1
BITMAP
11E0
3E20
0040
0680
0300
0200
0200
8FFC
F008
ENDCHAR
STARTCHAR U+30F2
ENCODING 12530
SWIDTH 1000 0
DWIDTH 16 0
BBX 10 13 3 -1
BITMAP
0080
0FC0
F080
8080
0080
0F80
7080
4100
0100
0200
0200
0C00
3000
ENDCHAR
STARTCHAR U+30F3
ENCODING 12531
SWIDTH 1000 0
DWIDTH 16 0
BBX 11 11 2 0
BITMAP
4000
E020
1020
0040
0040
0080
0100
0200
0C00
F000
4000
ENDCHAR
STARTCHAR U+30F4
ENCODING 12532
SWIDTH 1000 0
DWIDTH 16 0
BBX 14 14 1 0
BITMAP
0008
0C24
0414
0450
87C0
F840
8040
8040
8040
0080
0080
0100
0600
1800
ENDCHAR
STARTCHAR U+30F5
ENCODING 12533
SWIDTH 1000 0
DWIDTH 16 0
BBX 9 10 3 -2
BITMAP
1800
0800
0F80
7880
4880
0880
1100
1100
2300
C200
ENDCHAR
STARTCHAR U+30F6
ENCODING 12534
SWIDTH 1000 0
DWIDTH 16 0
BBX 10 11 2 -2
BITMAP
1000
1000
1080
3FC0
2200
C200
8200
0400
0400
0800
7000
ENDCHAR
STARTCHAR U+30F7
ENCODING 12535
SWIDTH 1000 0
DWIDTH 16 0
BBX 13 14 2 0
BITMAP
0010
0048
0028
C7E0
7840
4040
4040
4040
4040
0080
0080
0100
0600
1800
ENDCHAR
STARTCHAR U+30F8
ENCODING 12536
SWIDTH 1000 0
DWIDTH 16 0
BBX 14 15 1 -1
BITMAP
0008
0124
0314
0110
0100
23E0
3D20
0900
0900
8FF8
F110
0100
0100
0100
0100
ENDCHAR
STARTCHAR U+30F9
ENCODING 12537
SWIDTH 1000 0
DWIDTH 16 0
BBX 14 13 1 1
BITMAP
0008
0024
0014
0010
11E0
3E20
0040
0680
0300
0200
0200
8FFC
F008
ENDCHAR
STARTCHAR U+30FA
ENCODING 12538
SWIDTH 1000 0
DWIDTH 16 0
BBX 12 15 3 -1
BITMAP
0020
0090
0050
0FC0
F080
8080
0080
0F80
7080
4100
0100
0200
0200
0C00
3000
ENDCHAR
STARTCHAR U+30FB
ENCODING 12539
SWIDTH 1000 0
DWIDTH 16 0
BBX 2 2 7 5
BITMAP
C0
C0
ENDCHAR
STARTCHAR U+30FC
ENCODING 12540
SWIDTH 1000 0
DWIDTH 16 0
BBX 12 2 2 5
BITMAP
FFF0
4000
ENDCHAR
STARTCHAR U+30FD
ENCODING 12541
SWIDTH 1000 0
DWIDTH 16 0
BBX 6 7 4 2
BITMAP
C0
20
10
08
04
04
04
ENDCHAR
STARTCHAR U+30FE
ENCODING 12542
SWIDTH 1000 0
DWIDTH 16 0
BBX 9 10 3 2
BITMAP
0100
0180
0400
C600
2000
1000
0800
0400
0400
0400
ENDCHAR
STARTCHAR U+3105
ENCODING 12549
SWIDTH 1000 0
DWIDTH 16 0
BBX 11 14 2 -1
BITMAP
2000
2000
2040
43E0
7C40
C040
0040
0040
0080
0080
0080
0100
0700
0200
ENDCHAR
STARTCHAR U+3106
ENCODING 12550
SWIDTH 1000 0
DWIDTH 16 0
BBX 10 14 2 -1
BITMAP
2000
2000
2080
4FC0
7080
C080
1900
0600
0300
0500
0880
30C0
C000
8000
ENDCHAR
STARTCHAR U+3107
ENCODING 12551
SWIDTH 1000 0
DWIDTH 16 0
BBX 10 13 2 0
BITMAP
0040
C7C0
7840
4040
4040
4040
4040
4040
4040
4040
4040
4040
C0C0
ENDCHAR
STARTCHAR U+3108
ENCODING 12552
SWIDTH 1000 0
DWIDTH 16 0
BBX 11 12 2 0
BITMAP
83E0
FC40
4000
4000
4000
4000
4000
4000
4000
4000
4040
3FE0
ENDCHAR
STARTCHAR U+3109
ENCODING 12553
SWIDTH 1000 0
DWIDTH 16 0
BBX 11 14 2 -1
BITMAP
2000
2000
2040
43E0
7C40
C840
0840
0840
1080
1080
2080
C100
8700
0200
ENDCHAR
STARTCHAR U+310A
ENCODING 12554
SWIDTH 1000 0
DWIDTH 16 0
BBX 13 13 1 0
BITMAP
0300
0200
0200
0200
07F8
FC10
4400
0840
0840
1020
13F8
7C10
4000
ENDCHAR
STARTCHAR U+310B
ENCODING 12555
SWIDTH 1000 0
DWIDTH 16 0
BBX 11 14 2 -1
BITMAP
0100
FF00
4200
0200
0440
0BE0
1C40
1040
0040
0080
0080
0100
0700
0200
ENDCHAR
STARTCHAR U+310C
ENCODING 12556
SWIDTH 1000 0
DWIDTH 16 0
BBX 12 14 1 -1
BITMAP
0200
2200
2220
43F0
5E20
E420
0420
0420
0840
0840
1040
6080
4380
0100
ENDCHAR
STARTCHAR U+310D
ENCODING 12557
SWIDTH 1000 0
DWIDTH 16 0
BBX 11 13 2 0
BITMAP
0880
0CC0
0880
1100
1100
2200
4400
CC00
2200
1100
0880
0440
0660
ENDCHAR
STARTCHAR U+310E
ENCODING 12558
SWIDTH 1000 0
DWIDTH 16 0
BBX 12 14 2 -1
BITMAP
00F0
8F20
F400
0400
0840
13E0
3C40
2040
0040
0080
0080
0100
0700
0200
ENDCHAR
STARTCHAR U+310F
ENCODING 12559
SWIDTH 1000 0
DWIDTH 16 0
BBX 12 13 2 -1
BITMAP
41F0
7E20
2000
2000
2000
2000
2000
2000
2000
2000
4000
C000
8000
ENDCHAR
STARTCHAR U+3110
ENCODING 12560
SWIDTH 1000 0
DWIDTH 16 0
BBX 8 14 3 -1
BITMAP
01
03
C1
61
41
41
41
43
4D
F1
81
01
01
03
ENDCHAR
STARTCHAR U+3111
ENCODING 12561
SWIDTH 1000 0
DWIDTH 16 0
BBX 9 14 3 -1
BITMAP
0200
0300
0400
0800
1000
2000
4000
C000
3000
0C00
0200
0100
0180
0080
ENDCHAR
STARTCHAR U+3112
ENCODING 12562
SWIDTH 1000 0
DWIDTH 16 0
BBX 13 13 1 -1
BITMAP
07F8
FA10
4200
0200
0200
0200
0200
0200
0200
0200
0200
0200
0600
ENDCHAR
STARTCHAR U+3113
ENCODING 12563
SWIDTH 1000 0
DWIDTH 16 0
BBX 13 14 1 -1
BITMAP
0200
0620
2260
6220
2220
2220
23E0
3E20
2220
0200
0200
07F8
F810
4000
ENDCHAR
STARTCHAR U+3114
ENCODING 12564
SWIDTH 1000 0
DWIDTH 16 0
BBX 10 14 2 -1
BITMAP
0300
0200
0440
18C0
6100
0600
1C00
E400
8400
0400
0400
0400
0C00
0400
ENDCHAR
STARTCHAR U+3115
ENCODING 12565
SWIDTH 1000 0
DWIDTH 16 0
BBX 11 14 2 -1
BITMAP
0060
87C0
F840
0040
0080
2780
7880
2000
2000
2000
2000
4000
C000
8000
ENDCHAR
STARTCHAR U+3116
ENCODING 12566
SWIDTH 1000 0
DWIDTH 16 0
BBX 11 13 2 0
BITMAP
8060
FFC0
4040
4040
5040
4840
4840
4480
4680
4080
4080
7F80
4080
ENDCHAR
STARTCHAR U+3117
ENCODING 12567
SWIDTH 1000 0
DWIDTH 16 0
BBX 11 13 2 -1
BITMAP
43E0
FC20
0420
0420
0440
0440
0640
0580
0480
0400
0400
0C00
0400
ENDCHAR
STARTCHAR U+3118
ENCODING 12568
SWIDTH 1000 0
DWIDTH 16 0
BBX 12 14 1 -1
BITMAP
0C00
0800
0810
8FF0
F800
0800
1040
1FE0
3040
0040
0080
0080
0300
0200
ENDCHAR
STARTCHAR U+3119
ENCODING 12569
SWIDTH 1000 0
DWIDTH 16 0
BBX 12 12 2 0
BITMAP
0C00
0800
0800
0800
1000
1080
1040
1040
2020
27E0
F820
8030
ENDCHAR
STARTCHAR U+311A
ENCODING 12570
SWIDTH 1000 0
DWIDTH 16 0
BBX 9 14 3 -1
BITMAP
0080
C080
4100
2200
0C00
1800
0800
0800
0800
0800
0800
0800
1800
0800
ENDCHAR
STARTCHAR U+311B
ENCODING 12571
SWIDTH 1000 0
DWIDTH 16 0
BBX 13 13 1 -1
BITMAP
01F8
FF10
4100
0100
0100
0F00
1180
2000
2000
2000
1020
0840
0780
ENDCHAR
STARTCHAR U+311C
ENCODING 12572
SWIDTH 1000 0
DWIDTH 16 0
BBX 13 15 1 -1
BITMAP
0600
0200
0200
03F8
FE10
4200
0200
0E00
1300
2000
2000
2000
1020
0840
0780
ENDCHAR
STARTCHAR U+311D
ENCODING 12573
SWIDTH 1000 0
DWIDTH 16 0
BBX 14 14 1 -1
BITMAP
10C0
3040
1040
1048
13FC
FC40
9040
1040
10C0
1000
1000
0C00
03F0
0020
ENDCHAR
STARTCHAR U+311E
ENCODING 12574
SWIDTH 1000 0
DWIDTH 16 0
BBX 13 13 1 -1
BITMAP
8FF8
F210
0200
1200
1220
3FF0
6220
0220
0420
0440
0840
3180
2100
ENDCHAR
STARTCHAR U+311F
ENCODING 12575
SWIDTH 1000 0
DWIDTH 16 0
BBX 13 14 1 -1
BITMAP
1800
E800
4800
0800
0400
0400
0400
0200
0200
0100
0080
0040
0038
0010
ENDCHAR
STARTCHAR U+3120
ENCODING 12576
SWIDTH 1000 0
DWIDTH 16 0
BBX 12 14 2 -1
BITMAP
0C00
0800
0800
1180
1100
2200
7E00
4400
0800
0900
1080
2340
FC70
8020
ENDCHAR
STARTCHAR U+3121
ENCODING 12577
SWIDTH 1000 0
DWIDTH 16 0
BBX 11 12 2 0
BITMAP
0040
4FE0
7040
0040
3080
0880
0500
0300
0280
0440
9860
E020
ENDCHAR
STARTCHAR U+3122
ENCODING 12578
SWIDTH 1000 0
DWIDTH 16 0
BBX 12 14 2 -1
BITMAP
0080
87C0
F880
0080
3180
2120
20F0
7F20
4020
0020
0040
0040
0180
0100
ENDCHAR
STARTCHAR U+3123
ENCODING 12579
SWIDTH 1000 0
DWIDTH 16 0
BBX 12 14 2 -1
BITMAP
3000
2000
2000
4000
4020
43F0
FC20
8020
0040
0040
0080
0080
0300
0200
ENDCHAR
STARTCHAR U+3124
ENCODING 12580
SWIDTH 1000 0
DWIDTH 16 0
BBX 13 14 1 -1
BITMAP
0200
0600
0200
0200
03F8
FC10
4500
0500
0500
0900
0900
1100
60F8
4010
ENDCHAR
STARTCHAR U+3125
ENCODING 12581
SWIDTH 1000 0
DWIDTH 16 0
BBX 12 12 2 0
BITMAP
0600
0400
0400
0800
0800
0800
1000
1000
2000
27F0
F820
8000
ENDCHAR
STARTCHAR U+3126
ENCODING 12582
SWIDTH 1000 0
DWIDTH 16 0
BBX 13 14 1 -1
BITMAP
0100
0980
1900
0900
0900
0900
0900
0900
0900
1100
1100
2100
C0F8
8010
ENDCHAR
STARTCHAR U+3127
ENCODING 12583
SWIDTH 1000 0
DWIDTH 16 0
BBX 12 2 2 6
BITMAP
83F0
FC10
ENDCHAR
STARTCHAR U+3128
ENCODING 12584
SWIDTH 1000 0
DWIDTH 16 0
BBX 12 13 1 0
BITMAP
0040
0040
3040
0840
0480
0280
0100
0180
0240
0420
0830
3010
C000
ENDCHAR
STARTCHAR U+3129
ENCODING 12585
SWIDTH 1000 0
DWIDTH 16 0
BBX 10 13 2 0
BITMAP
00C0
C040
4040
4040
4040
4040
4040
4040
4040
4040
43C0
FC40
8000
ENDCHAR
STARTCHAR U+312A
ENCODING 12586
SWIDTH 1000 0
DWIDTH 16 0
BBX 13 14 1 -1
BITMAP
0008
83F8
FC00
0400
0420
05F0
0620
0420
0820
0820
1040
6040
4380
0100
ENDCHAR
STARTCHAR U+312B
ENCODING 12587
SWIDTH 1000 0
DWIDTH 16 0
BBX 13 14 1 -1
BITMAP
0008
83F8
FC80
0880
0880
0880
0880
0880
0880
1080
1080
2080
C078
8010
ENDCHAR
STARTCHAR U+312C
ENCODING 12588
SWIDTH 1000 0
DWIDTH 16 0
BBX 13 14 1 -1
BITMAP
0300
0100
41F8
7E10
2000
2000
2000
2000
2000
2000
2000
4000
C000
8000
ENDCHAR
STARTCHAR U+312D
ENCODING 12589
SWIDTH 1000 0
DWIDTH 16 0
BBX 13 14 1 -1
BITMAP
07F8
FA10
4200
0220
23E0
7E20
2220
2220
2220
2220
6260
0200
0200
0600
ENDCHAR
STARTCHAR U+312E
ENCODING 12590
SWIDTH 1000 0
DWIDTH 16 0
BBX 13 15 1 -1
BITMAP
0600
0600
0000
03F8
FE10
4200
0200
0E00
1300
2000
2000
2000
1020
0840
0780
ENDCHAR
STARTCHAR U+312F
ENCODING 12591
SWIDTH 1000 0
DWIDTH 16 0
BBX 13 14 1 -1
BITMAP
0080
8FC0
F100
0200
0410
09F8
1E10
1210
0210
0210
0220
02E0
0240
0600
ENDCHAR
STARTCHAR U+3220
ENCODING 12832
SWIDTH 1000 0
DWIDTH 16 0
BBX 15 16 0 -2
BITMAP
1830
2008
4004
4004
8002
8002
9012
9FF2
9012
8002
8002
4004
4004
2008
1830
0820
ENDCHAR
STARTCHAR U+3221
ENCODING 12833
SWIDTH 1000 0
DWIDTH 16 0
BBX 15 16 0 -2
BITMAP
1830
2008
4004
4004
8822
8FE2
8822
8002
8002
9012
9FF2
5014
4004
2008
1830
0820
ENDCHAR
STARTCHAR U+3222
ENCODING 12834
SWIDTH 1000 0
DWIDTH 16 0
BBX 15 16 0 -2
BITMAP
1830
2008
4004
5014
9FF2
9012
8822
8FE2
8822
8002
9012
5FF4
5014
2008
1830
0820
ENDCHAR
STARTCHAR U+3223
ENCODING 12835
SWIDTH 1000 0
DWIDTH 16 0
BBX 15 16 0 -2
BITMAP
1830
2008
4004
5014
BFFA
9292
9292
9292
9C72
9812
9012
5FF4
5014
2008
1830
0820
ENDCHAR
STARTCHAR U+3224
ENCODING 12836
SWIDTH 1000 0
DWIDTH 16 0
BBX 15 16 0 -2
BITMAP
1830
2008
4004
5014
9FF2
9112
8942
8FE2
8A42
8242
9252
5FF4
5014
2008
1830
0820
ENDCHAR
STARTCHAR U+3225
ENCODING 12837
SWIDTH 1000 0
DWIDTH 16 0
BBX 15 16 0 -2
BITMAP
1830
2008
4004
4304
8102
9112
9FF2
9012
8282
8442
9832
5014
4004
2008
1830
0820
ENDCHAR
STARTCHAR U+3226
ENCODING 12838
SWIDTH 1000 0
DWIDTH 16 0
BBX 15 16 0 -2
BITMAP
1830
2008
4004
4704
8212
8272
9392
9E02
9202
8202
8222
4224
41F4
2008
1830
0820
ENDCHAR
STARTCHAR U+3227
ENCODING 12839
SWIDTH 1000 0
DWIDTH 16 0
BBX 15 16 0 -2
BITMAP
1830
2008
4004
4284
8282
8282
8282
8442
8442
8822
9832
5014
4004
2008
1830
0820
ENDCHAR
STARTCHAR U+3228
ENCODING 12840
SWIDTH 1000 0
DWIDTH 16 0
BBX 15 16 0 -2
BITMAP
1830
2008
4004
4704
8202
9282
9FC2
9282
8282
8482
84A2
58A4
5074
2008
1830
0820
ENDCHAR
STARTCHAR U+3229
ENCODING 12841
SWIDTH 1000 0
DWIDTH 16 0
BBX 15 16 0 -2
BITMAP
1830
2008
4004
4304
8102
8102
9112
9FF2
9112
8102
8102
4104
4304
2008
1830
0820
ENDCHAR
STARTCHAR U+3231
ENCODING 12849
SWIDTH 1000 0
DWIDTH 16 0
BBX 15 15 0 -1
BITMAP
1010
39C8
4954
6BF4
BE52
A84A
9FFA
9A4A
EBE2
C8D2
895A
4E4C
4C44
38C8
1010
ENDCHAR
STARTCHAR U+3232
ENCODING 12850
SWIDTH 1000 0
DWIDTH 16 0
BBX 15 15 0 -1
BITMAP
1010
2608
5214
5FF4
9212
8402
8FC2
B442
A7C2
8442
87C2
4444
44C4
2448
1010
ENDCHAR
STARTCHAR U+3239
ENCODING 12857
SWIDTH 1000 0
DWIDTH 16 0
BBX 15 15 0 -1
BITMAP
1010
2D88
44A4
44B4
888A
8FFA
B88A
A882
8882
8842
8842
4854
4824
3838
1010
ENDCHAR
STARTCHAR U+32A4
ENCODING 12964
SWIDTH 1000 0
DWIDTH 16 0
BBX 15 16 0 -2
BITMAP
07C0
1830
2608
4204
4204
8222
83E2
8222
8202
8202
9212
5FF4
5014
2008
1830
07C0
ENDCHAR
STARTCHAR U+32A5
ENCODING 12965
SWIDTH 1000 0
DWIDTH 16 0
BBX 15 16 0 -2
BITMAP
07C0
1830
2608
4204
5224
9FE2
9222
9222
9222
9FE2
9222
4204
4204
2208
1830
07C0
ENDCHAR
STARTCHAR U+32A6
ENCODING 12966
SWIDTH 1000 0
DWIDTH 16 0
BBX 15 16 0 -2
BITMAP
07C0
1830
2008
5014
5FF4
9212
8202
8382
8262
8222
8202
4204
4204
2208
1830
07C0
ENDCHAR
STARTCHAR U+32A7
ENCODING 12967
SWIDTH 1000 0
DWIDTH 16 0
BBX 15 16 0 -2
BITMAP
07C0
1830
2608
4204
6214
BFF2
A412
8422
8FE2
88A2
B082
6894
4FF4
2818
1830
07C0
ENDCHAR
STARTCHAR U+32A8
ENCODING 12968
SWIDTH 1000 0
DWIDTH 16 0
BBX 15 16 0 -2
BITMAP
07C0
1830
2608
4204
6214
BFF2
A412
8442
8FE2
B442
A442
4444
4FC4
2448
1830
07C0
ENDCHAR
STARTCHAR U+32FF
ENCODING 13055
SWIDTH 1000 0
DWIDTH 16 0
BBX 15 12 0 0
BITMAP
1010
1070
29CA
C64E
B3FA
144A
FEEA
84DA
095E
684A
1040
18C0
ENDCHAR
STARTCHAR U+3303
ENCODING 13059
SWIDTH 1000 0
DWIDTH 16 0
BBX 15 15 0 -2
BITMAP
9F00
E200
1400
1900
10FE
1080
2000
2300
4D00
0500
0510
0520
0940
0980
1100
ENDCHAR
STARTCHAR U+330D
ENCODING 13069
SWIDTH 1000 0
DWIDTH 16 0
BBX 15 16 0 -2
BITMAP
3000
10C6
1E7A
F242
1242
2244
2244
5C7C
8844
0600
6400
44FE
4440
4400
0800
3000
ENDCHAR
STARTCHAR U+3314
ENCODING 13076
SWIDTH 1000 0
DWIDTH 16 0
BBX 15 15 0 -1
BITMAP
3000
1000
1000
1C00
F000
1000
1000
1ECE
F072
0842
0842
0844
0844
007C
0044
ENDCHAR
STARTCHAR U+3318
ENCODING 13080
SWIDTH 1000 0
DWIDTH 16 0
BBX 15 16 0 -2
BITMAP
3100
249C
3EE0
451E
45E4
8808
0808
1010
2360
C100
0100
0200
0240
05E0
1E30
0810
ENDCHAR
STARTCHAR U+3322
ENCODING 13090
SWIDTH 1000 0
DWIDTH 16 0
BBX 15 16 0 -2
BITMAP
6080
2040
3F60
E202
2404
2098
2060
1F40
0080
0F80
0100
03F8
3D00
0100
0200
0C00
ENDCHAR
STARTCHAR U+3323
ENCODING 13091
SWIDTH 1000 0
DWIDTH 16 0
BBX 15 16 0 -2
BITMAP
6080
2040
3F60
E202
2404
2098
2060
1F40
0200
0200
0200
0380
0260
0220
0200
0200
ENDCHAR
STARTCHAR U+3326
ENCODING 13094
SWIDTH 1000 0
DWIDTH 16 0
BBX 14 16 1 -2
BITMAP
C200
4900
4500
4400
6000
5800
4C00
40C0
4340
4140
4140
0144
0248
0250
0460
0840
ENDCHAR
STARTCHAR U+3327
ENCODING 13095
SWIDTH 1000 0
DWIDTH 16 0
BBX 13 15 2 -1
BITMAP
C000
4000
4000
4000
6000
5800
4A00
4100
4180
4008
4010
0420
0240
0380
0200
ENDCHAR
STARTCHAR U+332B
ENCODING 13099
SWIDTH 1000 0
DWIDTH 16 0
BBX 15 15 0 -1
BITMAP
1380
6A80
2780
2400
24FE
4240
8200
0200
C030
4210
5990
E83C
5256
4990
3D10
ENDCHAR
STARTCHAR U+3336
ENCODING 13110
SWIDTH 1000 0
DWIDTH 16 0
BBX 15 16 0 -2
BITMAP
0060
1044
187C
A448
6288
4310
0120
0040
6080
4818
7C68
4828
ABAA
122A
204C
4088
ENDCHAR
STARTCHAR U+333B
ENCODING 13115
SWIDTH 1000 0
DWIDTH 16 0
BBX 15 16 0 -2
BITMAP
0380
0280
1B80
1400
A47E
6220
4300
0100
0410
0328
0810
0610
0040
0880
0700
0400
ENDCHAR
STARTCHAR U+3349
ENCODING 13129
SWIDTH 1000 0
DWIDTH 16 0
BBX 15 15 0 -2
BITMAP
6000
1800
0C00
0000
6006
1064
0844
0044
C044
3044
0804
0C04
0008
0008
0030
ENDCHAR
STARTCHAR U+334A
ENCODING 13130
SWIDTH 1000 0
DWIDTH 16 0
BBX 15 16 0 -2
BITMAP
380C
0468
0048
3848
0448
0008
7010
0C10
0460
0018
6A68
5528
502A
4BAA
4A4C
8888
ENDCHAR
STARTCHAR U+334D
ENCODING 13133
SWIDTH 1000 0
DWIDTH 16 0
BBX 15 16 0 -2
BITMAP
0600
0400
4800
3100
10FE
2880
4C00
8030
60D0
2050
2050
3852
2694
2098
2110
2200
ENDCHAR
STARTCHAR U+3351
ENCODING 13137
SWIDTH 1000 0
DWIDTH 16 0
BBX 14 16 1 -2
BITMAP
0C00
C800
8800
8888
8A48
8950
1110
1020
60C0
2000
2060
31A0
28A4
2CA8
20B0
2320
ENDCHAR
STARTCHAR U+3357
ENCODING 13143
SWIDTH 1000 0
DWIDTH 16 0
BBX 13 15 1 -2
BITMAP
9E00
E200
8248
8528
04A8
0890
1020
2C40
0480
0400
0700
04C0
0440
0400
0400
ENDCHAR
STARTCHAR U+337B
ENCODING 13179
SWIDTH 1000 0
DWIDTH 16 0
BBX 15 12 0 0
BITMAP
821C
FE8A
92FE
5488
54AA
92FA
FEAC
92AA
116A
1354
1266
3802
ENDCHAR
STARTCHAR U+337C
ENCODING 13180
SWIDTH 1000 0
DWIDTH 16 0
BBX 15 13 0 0
BITMAP
0200
3E10
AA70
EBCA
AA4E
BFFA
E44A
AEEA
AADA
EB5E
AA4A
0E40
0AC0
ENDCHAR
STARTCHAR U+337D
ENCODING 13181
SWIDTH 1000 0
DWIDTH 16 0
BBX 15 13 0 0
BITMAP
3104
11FC
9324
FE20
93A0
10A4
10BC
28A4
28A0
28A0
44A2
C7FE
8302
ENDCHAR
STARTCHAR U+337E
ENCODING 13182
SWIDTH 1000 0
DWIDTH 16 0
BBX 15 14 0 -1
BITMAP
0A98
AE48
EA48
AA94
AE52
EA5E
AA32
AE40
EA5E
AAD2
0A52
1252
1E5E
2472
ENDCHAR
STARTCHAR U+337F
ENCODING 13183
SWIDTH 1000 0
DWIDTH 16 0
BBX 15 15 0 -1
BITMAP
541C
5E8A
F4FE
5F08
ECF8
D62A
75F4
4486
3058
AAE8
DE2A
005E
FEE8
244A
FA7E
ENDCHAR
STARTCHAR U+338E
ENCODING 13198
SWIDTH 1000 0
DWIDTH 16 0
BBX 14 10 1 -1
BITMAP
D86C
7490
5490
5490
5460
5440
54F8
FE84
0084
0078
ENDCHAR
STARTCHAR U+338F
ENCODING 13199
SWIDTH 1000 0
DWIDTH 16 0
BBX 14 14 1 -1
BITMAP
C000
4000
4000
4000
4E6C
4490
4890
7090
5060
4840
44F8
EE84
0084
0078
ENDCHAR
STARTCHAR U+339C
ENCODING 13212
SWIDTH 1000 0
DWIDTH 16 0
BBX 14 8 1 1
BITMAP
D9B0
74E8
54A8
54A8
54A8
54A8
54A8
FFFC
ENDCHAR
STARTCHAR U+339D
ENCODING 13213
SWIDTH 1000 0
DWIDTH 16 0
BBX 13 8 2 1
BITMAP
6B60
99D0
8950
8150
8150
8950
8950
73F8
ENDCHAR
STARTCHAR U+339E
ENCODING 13214
SWIDTH 1000 0
DWIDTH 16 0
BBX 14 12 1 1
BITMAP
C000
4000
4000
4000
5DB0
48E8
50A8
60A8
50A8
48A8
48A8
EDFC
ENDCHAR
STARTCHAR U+33A1
ENCODING 13217
SWIDTH 1000 0
DWIDTH 16 0
BBX 12 12 2 1
BITMAP
0060
0090
0010
0060
EE80
59F0
4900
4900
4900
4900
4900
FF80
ENDCHAR
STARTCHAR U+33C4
ENCODING 13252
SWIDTH 1000 0
DWIDTH 16 0
BBX 12 8 2 1
BITMAP
68D0
9930
8910
8100
8100
8910
8910
70E0
ENDCHAR
STARTCHAR U+33CD
ENCODING 13261
SWIDTH 1000 0
DWIDTH 16 0
BBX 15 13 0 -1
BITMAP
EFDC
4488
4488
4890
50A0
60C0
50A0
4890
4890
4488
4488
EFDE
0202
ENDCHAR
STARTCHAR U+3427
ENCODING 13351
SWIDTH 1000 0
DWIDTH 16 0
BBX 15 16 0 -2
BITMAP
01C0
3080
0880
0480
0680
8084
FFFE
8288
0290
04A0
0880
1080
A080
C080
0380
0100
ENDCHAR
STARTCHAR U+342E
ENCODING 13358
SWIDTH 1000 0
DWIDTH 16 0
BBX 15 16 0 -2
BITMAP
0300
8102
FFFE
8442
783C
0440
3FF8
0440
3FF8
8442
FFFE
0284
9C48
E830
0F9A
3806
ENDCHAR
STARTCHAR U+34C1
ENCODING 13505
SWIDTH 1000 0
DWIDTH 16 0
BBX 15 6 0 8
BITMAP
8002
FFFE
8442
8822
701C
4004
ENDCHAR
STARTCHAR U+353E
ENCODING 13630
SWIDTH 1000 0
DWIDTH 16 0
BBX 14 16 1 -2
BITMAP
4020
FFF0
4020
4020
4020
4020
4020
4020
40E0
4040
4000
4000
4008
4008
4008
3FFC
ENDCHAR
STARTCHAR U+353F
ENCODING 13631
SWIDTH 1000 0
DWIDTH 16 0
BBX 15 16 0 -2
BITMAP
8002
FFFE
9012
1010
1010
1010
1010
1010
1070
1190
1610
7810
4010
0010
0010
0030
ENDCHAR
STARTCHAR U+3653
ENCODING 13907
SWIDTH 1000 0
DWIDTH 16 0
BBX 15 16 0 -2
BITMAP
0300
1110
1FF0
4104
7FFC
1020
7EF8
1020
92A2
FEFE
8102
2108
3FF8
8102
FFFE
8002
ENDCHAR
STARTCHAR U+3691
ENCODING 13969
SWIDTH 1000 0
DWIDTH 16 0
BBX 15 16 0 -2
BITMAP
2008
3FFC
800A
FFFE
800A
2008
3FF8
2108
8102
FFFE
8102
0280
0440
0820
B01A
C006
ENDCHAR
STARTCHAR U+3692
ENCODING 13970
SWIDTH 1000 0
DWIDTH 16 0
BBX 15 16 0 -2
BITMAP
0380
8102
FFFE
8102
7138
1108
1108
2914
2696
C2A2
8440
0440
0820
1010
A00A
C006
ENDCHAR
STARTCHAR U+38FA
ENCODING 14586
SWIDTH 1000 0
DWIDTH 16 0
BBX 13 16 1 -2
BITMAP
0C00
0400
0400
2520
2520
2490
C4D8
8448
0400
0400
0400
0400
0400
0400
0400
0C00
ENDCHAR
STARTCHAR U+3AC3
ENCODING 15043
SWIDTH 1000 0
DWIDTH 16 0
BBX 15 16 0 -2
BITMAP
3860
1020
9220
FE20
A220
2020
2420
3C20
2450
2450
2450
4450
4888
C888
9B06
1202
ENDCHAR
STARTCHAR U+3C16
ENCODING 15382
SWIDTH 1000 0
DWIDTH 16 0
BBX 15 16 0 -2
BITMAP
6490
2792
A53E
FFC2
A4A4
27BC
7504
6FF8
AA08
A3F8
2208
23F8
2208
23F8
2924
6E3E
ENDCHAR
STARTCHAR U+3E74
ENCODING 15988
SWIDTH 1000 0
DWIDTH 16 0
BBX 15 16 0 -2
BITMAP
1A02
93FE
D222
2124
23FE
5124
91FC
1124
2924
49FC
8924
08A0
0840
5040
35B2
260E
ENDCHAR
STARTCHAR U+4525
ENCODING 17701
SWIDTH 1000 0
DWIDTH 16 0
BBX 15 16 0 -2
BITMAP
4444
FFFE
0540
3FF0
8112
FFFE
8112
3FF0
1938
1550
1310
1FF0
2190
2550
D930
8110
ENDCHAR
STARTCHAR U+49A7
ENCODING 18855
SWIDTH 1000 0
DWIDTH 16 0
BBX 15 16 0 -2
BITMAP
4484
FEFE
4484
7CFC
4484
7CFC
4204
5EF4
4824
4EE4
4824
4FE4
4284
44A4
587C
4008
ENDCHAR
STARTCHAR U+4C9C
ENCODING 19612
SWIDTH 1000 0
DWIDTH 16 0
BBX 15 16 0 -2
BITMAP
2020
3C3C
4848
FEFE
5454
7C7C
5454
7C7C
5454
AAAA
FCFC
5454
7C7C
5454
FEFE
AAAA
ENDCHAR
STARTCHAR U+4DAE
ENCODING 19886
SWIDTH 1000 0
DWIDTH 16 0
BBX 15 16 0 -2
BITMAP
06C0
8222
FFFE
8202
05A0
0540
0984
B304
CCFE
2008
3FF8
8102
FFFE
8442
5834
600C
ENDCHAR
STARTCHAR U+4E00
ENCODING 19968
SWIDTH 1000 0
DWIDTH 16 0
BBX 15 3 0 5
BITMAP
8002
FFFE
8002
ENDCHAR
STARTCHAR U+4E01
ENCODING 19969
SWIDTH 1000 0
DWIDTH 16 0
BBX 15 16 0 -2
BITMAP
8002
FFFE
8102
0100
0100
0100
0100
0100
0100
0100
0100
0100
0100
0100
0700
0200
ENDCHAR
STARTCHAR U+4E02
ENCODING 19970
SWIDTH 1000 0
DWIDTH 16 0
BBX 15 16 0 -2
BITMAP
8002
FFFE
8202
0200
0200
0410
07F8
0C10
0010
0010
0010
0010
0020
0020
01C0
0080
ENDCHAR
STARTCHAR U+4E03
ENCODING 19971
SWIDTH 1000 0
DWIDTH 16 0
BBX 15 15 0 -1
BITMAP
1800
0800
0800
0800
0802
083E
8FC2
F800
8800
0800
0800
0808
0808
0808
07FC
ENDCHAR
STARTCHAR U+4E04
ENCODING 19972
SWIDTH 1000 0
DWIDTH 16 0
BBX 15 16 0 -2
BITMAP
0300
0100
0100
0100
0100
0100
0100
0100
0100
0100
0100
0100
0100
8102
FFFE
8002
ENDCHAR
STARTCHAR U+4E05
ENCODING 19973
SWIDTH 1000 0
DWIDTH 16 0
BBX 15 16 0 -2
BITMAP
8002
FFFE
8102
0100
0100
0100
0100
0100
0100
0100
0100
0100
0100
0100
0100
0300
ENDCHAR
STARTCHAR U+4E06
ENCODING 19974
SWIDTH 1000 0
DWIDTH 16 0
BBX 15 12 0 2
BITMAP
8002
FFFE
8082
0080
0080
0100
0100
0200
0400
0800
B000
C000
ENDCHAR
STARTCHAR U+4E07
ENCODING 19975
SWIDTH 1000 0
DWIDTH 16 0
BBX 15 16 0 -2
BITMAP
8002
FFFE
8202
0200
0210
03F8
0210
0210
0410
0410
0410
0820
0820
1020
61C0
4080
ENDCHAR
STARTCHAR U+4E08
ENCODING 19976
SWIDTH 1000 0
DWIDTH 16 0
BBX 15 16 0 -2
BITMAP
0300
0100
8102
FFFE
8102
1100
1100
0900
0900
0500
0200
0200
0500
08C0
B032
C00E
ENDCHAR
STARTCHAR U+4E09
ENCODING 19977
SWIDTH 1000 0
DWIDTH 16 0
BBX 15 14 0 -1
BITMAP
2008
3FF8
2008
0000
0000
1010
1FF0
1010
0000
0000
0000
8002
FFFE
8002
ENDCHAR
STARTCHAR U+4E0A
ENCODING 19978
SWIDTH 1000 0
DWIDTH 16 0
BBX 15 16 0 -2
BITMAP
0300
0100
0100
0100
0100
0108
01F8
0108
0100
0100
0100
0100
0100
8102
FFFE
8002
ENDCHAR
STARTCHAR U+4E0B
ENCODING 19979
SWIDTH 1000 0
DWIDTH 16 0
BBX 15 16 0 -2
BITMAP
8002
FFFE
8102
0100
0100
0100
01C0
0130
0118
0100
0100
0100
0100
0100
0100
0300
ENDCHAR
STARTCHAR U+4E0C
ENCODING 19980
SWIDTH 1000 0
DWIDTH 16 0
BBX 15 16 0 -2
BITMAP
8002
FFFE
8842
0840
0840
0840
0840
0840
0840
0840
0840
1040
1040
2040
C040
80C0
ENDCHAR
STARTCHAR U+4E0D
ENCODING 19981
SWIDTH 1000 0
DWIDTH 16 0
BBX 15 16 0 -2
BITMAP
8002
FFFE
8082
0100
0100
0360
0510
0908
B104
C106
0100
0100
0100
0100
0100
0300
ENDCHAR
STARTCHAR U+4E0E
ENCODING 19982
SWIDTH 1000 0
DWIDTH 16 0
BBX 14 16 0 -2
BITMAP
1800
0804
0FFC
0804
1000
1FFC
3008
0008
8048
FFC8
8048
0010
0010
0020
01E0
0040
ENDCHAR
STARTCHAR U+4E0F
ENCODING 19983
SWIDTH 1000 0
DWIDTH 16 0
BBX 15 16 0 -2
BITMAP
8002
FFFE
8102
0100
3904
11FE
1104
1104
1104
3FFC
1004
0004
0008
0008
00F0
0020
ENDCHAR
STARTCHAR U+4E10
ENCODING 19984
SWIDTH 1000 0
DWIDTH 16 0
BBX 15 16 0 -2
BITMAP
8002
FFFE
8102
0100
3908
11F8
1108
1100
1104
3FFE
1004
0004
0008
0008
00F0
0020
ENDCHAR
STARTCHAR U+4E11
ENCODING 19985
SWIDTH 1000 0
DWIDTH 16 0
BBX 15 16 0 -2
BITMAP
4010
7FF8
4210
0210
0210
0210
2210
3FF0
2410
0410
0410
0410
0410
8412
FFFE
8002
ENDCHAR
STARTCHAR U+4E12
ENCODING 19986
SWIDTH 1000 0
DWIDTH 16 0
BBX 15 16 0 -2
BITMAP
4008
7FFC
4108
1108
1108
0908
0608
0308
04C8
0410
0810
B1E0
C040
0002
FFFE
8002
ENDCHAR
STARTCHAR U+4E13
ENCODING 19987
SWIDTH 1000 0
DWIDTH 16 0
BBX 15 16 0 -2
BITMAP
0300
0100
2108
3FF8
2208
8202
FFFE
8402
0420
0FF0
0820
0040
0C80
0300
00C0
0060
ENDCHAR
STARTCHAR U+4E14
ENCODING 19988
SWIDTH 1000 0
DWIDTH 16 0
BBX 15 16 0 -2
BITMAP
0820
1FF0
0820
0820
0820
0FE0
0820
0820
0820
0FE0
0820
0820
0820
8822
FFFE
8002
ENDCHAR
STARTCHAR U+4E15
ENCODING 19989
SWIDTH 1000 0
DWIDTH 16 0
BBX 15 16 0 -2
BITMAP
8002
FFFE
8042
0080
0100
02C0
0530
0908
710C
4104
0100
0100
0300
8002
FFFE
8002
ENDCHAR
STARTCHAR U+4E16
ENCODING 19990
SWIDTH 1000 0
DWIDTH 16 0
BBX 15 16 0 -2
BITMAP
3330
1110
1110
1110
9112
FFFE
9112
1110
1110
1110
11F0
1110
1000
1002
1FFE
1002
ENDCHAR
STARTCHAR U+4E17
ENCODING 19991
SWIDTH 1000 0
DWIDTH 16 0
BBX 15 16 0 -2
BITMAP
3BB8
1110
1110
1110
1110
9112
FFFE
9112
1110
1110
1110
1110
1110
1110
3FF8
1010
ENDCHAR
STARTCHAR U+4E18
ENCODING 19992
SWIDTH 1000 0
DWIDTH 16 0
BBX 15 16 0 -2
BITMAP
0030
09D0
1E00
0800
0800
0808
0FF8
0848
0840
0840
0840
0840
0840
8842
FFFE
8002
ENDCHAR
STARTCHAR U+4E19
ENCODING 19993
SWIDTH 1000 0
DWIDTH 16 0
BBX 15 16 0 -2
BITMAP
8002
FFFE
8102
0100
2108
7FFC
2108
2288
2288
2448
2828
3018
2008
2008
2038
2010
ENDCHAR
STARTCHAR U+4E1A
ENCODING 19994
SWIDTH 1000 0
DWIDTH 16 0
BBX 15 16 0 -2
BITMAP
0CC0
0440
0440
0440
644C
2448
2448
2448
1450
1450
0440
0440
0440
8442
FFFE
8002
ENDCHAR
STARTCHAR U+4E1B
ENCODING 19995
SWIDTH 1000 0
DWIDTH 16 0
BBX 15 16 0 -2
BITMAP
3870
1020
1020
1020
1020
1020
1850
1450
2650
2288
4088
C104
0606
8402
FFFE
8002
ENDCHAR
STARTCHAR U+4E1C
ENCODING 19996
SWIDTH 1000 0
DWIDTH 16 0
BBX 15 16 0 -2
BITMAP
0600
0200
8202
FFFE
8402
0580
0900
0910
1FF0
1110
0100
0920
B11A
C106
0700
0200
ENDCHAR
STARTCHAR U+4E1D
ENCODING 19997
SWIDTH 1000 0
DWIDTH 16 0
BBX 15 16 0 -2
BITMAP
1830
1020
1020
162C
2448
2448
7CF8
4890
0810
1020
2040
7EFC
4080
8002
FFFE
8002
ENDCHAR
STARTCHAR U+4E1E
ENCODING 19998
SWIDTH 1000 0
DWIDTH 16 0
BBX 15 16 0 -2
BITMAP
1010
1FF8
1020
0040
8380
FD4C
8548
0950
0920
1110
210A
C706
8200
4004
7FFC
4004
ENDCHAR
STARTCHAR U+4E1F
ENCODING 19999
SWIDTH 1000 0
DWIDTH 16 0
BBX 15 16 0 -2
BITMAP
4004
7FFC
4104
0100
2108
3FF8
2108
0100
8102
FFFE
8202
0420
0410
09F0
7E08
2008
ENDCHAR
STARTCHAR U+4E20
ENCODING 20000
SWIDTH 1000 0
DWIDTH 16 0
BBX 15 16 0 -2
BITMAP
0D80
0480
0480
848C
FC98
84E0
0480
0C80
3480
C484
8484
0484
0C7E
8000
FFFE
8002
ENDCHAR
STARTCHAR U+4E21
ENCODING 20001
SWIDTH 1000 0
DWIDTH 16 0
BBX 15 16 0 -2
BITMAP
8002
FFFE
8102
0100
4104
FFFE
4104
4924
4924
4924
4924
4FE4
4824
4004
401C
4008
ENDCHAR
STARTCHAR U+4E22
ENCODING 20002
SWIDTH 1000 0
DWIDTH 16 0
BBX 15 16 0 -2
BITMAP
2038
3FC8
2100
0100
4104
7FFC
4104
0100
8102
FFFE
8202
0420
0410
09F0
7E08
2008
ENDCHAR
STARTCHAR U+4E24
ENCODING 20004
SWIDTH 1000 0
DWIDTH 16 0
BBX 15 16 0 -2
BITMAP
8002
FFFE
8442
0440
4444
FFFE
4444
4444
4E64
4A54
4B54
509C
5184
6104
401C
4008
ENDCHAR
STARTCHAR U+4E25
ENCODING 20005
SWIDTH 1000 0
DWIDTH 16 0
BBX 15 16 0 -2
BITMAP
4002
7FFE
4242
324C
1248
0A50
2242
3FFE
2002
2000
2000
2000
2000
4000
C000
8000
ENDCHAR
STARTCHAR U+4E26
ENCODING 20006
SWIDTH 1000 0
DWIDTH 16 0
BBX 15 16 0 -2
BITMAP
0C60
0440
0440
4084
7FFC
4444
0440
644C
2448
2448
1450
1450
0440
8442
FFFE
8002
ENDCHAR
STARTCHAR U+4E27
ENCODING 20007
SWIDTH 1000 0
DWIDTH 16 0
BBX 15 16 0 -2
BITMAP
0300
0100
4104
7FFC
4104
1930
0920
8542
FFFE
8884
088C
0850
0820
0F90
780A
4006
ENDCHAR
STARTCHAR U+4E28
ENCODING 20008
SWIDTH 1000 0
DWIDTH 16 0
BBX 2 16 6 -2
BITMAP
C0
40
40
40
40
40
40
40
40
40
40
40
40
40
40
C0
ENDCHAR
STARTCHAR U+4E29
ENCODING 20009
SWIDTH 1000 0
DWIDTH 16 0
BBX 8 16 3 -2
BITMAP
03
61
21
21
21
21
21
21
21
27
39
E1
81
01
01
03
ENDCHAR
STARTCHAR U+4E2A
ENCODING 20010
SWIDTH 1000 0
DWIDTH 16 0
BBX 15 16 0 -2
BITMAP
0380
0100
0280
0440
0820
1390
2108
C106
8102
0100
0100
0100
0100
0100
0100
0380
ENDCHAR
STARTCHAR U+4E2B
ENCODING 20011
SWIDTH 1000 0
DWIDTH 16 0
BBX 13 16 1 -2
BITMAP
C018
4010
2020
2020
1040
0880
0300
0200
0200
0200
0200
0200
0200
0200
0200
0700
ENDCHAR
STARTCHAR U+4E2C
ENCODING 20012
SWIDTH 1000 0
DWIDTH 16 0
BBX 5 16 5 -2
BITMAP
18
08
08
88
48
28
28
08
38
C8
88
08
08
08
08
18
ENDCHAR
STARTCHAR U+4E2D
ENCODING 20013
SWIDTH 1000 0
DWIDTH 16 0
BBX 13 16 1 -2
BITMAP
0600
0200
0200
4210
FFF8
4210
4210
4210
4210
7FF0
4210
0200
0200
0200
0200
0600
ENDCHAR
STARTCHAR U+4E2F
ENCODING 20015
SWIDTH 1000 0
DWIDTH 16 0
BBX 15 16 0 -2
BITMAP
0300
0108
0110
41E0
7F04
0108
0130
41C0
7F02
010C
0130
81C0
FF00
0100
0100
0300
ENDCHAR
STARTCHAR U+4E30
ENCODING 20016
SWIDTH 1000 0
DWIDTH 16 0
BBX 15 16 0 -2
BITMAP
0300
0100
4104
7FFC
4104
2108
3FF8
2108
0100
8102
FFFE
8102
0100
0100
0100
0300
ENDCHAR
STARTCHAR U+4E31
ENCODING 20017
SWIDTH 1000 0
DWIDTH 16 0
BBX 15 16 0 -2
BITMAP
0EE0
0440
E44E
4444
4444
4444
4444
4444
4444
7C7C
4444
0440
0840
0840
9040
E0E0
ENDCHAR
STARTCHAR U+4E32
ENCODING 20018
SWIDTH 1000 0
DWIDTH 16 0
BBX 15 16 0 -2
BITMAP
0300
0100
2108
7FFC
2108
2108
3FF8
4104
FFFE
4104
4104
7FFC
4104
0100
0100
0300
ENDCHAR
ENDFONT
